{
.appVersion = "1240";
customParameters = (
{
name = fsType;
value = (
);
},
{
name = licenseURL;
value = "http://scripts.sil.org/OFL";
},
{
name = license;
value = "This Font Software is licensed under the SIL Open Font License, Version 1.1. This license is available with a FAQ at: http://scripts.sil.org/OFL";
},
{
name = trademark;
value = "Public Sans is based on Libre Franklin, which is a trademark of Impallari Type.";
},
{
name = description;
value = "Libre Franklin is a reinterpretation and expansion of the 1912 Morris Fuller Benton￢ﾀﾙs classic.";
},
{
name = vendorID;
value = IMPA;
},
{
name = note;
value = "Based on Libre Franklin\012\012";
},
{
name = vsuffix;
value = "";
},
{
name = Axes;
value = (
{
Name = Weight;
Tag = wght;
}
);
}
);
date = "2019-06-06 14:56:17 +0000";
designer = "Pablo Impallari, Rodrigo Fuenzalida (Modified by Dan O. Williams)";
designerURL = "https://designsystem.digital.gov";
familyName = "Public Sans";
featurePrefixes = (
{
automatic = 1;
code = "languagesystem DFLT dflt;\012languagesystem latn dflt;\012languagesystem cyrl dflt;\012languagesystem latn CAT;\012languagesystem latn ROM;\012languagesystem latn MOL;\012languagesystem latn KAZ;\012languagesystem latn TRK;\012languagesystem latn CRT;\012languagesystem latn AZE;\012languagesystem cyrl TAT;\012";
name = Languagesystems;
}
);
features = (
{
automatic = 1;
code = "feature locl;\012feature subs;\012feature sinf;\012feature sups;\012feature numr;\012feature dnom;\012feature frac;\012feature ordn;\012feature lnum;\012feature pnum;\012feature tnum;\012feature onum;\012feature salt;\012feature ss01;\012";
name = aalt;
},
{
automatic = 1;

glyphs = (
{
glyphname = A;
lastChange = "2019-06-10 23:33:08 +0000";
layers = (
{
anchors = (
{
name = bottom;
position = "{665, 0}";
},
{
name = ogonek;
position = "{1327, 10}";
},
{
name = top;
position = "{885, 1446}";
}
);
background = {
anchors = (
{
name = ogonek;
position = "{1495, 18}";
},
{
name = top;
position = "{793, 1484}";
}
);
paths = (
{
closed = 1;
nodes = (
"393 0 LINE SMOOTH",
"421 0 OFFCURVE",
"435 14 OFFCURVE",
"441 30 CURVE SMOOTH",
"523 266 LINE SMOOTH",
"527 280 OFFCURVE",
"537 288 OFFCURVE",
"553 288 CURVE SMOOTH",
"977 288 LINE SMOOTH",
"997 288 OFFCURVE",
"1001 278 OFFCURVE",
"1007 264 CURVE SMOOTH",
"1085 34 LINE SMOOTH",
"1093 8 OFFCURVE",
"1109 0 OFFCURVE",
"1129 0 CURVE SMOOTH",
"1521 0 LINE SMOOTH",
"1551 0 OFFCURVE",
"1559 40 OFFCURVE",
"1549 68 CURVE SMOOTH",
"1069 1430 LINE SMOOTH",
"1057 1462 OFFCURVE",
"1031 1484 OFFCURVE",
"997 1484 CURVE SMOOTH",
"603 1484 LINE SMOOTH",
"567 1484 OFFCURVE",
"555 1470 OFFCURVE",
"543 1438 CURVE SMOOTH",
"59 74 LINE SMOOTH",
"43 30 OFFCURVE",
"59 0 OFFCURVE",
"89 0 CURVE SMOOTH"
);
},
{
closed = 1;
nodes = (
"625 628 OFFCURVE",
"619 644 OFFCURVE",
"629 670 CURVE SMOOTH",
"751 1010 LINE SMOOTH",
"755 1024 OFFCURVE",
"769 1024 OFFCURVE",
"775 1010 CURVE SMOOTH",
"895 668 LINE SMOOTH",
"903 642 OFFCURVE",
"899 628 OFFCURVE",
"877 628 CURVE SMOOTH",
"649 628 LINE SMOOTH"
);
}
);
};
layerId = "258ED206-D907-4350-8EBA-CBDDA1C16BF7";
paths = (
{
closed = 1;
nodes = (
"343 0 LINE",
"483 280 LINE",
"937 280 LINE",
"989 0 LINE",
"1371 0 LINE",
"1081 1446 LINE",
"687 1446 LINE",
"-43 0 LINE"
);
},
{
closed = 1;
nodes = (
"829 1074 LINE",
"899 612 LINE",
"615 612 LINE"
);
}
);
width = 1473;
},
{
anchors = (
{
name = bottom;
position = "{582, 0}";
},
{
name = ogonek;
position = "{1120, 24}";
},
{
name = top;
position = "{786, 1446}";
}
);
background = {
anchors = (
{
name = ogonek;
position = "{1180, 22}";
},
{
name = top;
position = "{603, 1484}";
}
);
paths = (
{
closed = 1;
nodes = (
"72 0 LINE SMOOTH",
"84 0 OFFCURVE",
"92 4 OFFCURVE",
"94 14 CURVE SMOOTH",
"260 462 LINE SMOOTH",
"264 472 OFFCURVE",
"269 476 OFFCURVE",
"280 476 CURVE SMOOTH",
"924 476 LINE SMOOTH",
"937 476 OFFCURVE",
"940 472 OFFCURVE",
"944 462 CURVE SMOOTH",
"1106 16 LINE SMOOTH",
"1110 4 OFFCURVE",
"1118 0 OFFCURVE",
"1132 0 CURVE SMOOTH",
"1180 0 LINE SMOOTH",
"1194 0 OFFCURVE",
"1200 8 OFFCURVE",
"1196 20 CURVE SMOOTH",
"672 1464 LINE SMOOTH",
"668 1478 OFFCURVE",
"656 1484 OFFCURVE",
"636 1484 CURVE SMOOTH",
"570 1484 LINE SMOOTH",
"552 1484 OFFCURVE",
"544 1478 OFFCURVE",
"538 1462 CURVE SMOOTH",
"8 18 LINE SMOOTH",
"4 6 OFFCURVE",
"10 0 OFFCURVE",
"22 0 CURVE SMOOTH"
);
},
{
closed = 1;
nodes = (
"296 556 OFFCURVE",
"292 558 OFFCURVE",
"298 572 CURVE SMOOTH",
"588 1354 LINE SMOOTH",
"598 1382 OFFCURVE",
"608 1382 OFFCURVE",
"618 1356 CURVE SMOOTH",
"904 576 LINE SMOOTH",
"908 564 OFFCURVE",
"906 556 OFFCURVE",
"890 556 CURVE SMOOTH",
"308 556 LINE SMOOTH"
);
}
);
};
guideLines = (
{
angle = 69.4967;
position = "{-338, 110}";
},
{
angle = 110.0797;
position = "{21, 110}";
}
);
layerId = "91AB5BCA-6A50-42DA-B2F7-8181BF189245";
paths = (
{
closed = 1;
nodes = (
"122 0 LINE",
"342 456 LINE",
"952 456 LINE",
"1040 0 LINE",
"1119 0 LINE",
"837 1446 LINE",
"735 1446 LINE",
"45 0 LINE"
);
},
{
closed = 1;
nodes = (
"777 1362 LINE",
"937 542 LINE",
"380 542 LINE"
);
}
);
width = 1308;
}
);
leftKerningGroup = A;
leftMetricsKey = X;
rightKerningGroup = A;
rightMetricsKey = X;
unicode = 0041;
},
{
glyphname = Aringacute;
lastChange = "2019-06-10 23:33:08 +0000";
layers = (
{
background = {
paths = (
{
closed = 1;
nodes = (
"428 6 LINE",
"528 294 LINE",
"996 294 LINE",
"1094 6 LINE",
"1570 6 LINE",
"1046 1490 LINE",
"556 1490 LINE",
"30 6 LINE"
);
},
{
closed = 1;
nodes = (
"760 1048 LINE",
"906 634 LINE",
"612 634 LINE"
);
},
{
closed = 1;
nodes = (
"922 1386 OFFCURVE",
"1020 1468 OFFCURVE",
"1020 1592 CURVE SMOOTH",
"1020 1712 OFFCURVE",
"922 1798 OFFCURVE",
"800 1798 CURVE SMOOTH",
"680 1798 OFFCURVE",
"580 1714 OFFCURVE",
"580 1596 CURVE SMOOTH",
"580 1470 OFFCURVE",
"678 1386 OFFCURVE",
"800 1386 CURVE SMOOTH"
);
},
{
closed = 1;
nodes = (
"746 1492 OFFCURVE",
"700 1538 OFFCURVE",
"700 1590 CURVE SMOOTH",
"700 1644 OFFCURVE",
"746 1684 OFFCURVE",
"798 1684 CURVE SMOOTH",
"852 1684 OFFCURVE",
"894 1644 OFFCURVE",
"894 1590 CURVE SMOOTH",
"894 1538 OFFCURVE",
"852 1492 OFFCURVE",
"798 1492 CURVE SMOOTH"
);
},
{
closed = 1;
nodes = (
"886 1750 LINE",
"936 1870 LINE SMOOTH",
"948 1898 OFFCURVE",
"940 1928 OFFCURVE",
"908 1928 CURVE SMOOTH",
"818 1928 LINE SMOOTH",
"780 1928 OFFCURVE",
"754 1916 OFFCURVE",
"742 1866 CURVE SMOOTH",
"714 1750 LINE"
);
}
);
};
components = (
{
name = A;
},
{
name = _ringacute;
transform = "{1, 0, 0, 1, 601, 412}";
}
);
layerId = "258ED206-D907-4350-8EBA-CBDDA1C16BF7";
width = 1473;
},
{
background = {
paths = (
{
closed = 1;
nodes = (
"876 1714 OFFCURVE",
"788 1800 OFFCURVE",
"676 1800 CURVE SMOOTH",
"566 1800 OFFCURVE",
"476 1714 OFFCURVE",
"476 1608 CURVE SMOOTH",
"476 1492 OFFCURVE",
"564 1404 OFFCURVE",
"676 1404 CURVE SMOOTH",
"788 1404 OFFCURVE",
"876 1490 OFFCURVE",
"876 1604 CURVE SMOOTH"
);
},
{
closed = 1;
nodes = (
"790 1540 OFFCURVE",
"740 1484 OFFCURVE",
"674 1484 CURVE SMOOTH",
"612 1484 OFFCURVE",
"556 1540 OFFCURVE",
"556 1602 CURVE SMOOTH",
"556 1672 OFFCURVE",
"612 1720 OFFCURVE",
"674 1720 CURVE SMOOTH",
"740 1720 OFFCURVE",
"790 1672 OFFCURVE",
"790 1602 CURVE SMOOTH"
);
},
{
closed = 1;
nodes = (
"628 1484 OFFCURVE",
"620 1478 OFFCURVE",
"614 1462 CURVE SMOOTH",
"120 18 LINE",
"116 8 OFFCURVE",
"122 0 OFFCURVE",
"134 0 CURVE SMOOTH",
"178 0 LINE SMOOTH",
"190 0 OFFCURVE",
"196 4 OFFCURVE",
"200 14 CURVE",
"354 462 LINE SMOOTH",
"358 472 OFFCURVE",
"362 476 OFFCURVE",
"374 476 CURVE SMOOTH",
"966 476 LINE SMOOTH",
"978 476 OFFCURVE",
"982 472 OFFCURVE",
"986 462 CURVE SMOOTH",
"1138 16 LINE SMOOTH",
"1142 4 OFFCURVE",
"1148 0 OFFCURVE",
"1162 0 CURVE SMOOTH",
"1216 0 LINE SMOOTH",
"1230 0 OFFCURVE",
"1236 8 OFFCURVE",
"1232 20 CURVE SMOOTH",
"746 1464 LINE",
"742 1478 OFFCURVE",
"730 1484 OFFCURVE",
"710 1484 CURVE SMOOTH",
"646 1484 LINE SMOOTH"
);
},
{
closed = 1;
nodes = (
"954 564 OFFCURVE",
"952 556 OFFCURVE",
"936 556 CURVE SMOOTH",
"398 556 LINE SMOOTH",
"386 556 OFFCURVE",
"384 558 OFFCURVE",
"390 572 CURVE SMOOTH",
"656 1354 LINE SMOOTH",
"666 1382 OFFCURVE",
"678 1382 OFFCURVE",
"686 1356 CURVE SMOOTH",
"950 576 LINE SMOOTH"
);
},
{
closed = 1;
nodes = (
"696 1928 OFFCURVE",
"686 1920 OFFCURVE",
"682 1902 CURVE SMOOTH",
"646 1750 LINE",
"722 1750 LINE",
"784 1896 LINE SMOOTH",
"792 1916 OFFCURVE",
"786 1928 OFFCURVE",
"764 1928 CURVE SMOOTH",
"718 1928 LINE SMOOTH"
);
}
);
};
components = (
{
name = A;
},
{
name = _ringacute;
transform = "{1, 0, 0, 1, 533, 412}";
}
);
layerId = "91AB5BCA-6A50-42DA-B2F7-8181BF189245";
width = 1308;
}
);
leftKerningGroup = A;
leftMetricsKey = A;
rightKerningGroup = A;
rightMetricsKey = A;
unicode = 01FA;
},
{
glyphname = AE;
lastChange = "2019-06-10 23:33:08 +0000";
layers = (
{
anchors = (
{
name = top;
position = "{1520, 1446}";
}
);
background = {
anchors = (
{
name = top;
position = "{1426, 1484}";
}
);
paths = (
{
closed = 1;
nodes = (
"1478 328 LINE SMOOTH",
"1460 328 OFFCURVE",
"1454 334 OFFCURVE",
"1454 356 CURVE SMOOTH",
"1454 556 LINE SMOOTH",
"1454 572 OFFCURVE",
"1466 584 OFFCURVE",
"1486 584 CURVE SMOOTH",
"1856 584 LINE SMOOTH",
"1882 584 OFFCURVE",
"1892 600 OFFCURVE",
"1892 618 CURVE SMOOTH",
"1892 866 LINE SMOOTH",
"1892 892 OFFCURVE",
"1878 906 OFFCURVE",
"1850 906 CURVE SMOOTH",
"1490 906 LINE SMOOTH",
"1470 906 OFFCURVE",
"1454 920 OFFCURVE",
"1454 948 CURVE SMOOTH",
"1454 1118 LINE SMOOTH",
"1454 1144 OFFCURVE",
"1470 1156 OFFCURVE",
"1500 1156 CURVE SMOOTH",
"2100 1156 LINE SMOOTH",
"2136 1156 OFFCURVE",
"2152 1178 OFFCURVE",
"2152 1210 CURVE SMOOTH",
"2154 1442 LINE SMOOTH",
"2154 1468 OFFCURVE",
"2142 1484 OFFCURVE",
"2118 1484 CURVE SMOOTH",
"820 1484 LINE SMOOTH",
"786 1484 OFFCURVE",
"770 1470 OFFCURVE",
"754 1438 CURVE SMOOTH",
"46 74 LINE SMOOTH",
"22 30 OFFCURVE",
"34 0 OFFCURVE",
"64 0 CURVE SMOOTH",
"368 0 LINE SMOOTH",
"396 0 OFFCURVE",
"412 14 OFFCURVE",
"420 30 CURVE SMOOTH",
"538 266 LINE",
"544 280 OFFCURVE",
"556 288 OFFCURVE",
"572 288 CURVE SMOOTH",
"974 288 LINE SMOOTH",
"994 288 OFFCURVE",
"1000 278 OFFCURVE",
"1000 260 CURVE SMOOTH",
"1000 50 LINE SMOOTH",
"1000 16 OFFCURVE",
"1014 0 OFFCURVE",
"1054 0 CURVE SMOOTH",
"2124 0 LINE SMOOTH",
"2158 0 OFFCURVE",
"2172 20 OFFCURVE",
"2172 44 CURVE SMOOTH",
"2172 290 LINE SMOOTH",
"2172 318 OFFCURVE",
"2156 328 OFFCURVE",
"2128 328 CURVE SMOOTH"
);
},
{
closed = 1;
nodes = (
"728 628 LINE SMOOTH",
"704 628 OFFCURVE",
"700 644 OFFCURVE",
"716 670 CURVE",
"920 1074 LINE SMOOTH",
"952 1134 OFFCURVE",
"1000 1130 OFFCURVE",
"1000 1070 CURVE SMOOTH",
"1000 668 LINE SMOOTH",
"1000 642 OFFCURVE",
"986 628 OFFCURVE",
"962 628 CURVE SMOOTH"
);
}
);
};
layerId = "258ED206-D907-4350-8EBA-CBDDA1C16BF7";
paths = (
{
closed = 1;
nodes = (
"314 0 LINE",
"492 280 LINE",
"930 280 LINE",
"888 0 LINE",
"2024 0 LINE",
"2072 320 LINE",
"1378 320 LINE",
"1416 570 LINE",
"1838 570 LINE",
"1886 884 LINE",
"1462 884 LINE",
"1500 1128 LINE",
"2176 1128 LINE",
"2226 1446 LINE",
"892 1446 LINE",
"-72 0 LINE"
);
},
{
closed = 1;
nodes = (
"1070 1202 LINE",
"979 612 LINE",
"684 612 LINE"
);
}
);
width = 2191;
},
{
anchors = (
{
name = top;
position = "{1266, 1446}";
}
);
background = {
anchors = (
{
name = top;
position = "{1232, 1484}";
}
);
paths = (
{
closed = 1;
nodes = (
"970 80 LINE SMOOTH",
"956 80 OFFCURVE",
"952 82 OFFCURVE",
"952 98 CURVE SMOOTH",
"952 692 LINE SMOOTH",
"952 708 OFFCURVE",
"956 710 OFFCURVE",
"970 710 CURVE SMOOTH",
"1506 710 LINE SMOOTH",
"1518 710 OFFCURVE",
"1522 712 OFFCURVE",
"1522 724 CURVE SMOOTH",
"1522 776 LINE SMOOTH",
"1522 786 OFFCURVE",
"1518 790 OFFCURVE",
"1508 790 CURVE SMOOTH",
"970 790 LINE SMOOTH",
"956 790 OFFCURVE",
"952 792 OFFCURVE",
"952 804 CURVE SMOOTH",
"952 1386 LINE SMOOTH",
"952 1402 OFFCURVE",
"956 1404 OFFCURVE",
"970 1404 CURVE SMOOTH",
"1646 1404 LINE SMOOTH",
"1658 1404 OFFCURVE",
"1662 1406 OFFCURVE",
"1662 1418 CURVE SMOOTH",
"1662 1470 LINE SMOOTH",
"1662 1480 OFFCURVE",
"1658 1484 OFFCURVE",
"1648 1484 CURVE SMOOTH",
"838 1484 LINE SMOOTH",
"820 1484 OFFCURVE",
"810 1478 OFFCURVE",
"802 1462 CURVE",
"-24 18 LINE SMOOTH",
"-30 8 OFFCURVE",
"-26 0 OFFCURVE",
"-14 0 CURVE SMOOTH",
"36 0 LINE SMOOTH",
"48 0 OFFCURVE",
"54 4 OFFCURVE",
"60 14 CURVE SMOOTH",
"318 462 LINE SMOOTH",
"324 472 OFFCURVE",
"330 476 OFFCURVE",
"342 476 CURVE SMOOTH",
"850 476 LINE SMOOTH",
"856 476 OFFCURVE",
"860 472 OFFCURVE",
"860 466 CURVE SMOOTH",
"860 20 LINE SMOOTH",
"860 4 OFFCURVE",
"864 0 OFFCURVE",
"878 0 CURVE SMOOTH",
"1678 0 LINE SMOOTH",
"1688 0 OFFCURVE",
"1692 4 OFFCURVE",
"1692 14 CURVE SMOOTH",
"1692 66 LINE SMOOTH",
"1692 78 OFFCURVE",
"1688 80 OFFCURVE",
"1676 80 CURVE SMOOTH"
);
},
{
closed = 1;
nodes = (
"380 556 LINE SMOOTH",
"368 556 OFFCURVE",
"366 558 OFFCURVE",
"374 572 CURVE SMOOTH",
"830 1354 LINE SMOOTH",
"846 1382 OFFCURVE",
"858 1382 OFFCURVE",
"860 1356 CURVE",
"860 574 LINE SMOOTH",
"860 564 OFFCURVE",
"856 556 OFFCURVE",
"844 556 CURVE SMOOTH"
);
}
);
};
layerId = "91AB5BCA-6A50-42DA-B2F7-8181BF189245";
paths = (
{
closed = 1;
nodes = (
"4 0 LINE",
"314 464 LINE",
"796 464 LINE",
"729 0 LINE",
"1476 0 LINE",
"1486 78 LINE",
"822 78 LINE",
"908 692 LINE",
"1420 692 LINE",
"1430 770 LINE",
"920 770 LINE",
"1004 1368 LINE",
"1642 1368 LINE",
"1652 1446 LINE",
"890 1446 LINE",
"-72 0 LINE"
);
},
{
closed = 1;
nodes = (
"922 1370 LINE",
"806 542 LINE",
"360 542 LINE"
);
}
);
width = 1689;
}
);
leftKerningGroup = AE;
rightKerningGroup = E;
rightMetricsKey = E;
unicode = 00C6;
},
{
glyphname = B;
lastChange = "2019-06-10 23:32:23 +0000";
layers = (
{
background = {
paths = (
{
closed = 1;
nodes = (
"813 0 LINE SMOOTH",
"1245 0 OFFCURVE",
"1451 130 OFFCURVE",
"1451 404 CURVE SMOOTH",
"1451 574 OFFCURVE",
"1373 676 OFFCURVE",
"1152 758 CURVE SMOOTH",
"1146 760 OFFCURVE",
"1146 770 OFFCURVE",
"1152 772 CURVE SMOOTH",
"1353 864 OFFCURVE",
"1415 954 OFFCURVE",
"1415 1092 CURVE SMOOTH",
"1415 1350 OFFCURVE",
"1194 1484 OFFCURVE",
"781 1484 CURVE SMOOTH",
"185 1484 LINE SMOOTH",
"155 1484 OFFCURVE",
"135 1462 OFFCURVE",
"135 1432 CURVE SMOOTH",
"135 44 LINE SMOOTH",
"135 20 OFFCURVE",
"152 0 OFFCURVE",
"181 0 CURVE SMOOTH"
);
},
{
closed = 1;
nodes = (
"597 300 OFFCURVE",
"589 314 OFFCURVE",
"589 344 CURVE SMOOTH",
"589 554 LINE SMOOTH",
"589 584 OFFCURVE",
"601 596 OFFCURVE",
"635 596 CURVE SMOOTH",
"813 596 LINE SMOOTH",
"913 596 OFFCURVE",
"979 536 OFFCURVE",
"979 454 CURVE SMOOTH",
"979 376 OFFCURVE",
"919 300 OFFCURVE",
"803 300 CURVE SMOOTH",
"623 300 LINE SMOOTH"
);
},
{
closed = 1;
nodes = (
"597 904 OFFCURVE",
"589 918 OFFCURVE",
"589 948 CURVE SMOOTH",
"589 1144 LINE SMOOTH",
"589 1174 OFFCURVE",
"601 1184 OFFCURVE",
"635 1184 CURVE SMOOTH",
"799 1184 LINE SMOOTH",
"893 1184 OFFCURVE",
"967 1128 OFFCURVE",
"967 1040 CURVE SMOOTH",
"967 962 OFFCURVE",
"907 904 OFFCURVE",
"813 904 CURVE SMOOTH",
"623 904 LINE SMOOTH"
);
}
);
};
layerId = "258ED206-D907-4350-8EBA-CBDDA1C16BF7";
rightMetricsKey = "=H/2";
paths = (
{
closed = 1;
nodes = (
"671 0 LINE SMOOTH",
"1087 0 OFFCURVE",
"1267 124 OFFCURVE",
"1309 394 CURVE",
"1325 502 OFFCURVE",
"1337 668 OFFCURVE",
"1095 744 CURVE",
"1285 832 OFFCURVE",
"1356 930 OFFCURVE",
"1377 1064 CURVE SMOOTH",
"1413 1310 OFFCURVE",
"1259 1446 OFFCURVE",
"858 1446 CURVE SMOOTH",
"283 1446 LINE",
"64 0 LINE"
);
},
{
closed = 1;
nodes = (
"541 582 LINE",
"783 582 LINE",
"879 582 OFFCURVE",
"935 522 OFFCURVE",
"923 442 CURVE SMOOTH",
"911 366 OFFCURVE",
"841 292 OFFCURVE",
"729 292 CURVE",
"497 292 LINE"
);
},
{
closed = 1;
nodes = (
"627 1154 LINE",
"854 1154 LINE SMOOTH",
"947 1154 OFFCURVE",
"1011 1100 OFFCURVE",
"997 1014 CURVE SMOOTH",
"984 938 OFFCURVE",
"919 882 OFFCURVE",
"829 882 CURVE SMOOTH",
"585 882 LINE"
);
}
);
width = 1395;
},
{
background = {
paths = (
{
closed = 1;
nodes = (
"543 0 LINE SMOOTH",
"893 0 OFFCURVE",
"1099 130 OFFCURVE",
"1099 394 CURVE SMOOTH",
"1099 594 OFFCURVE",
"981 712 OFFCURVE",
"801 746 CURVE SMOOTH",
"789 748 OFFCURVE",
"789 760 OFFCURVE",
"801 764 CURVE SMOOTH",
"977 818 OFFCURVE",
"1063 934 OFFCURVE",
"1063 1102 CURVE SMOOTH",
"1063 1350 OFFCURVE",
"869 1484 OFFCURVE",
"537 1484 CURVE SMOOTH",
"127 1484 LINE SMOOTH",
"113 1484 OFFCURVE",
"109 1480 OFFCURVE",
"109 1464 CURVE SMOOTH",
"109 16 LINE SMOOTH",
"109 6 OFFCURVE",
"115 0 OFFCURVE",
"125 0 CURVE SMOOTH"
);
},
{
closed = 1;
nodes = (
"205 80 OFFCURVE",
"201 86 OFFCURVE",
"201 100 CURVE SMOOTH",
"201 692 LINE SMOOTH",
"201 706 OFFCURVE",
"207 710 OFFCURVE",
"223 710 CURVE SMOOTH",
"561 710 LINE SMOOTH",
"811 710 OFFCURVE",
"1003 622 OFFCURVE",
"1003 382 CURVE SMOOTH",
"1003 164 OFFCURVE",
"849 80 OFFCURVE",
"533 80 CURVE SMOOTH",
"215 80 LINE SMOOTH"
);
},
{
closed = 1;
nodes = (
"205 790 OFFCURVE",
"201 796 OFFCURVE",
"201 810 CURVE SMOOTH",
"201 1388 LINE SMOOTH",
"201 1400 OFFCURVE",
"207 1404 OFFCURVE",
"219 1404 CURVE SMOOTH",
"529 1404 LINE SMOOTH",
"799 1404 OFFCURVE",
"967 1308 OFFCURVE",
"967 1092 CURVE SMOOTH",
"967 848 OFFCURVE",
"747 790 OFFCURVE",
"561 790 CURVE SMOOTH",
"215 790 LINE SMOOTH"
);
}
);
};
layerId = "91AB5BCA-6A50-42DA-B2F7-8181BF189245";
rightMetricsKey = "=H/1.6";
paths = (
{
closed = 1;
nodes = (
"529 0 LINE",
"843 0 OFFCURVE",
"1042 126 OFFCURVE",
"1078 382 CURVE",
"1106 576 OFFCURVE",
"1020 698 OFFCURVE",
"832 733 CURVE",
"1033 793 OFFCURVE",
"1118 906 OFFCURVE",
"1142 1068 CURVE SMOOTH",
"1176 1312 OFFCURVE",
"1020 1446 OFFCURVE",
"722 1446 CURVE SMOOTH",
"351 1446 LINE",
"147 0 LINE"
);
},
{
closed = 1;
nodes = (
"317 690 LINE",
"643 690 LINE SMOOTH",
"867 690 OFFCURVE",
"1039 610 OFFCURVE",
"1007 378 CURVE SMOOTH",
"977 164 OFFCURVE",
"810 82 OFFCURVE",
"526 82 CURVE",
"231 82 LINE"
);
},
{
closed = 1;
nodes = (
"411 1366 LINE",
"707 1366 LINE SMOOTH",
"951 1366 OFFCURVE",
"1099 1276 OFFCURVE",
"1069 1066 CURVE SMOOTH",
"1037 826 OFFCURVE",
"814 772 OFFCURVE",
"648 772 CURVE SMOOTH",
"327 772 LINE"
);
}
);
width = 1234;
}
);
leftKerningGroup = N;
leftMetricsKey = H;
rightKerningGroup = B;
unicode = 0042;
},
{
glyphname = C;
lastChange = "2019-06-10 23:33:08 +0000";
layers = (
{
anchors = (
{
name = bottom;
position = "{695, 0}";
},
{
name = top;
position = "{913, 1446}";
}
);
background = {
anchors = (
{
name = bottom;
position = "{695, 0}";
},
{
name = top;
position = "{913, 1446}";
}
);
guideLines = (
{
angle = -183.559;
position = "{511, 299}";
}
);
paths = (
{
closed = 1;
nodes = (
"1151 -20 OFFCURVE",
"1315 240 OFFCURVE",
"1401 540 CURVE",
"997 540 LINE",
"955 406 OFFCURVE",
"857 292 OFFCURVE",
"726 292 CURVE SMOOTH",
"607 292 OFFCURVE",
"528 372 OFFCURVE",
"528 574 CURVE SMOOTH",
"528 818 OFFCURVE",
"604 1154 OFFCURVE",
"855 1154 CURVE SMOOTH",
"989 1154 OFFCURVE",
"1056 1070 OFFCURVE",
"1058 936 CURVE",
"1461 936 LINE",
"1461 946 OFFCURVE",
"1462 955 OFFCURVE",
"1462 964 CURVE SMOOTH",
"1462 1261 OFFCURVE",
"1249 1466 OFFCURVE",
"917 1466 CURVE SMOOTH",
"382 1466 OFFCURVE",
"108 1025 OFFCURVE",
"108 593 CURVE SMOOTH",
"108 231 OFFCURVE",
"324 -20 OFFCURVE",
"691 -20 CURVE SMOOTH"
);
}
);
};
guideLines = (
{
angle = -183.559;
position = "{511, 299}";
}
);
layerId = "258ED206-D907-4350-8EBA-CBDDA1C16BF7";
paths = (
{
closed = 1;
nodes = (
"1151 -20 OFFCURVE",
"1315 240 OFFCURVE",
"1401 540 CURVE",
"997 540 LINE",
"955 406 OFFCURVE",
"857 292 OFFCURVE",
"726 292 CURVE SMOOTH",
"607 292 OFFCURVE",
"528 372 OFFCURVE",
"528 574 CURVE SMOOTH",
"528 818 OFFCURVE",
"604 1154 OFFCURVE",
"855 1154 CURVE SMOOTH",
"989 1154 OFFCURVE",
"1056 1070 OFFCURVE",
"1058 936 CURVE",
"1461 936 LINE",
"1461 1272 OFFCURVE",
"1252 1466 OFFCURVE",
"917 1466 CURVE SMOOTH",
"382 1466 OFFCURVE",
"108 1025 OFFCURVE",
"108 593 CURVE SMOOTH",
"108 231 OFFCURVE",
"324 -20 OFFCURVE",
"691 -20 CURVE SMOOTH"
);
}
);
width = 1489;
},
{
anchors = (
{
name = bottom;
position = "{604, 0}";
},
{
name = top;
position = "{793, 1446}";
}
);
background = {
anchors = (
{
name = bottom;
position = "{604, 0}";
},
{
name = top;
position = "{793, 1446}";
}
);
guideLines = (
{
angle = 90;
position = "{718, 342}";
}
);
paths = (
{
closed = 1;
nodes = (
"821 -20 OFFCURVE",
"1053 136 OFFCURVE",
"1101 344 CURVE",
"1026 370 LINE",
"956 176 OFFCURVE",
"794 62 OFFCURVE",
"610 62 CURVE SMOOTH",
"343 62 OFFCURVE",
"226 302 OFFCURVE",
"226 578 CURVE SMOOTH",
"226 949 OFFCURVE",
"439 1384 OFFCURVE",
"789 1384 CURVE SMOOTH",
"1015 1384 OFFCURVE",
"1121 1248 OFFCURVE",
"1129 1060 CURVE",
"1210 1070 LINE",
"1218 1278 OFFCURVE",
"1063 1466 OFFCURVE",
"788 1466 CURVE SMOOTH",
"386 1466 OFFCURVE",
"146 989 OFFCURVE",
"146 576 CURVE SMOOTH",
"146 259 OFFCURVE",
"287 -20 OFFCURVE",
"604 -20 CURVE SMOOTH"
);
}
);
};
guideLines = (
{
angle = 90;
position = "{718, 342}";
}
);
layerId = "91AB5BCA-6A50-42DA-B2F7-8181BF189245";
paths = (
{
closed = 1;
nodes = (
"821 -20 OFFCURVE",
"1053 136 OFFCURVE",
"1101 344 CURVE",
"1026 370 LINE",
"956 176 OFFCURVE",
"794 62 OFFCURVE",
"610 62 CURVE SMOOTH",
"343 62 OFFCURVE",
"226 302 OFFCURVE",
"226 578 CURVE SMOOTH",
"226 949 OFFCURVE",
"439 1384 OFFCURVE",
"789 1384 CURVE SMOOTH",
"1015 1384 OFFCURVE",
"1121 1248 OFFCURVE",
"1129 1060 CURVE",
"1210 1070 LINE",
"1218 1278 OFFCURVE",
"1063 1466 OFFCURVE",
"788 1466 CURVE SMOOTH",
"386 1466 OFFCURVE",
"146 989 OFFCURVE",
"146 576 CURVE SMOOTH",
"146 259 OFFCURVE",
"287 -20 OFFCURVE",
"604 -20 CURVE SMOOTH"
);
}
);
width = 1260;
}
);
leftKerningGroup = O;
leftMetricsKey = O;
rightKerningGroup = C;
rightMetricsKey = O;
unicode = 0043;
},
{
glyphname = D;
lastChange = "2019-06-10 23:33:08 +0000";
layers = (
{
anchors = (
{
name = bottom;
position = "{529, 0}";
},
{
name = center;
position = "{779, 724}";
},
{
name = top;
position = "{990, 1446}";
}
);
background = {
anchors = (
{
name = bottom;
position = "{529, 0}";
},
{
name = center;
position = "{779, 724}";
},
{
name = top;
position = "{990, 1446}";
}
);
paths = (
{
closed = 1;
nodes = (
"588 0 LINE SMOOTH",
"1098 0 OFFCURVE",
"1369 295 OFFCURVE",
"1432 706 CURVE SMOOTH",
"1439 758 OFFCURVE",
"1443 808 OFFCURVE",
"1443 856 CURVE SMOOTH",
"1443 1196 OFFCURVE",
"1243 1428 OFFCURVE",
"783 1443 CURVE SMOOTH",
"719 1446 OFFCURVE",
"583 1446 OFFCURVE",
"467 1446 CURVE SMOOTH",
"374 1446 OFFCURVE",
"295 1446 OFFCURVE",
"275 1446 CURVE",
"64 0 LINE"
);
},
{
closed = 1;
nodes = (
"625 1140 LINE",
"773 1140 LINE SMOOTH",
"942 1140 OFFCURVE",
"1044 1044 OFFCURVE",
"1044 854 CURVE SMOOTH",
"1044 824 OFFCURVE",
"1041 791 OFFCURVE",
"1036 756 CURVE SMOOTH",
"985 431 OFFCURVE",
"775 306 OFFCURVE",
"628 306 CURVE SMOOTH",
"499 306 LINE"
);
}
);
};
layerId = "258ED206-D907-4350-8EBA-CBDDA1C16BF7";
paths = (
{
closed = 1;
nodes = (
"588 0 LINE SMOOTH",
"1314 0 OFFCURVE",
"1443 585 OFFCURVE",
"1443 856 CURVE SMOOTH",
"1443 1427 OFFCURVE",
"968 1446 OFFCURVE",
"467 1446 CURVE SMOOTH",
"374 1446 OFFCURVE",
"295 1446 OFFCURVE",
"275 1446 CURVE",
"64 0 LINE"
);
},
{
closed = 1;
nodes = (
"625 1140 LINE",
"773 1140 LINE SMOOTH",
"942 1140 OFFCURVE",
"1044 1044 OFFCURVE",
"1044 854 CURVE SMOOTH",
"1044 564 OFFCURVE",
"860 306 OFFCURVE",
"628 306 CURVE SMOOTH",
"499 306 LINE"
);
}
);
width = 1492;
},
{
anchors = (
{
name = bottom;
position = "{502, 0}";
},
{
name = center;
position = "{658, 724}";
},
{
name = top;
position = "{849, 1446}";
}
);
background = {
anchors = (
{
name = bottom;
position = "{502, 0}";
},
{
name = center;
position = "{658, 724}";
},
{
name = top;
position = "{849, 1446}";
}
);
paths = (
{
closed = 1;
nodes = (
"348 0 LINE SMOOTH",
"836 0 OFFCURVE",
"1095 222 OFFCURVE",
"1167 730 CURVE SMOOTH",
"1176 797 OFFCURVE",
"1181 859 OFFCURVE",
"1181 916 CURVE SMOOTH",
"1181 1273 OFFCURVE",
"995 1442 OFFCURVE",
"569 1444 CURVE SMOOTH",
"461 1444 OFFCURVE",
"354 1446 OFFCURVE",
"351 1446 CURVE",
"150 0 LINE"
);
},
{
closed = 1;
nodes = (
"420 1364 LINE",
"544 1364 LINE SMOOTH",
"900 1364 OFFCURVE",
"1103 1259 OFFCURVE",
"1103 904 CURVE SMOOTH",
"1103 851 OFFCURVE",
"1099 794 OFFCURVE",
"1090 730 CURVE SMOOTH",
"1024 256 OFFCURVE",
"779 82 OFFCURVE",
"349 82 CURVE SMOOTH",
"240 82 LINE"
);
}
);
};
layerId = "91AB5BCA-6A50-42DA-B2F7-8181BF189245";
paths = (
{
closed = 1;
nodes = (
"348 0 LINE SMOOTH",
"979 0 OFFCURVE",
"1181 416 OFFCURVE",
"1181 916 CURVE SMOOTH",
"1181 1273 OFFCURVE",
"995 1442 OFFCURVE",
"569 1444 CURVE SMOOTH",
"461 1444 OFFCURVE",
"354 1446 OFFCURVE",
"351 1446 CURVE",
"150 0 LINE"
);
},
{
closed = 1;
nodes = (
"420 1364 LINE",
"544 1364 LINE SMOOTH",
"900 1364 OFFCURVE",
"1103 1259 OFFCURVE",
"1103 904 CURVE SMOOTH",
"1103 423 OFFCURVE",
"912 82 OFFCURVE",
"349 82 CURVE SMOOTH",
"240 82 LINE"
);
}
);
width = 1269;
}
);
leftKerningGroup = N;
leftMetricsKey = H;
rightKerningGroup = D;
rightMetricsKey = "=O";
unicode = 0044;
},
{
glyphname = Eth;
lastChange = "2019-06-10 23:33:08 +0000";
layers = (
{
background = {
components = (
{
name = D;
transform = "{1, 0, 0, 1, 73, 0}";
}
);
paths = (
{
closed = 1;
nodes = (
"926 830 OFFCURVE",
"912 846 OFFCURVE",
"890 846 CURVE SMOOTH",
"168 846 LINE SMOOTH",
"144 846 OFFCURVE",
"130 830 OFFCURVE",
"130 802 CURVE SMOOTH",
"130 620 LINE SMOOTH",
"130 586 OFFCURVE",
"142 572 OFFCURVE",
"182 572 CURVE SMOOTH",
"862 572 LINE SMOOTH",
"906 572 OFFCURVE",
"926 586 OFFCURVE",
"926 626 CURVE SMOOTH",
"926 808 LINE SMOOTH"
);
}
);
};
components = (
{
name = D;
transform = "{1, 0, 0, 1, 146, 0}";
}
);
layerId = "258ED206-D907-4350-8EBA-CBDDA1C16BF7";
paths = (
{
closed = 1;
nodes = (
"938 572 LINE",
"978 846 LINE",
"118 846 LINE",
"78 572 LINE"
);
}
);
width = 1638;
},
{
background = {
components = (
{
name = D;
transform = "{1, 0, 0, 1, 55, 0}";
}
);
paths = (
{
closed = 1;
nodes = (
"742 764 OFFCURVE",
"738 770 OFFCURVE",
"730 770 CURVE SMOOTH",
"158 770 LINE SMOOTH",
"148 770 OFFCURVE",
"145 764 OFFCURVE",
"145 752 CURVE SMOOTH",
"145 708 LINE SMOOTH",
"145 694 OFFCURVE",
"148 688 OFFCURVE",
"164 688 CURVE SMOOTH",
"718 688 LINE SMOOTH",
"736 688 OFFCURVE",
"742 694 OFFCURVE",
"742 710 CURVE SMOOTH",
"742 754 LINE SMOOTH"
);
}
);
};
components = (
{
name = D;
transform = "{1, 0, 0, 1, 70, 0}";
}
);
layerId = "91AB5BCA-6A50-42DA-B2F7-8181BF189245";
paths = (
{
closed = 1;
nodes = (
"742 688 LINE",
"742 770 LINE",
"145 770 LINE",
"145 688 LINE"
);
}
);
width = 1339;
}
);
leftKerningGroup = N;
rightKerningGroup = D;
rightMetricsKey = D;
unicode = 00D0;
},
{
glyphname = E;
lastChange = "2019-06-10 23:33:08 +0000";
layers = (
{
anchors = (
{
name = bottom;
position = "{595, 0}";
},
{
name = ogonek;
position = "{1129, 20}";
},
{
name = top;
position = "{793, 1446}";
}
);
background = {
anchors = (
{
name = bottom;
position = "{699, 0}";
},
{
name = ogonek;
position = "{1247, 20}";
},
{
name = top;
position = "{699, 1484}";
}
);
paths = (
{
closed = 1;
nodes = (
"131 50 LINE SMOOTH",
"131 16 OFFCURVE",
"145 0 OFFCURVE",
"185 0 CURVE SMOOTH",
"1255 0 LINE SMOOTH",
"1289 0 OFFCURVE",
"1303 20 OFFCURVE",
"1303 44 CURVE SMOOTH",
"1303 290 LINE SMOOTH",
"1303 318 OFFCURVE",
"1287 328 OFFCURVE",
"1259 328 CURVE SMOOTH",
"608 328 LINE SMOOTH",
"591 328 OFFCURVE",
"585 334 OFFCURVE",
"585 356 CURVE SMOOTH",
"585 556 LINE SMOOTH",
"585 572 OFFCURVE",
"597 584 OFFCURVE",
"617 584 CURVE SMOOTH",
"986 584 LINE SMOOTH",
"1013 584 OFFCURVE",
"1022 600 OFFCURVE",
"1022 618 CURVE SMOOTH",
"1022 866 LINE SMOOTH",
"1022 892 OFFCURVE",
"1009 906 OFFCURVE",
"980 906 CURVE SMOOTH",
"621 906 LINE SMOOTH",
"601 906 OFFCURVE",
"585 920 OFFCURVE",
"585 948 CURVE SMOOTH",
"585 1118 LINE SMOOTH",
"585 1144 OFFCURVE",
"601 1156 OFFCURVE",
"631 1156 CURVE SMOOTH",
"1230 1156 LINE SMOOTH",
"1267 1156 OFFCURVE",
"1283 1178 OFFCURVE",
"1283 1210 CURVE SMOOTH",
"1285 1442 LINE SMOOTH",
"1285 1468 OFFCURVE",
"1272 1484 OFFCURVE",
"1249 1484 CURVE SMOOTH",
"169 1484 LINE SMOOTH",
"145 1484 OFFCURVE",
"131 1468 OFFCURVE",
"131 1438 CURVE SMOOTH"
);
}
);
};
layerId = "258ED206-D907-4350-8EBA-CBDDA1C16BF7";
paths = (
{
closed = 1;
nodes = (
"1127 0 LINE",
"1177 324 LINE",
"501 324 LINE",
"539 570 LINE",
"1101 570 LINE",
"1148 884 LINE",
"589 884 LINE",
"625 1124 LINE",
"1295 1124 LINE",
"1345 1446 LINE",
"285 1446 LINE",
"64 0 LINE"
);
}
);
width = 1305;
},
{
anchors = (
{
name = bottom;
position = "{551, 0}";
},
{
name = ogonek;
position = "{931, 20}";
},
{
name = top;
position = "{715, 1446}";
}
);
background = {
anchors = (
{
name = bottom;
position = "{715, 0}";
},
{
name = ogonek;
position = "{1085, 20}";
},
{
name = top;
position = "{677, 1484}";
}
);
paths = (
{
closed = 1;
nodes = (
"215 20 LINE SMOOTH",
"215 4 OFFCURVE",
"219 0 OFFCURVE",
"233 0 CURVE SMOOTH",
"1093 0 LINE SMOOTH",
"1103 0 OFFCURVE",
"1107 4 OFFCURVE",
"1107 14 CURVE SMOOTH",
"1107 66 LINE SMOOTH",
"1107 78 OFFCURVE",
"1103 80 OFFCURVE",
"1091 80 CURVE SMOOTH",
"325 80 LINE SMOOTH",
"311 80 OFFCURVE",
"307 82 OFFCURVE",
"307 98 CURVE SMOOTH",
"307 692 LINE SMOOTH",
"307 708 OFFCURVE",
"311 710 OFFCURVE",
"325 710 CURVE SMOOTH",
"901 710 LINE SMOOTH",
"913 710 OFFCURVE",
"917 712 OFFCURVE",
"917 724 CURVE SMOOTH",
"917 776 LINE SMOOTH",
"917 786 OFFCURVE",
"913 790 OFFCURVE",
"903 790 CURVE SMOOTH",
"325 790 LINE SMOOTH",
"311 790 OFFCURVE",
"307 792 OFFCURVE",
"307 804 CURVE SMOOTH",
"307 1386 LINE SMOOTH",
"307 1402 OFFCURVE",
"311 1404 OFFCURVE",
"325 1404 CURVE SMOOTH",
"1061 1404 LINE SMOOTH",
"1073 1404 OFFCURVE",
"1077 1406 OFFCURVE",
"1077 1418 CURVE SMOOTH",
"1077 1470 LINE SMOOTH",
"1077 1480 OFFCURVE",
"1073 1484 OFFCURVE",
"1063 1484 CURVE SMOOTH",
"233 1484 LINE SMOOTH",
"219 1484 OFFCURVE",
"215 1480 OFFCURVE",
"215 1464 CURVE SMOOTH"
);
}
);
};
layerId = "91AB5BCA-6A50-42DA-B2F7-8181BF189245";
rightMetricsKey = "=140";
paths = (
{
closed = 1;
nodes = (
"937 0 LINE",
"949 82 LINE",
"231 84 LINE",
"317 690 LINE",
"961 690 LINE",
"971 772 LINE",
"327 772 LINE",
"411 1366 LINE",
"1103 1366 LINE",
"1115 1446 LINE",
"351 1446 LINE",
"147 0 LINE"
);
}
);
width = 1150;
}
);
leftKerningGroup = N;
leftMetricsKey = H;
rightKerningGroup = E;
rightMetricsKey = "=H/1.5";
unicode = 0045;
},
{
glyphname = F;
lastChange = "2019-06-10 23:32:23 +0000";
layers = (
{
background = {
paths = (
{
closed = 1;
nodes = (
"99 50 LINE SMOOTH",
"99 16 OFFCURVE",
"110 0 OFFCURVE",
"152 0 CURVE",
"486 0 LINE SMOOTH",
"533 0 OFFCURVE",
"553 16 OFFCURVE",
"553 58 CURVE SMOOTH",
"553 542 LINE SMOOTH",
"553 560 OFFCURVE",
"564 572 OFFCURVE",
"585 572 CURVE SMOOTH",
"959 572 LINE SMOOTH",
"986 572 OFFCURVE",
"995 586 OFFCURVE",
"995 606 CURVE SMOOTH",
"995 850 LINE SMOOTH",
"995 876 OFFCURVE",
"982 890 OFFCURVE",
"955 890 CURVE SMOOTH",
"589 890 LINE SMOOTH",
"566 890 OFFCURVE",
"553 902 OFFCURVE",
"553 930 CURVE SMOOTH",
"553 1118 LINE SMOOTH",
"553 1144 OFFCURVE",
"566 1156 OFFCURVE",
"599 1156 CURVE SMOOTH",
"1187 1156 LINE SMOOTH",
"1223 1156 OFFCURVE",
"1236 1178 OFFCURVE",
"1236 1210 CURVE SMOOTH",
"1239 1442 LINE SMOOTH",
"1239 1468 OFFCURVE",
"1227 1484 OFFCURVE",
"1203 1484 CURVE SMOOTH",
"137 1484 LINE SMOOTH",
"115 1484 OFFCURVE",
"99 1468 OFFCURVE",
"99 1438 CURVE SMOOTH"
);
}
);
};
layerId = "258ED206-D907-4350-8EBA-CBDDA1C16BF7";
paths = (
{
closed = 1;
nodes = (
"453 0 LINE",
"537 558 LINE",
"1091 558 LINE",
"1139 868 LINE",
"583 868 LINE",
"623 1128 LINE",
"1287 1128 LINE",
"1337 1446 LINE",
"285 1446 LINE",
"64 0 LINE"
);
}
);
width = 1274;
},
{
background = {
paths = (
{
closed = 1;
nodes = (
"225 20 LINE SMOOTH",
"225 4 OFFCURVE",
"229 0 OFFCURVE",
"243 0 CURVE SMOOTH",
"303 0 LINE SMOOTH",
"313 0 OFFCURVE",
"317 4 OFFCURVE",
"317 14 CURVE SMOOTH",
"317 666 LINE SMOOTH",
"317 682 OFFCURVE",
"321 684 OFFCURVE",
"335 684 CURVE SMOOTH",
"931 684 LINE SMOOTH",
"943 684 OFFCURVE",
"947 686 OFFCURVE",
"947 698 CURVE SMOOTH",
"947 750 LINE SMOOTH",
"947 760 OFFCURVE",
"943 764 OFFCURVE",
"933 764 CURVE SMOOTH",
"335 764 LINE SMOOTH",
"321 764 OFFCURVE",
"317 766 OFFCURVE",
"317 778 CURVE SMOOTH",
"317 1386 LINE SMOOTH",
"317 1402 OFFCURVE",
"321 1404 OFFCURVE",
"335 1404 CURVE SMOOTH",
"1051 1404 LINE SMOOTH",
"1063 1404 OFFCURVE",
"1067 1406 OFFCURVE",
"1067 1418 CURVE SMOOTH",
"1067 1470 LINE SMOOTH",
"1067 1480 OFFCURVE",
"1063 1484 OFFCURVE",
"1053 1484 CURVE SMOOTH",
"243 1484 LINE SMOOTH",
"229 1484 OFFCURVE",
"225 1480 OFFCURVE",
"225 1464 CURVE SMOOTH"
);
}
);
};
layerId = "91AB5BCA-6A50-42DA-B2F7-8181BF189245";
paths = (
{
closed = 1;
nodes = (
"227 0 LINE",
"325 692 LINE",
"951 692 LINE",
"961 774 LINE",
"337 774 LINE",
"419 1366 LINE",
"1093 1366 LINE",
"1103 1446 LINE",
"351 1446 LINE",
"149 0 LINE"
);
}
);
width = 1084;
}
);
leftKerningGroup = N;
leftMetricsKey = H;
rightKerningGroup = F;
rightMetricsKey = "=H/2";
unicode = 0046;
},
{
glyphname = G;
lastChange = "2019-06-10 23:33:08 +0000";
layers = (
{
anchors = (
{
name = bottom;
position = "{689, 0}";
},
{
name = top;
position = "{917, 1446}";
}
);
background = {
anchors = (
{
name = bottom;
position = "{795, 0}";
},
{
name = top;
position = "{795, 1484}";
}
);
paths = (
{
closed = 1;
nodes = (
"1027 -20 OFFCURVE",
"1129 80 OFFCURVE",
"1201 150 CURVE SMOOTH",
"1211 162 OFFCURVE",
"1218 162 OFFCURVE",
"1224 154 CURVE SMOOTH",
"1304 38 LINE SMOOTH",
"1323 10 OFFCURVE",
"1344 0 OFFCURVE",
"1367 0 CURVE SMOOTH",
"1443 0 LINE SMOOTH",
"1463 0 OFFCURVE",
"1478 16 OFFCURVE",
"1478 34 CURVE SMOOTH",
"1478 688 LINE SMOOTH",
"1478 724 OFFCURVE",
"1451 750 OFFCURVE",
"1401 750 CURVE SMOOTH",
"842 754 LINE SMOOTH",
"812 754 OFFCURVE",
"800 740 OFFCURVE",
"800 720 CURVE SMOOTH",
"800 528 LINE SMOOTH",
"800 494 OFFCURVE",
"812 484 OFFCURVE",
"839 484 CURVE SMOOTH",
"1027 484 LINE SMOOTH",
"1047 484 OFFCURVE",
"1054 472 OFFCURVE",
"1045 450 CURVE",
"1039 432 LINE",
"1003 340 OFFCURVE",
"936 292 OFFCURVE",
"823 292 CURVE SMOOTH",
"671 292 OFFCURVE",
"567 386 OFFCURVE",
"567 748 CURVE SMOOTH",
"567 1088 OFFCURVE",
"659 1194 OFFCURVE",
"808 1194 CURVE SMOOTH",
"951 1194 OFFCURVE",
"1021 1094 OFFCURVE",
"1041 984 CURVE SMOOTH",
"1047 958 OFFCURVE",
"1050 944 OFFCURVE",
"1081 944 CURVE SMOOTH",
"1424 996 LINE SMOOTH",
"1455 1000 OFFCURVE",
"1463 1010 OFFCURVE",
"1451 1066 CURVE SMOOTH",
"1403 1280 OFFCURVE",
"1178 1504 OFFCURVE",
"817 1504 CURVE SMOOTH",
"390 1504 OFFCURVE",
"92 1198 OFFCURVE",
"92 736 CURVE SMOOTH",
"92 290 OFFCURVE",
"369 -20 OFFCURVE",
"791 -20 CURVE SMOOTH"
);
}
);
};
layerId = "258ED206-D907-4350-8EBA-CBDDA1C16BF7";
rightMetricsKey = "=O*1.5";
paths = (
{
closed = 1;
nodes = (
"919 -20 OFFCURVE",
"1035 86 OFFCURVE",
"1119 160 CURVE",
"1096 0 LINE",
"1350 0 LINE",
"1466 764 LINE",
"808 768 LINE",
"768 506 LINE",
"1018 506 LINE",
"993 454 LINE",
"963 388 OFFCURVE",
"873 318 OFFCURVE",
"764 318 CURVE SMOOTH",
"640 318 OFFCURVE",
"483 376 OFFCURVE",
"537 730 CURVE SMOOTH",
"585 1042 OFFCURVE",
"729 1144 OFFCURVE",
"873 1144 CURVE SMOOTH",
"1008 1144 OFFCURVE",
"1067 1054 OFFCURVE",
"1075 936 CURVE",
"1479 936 LINE",
"1516 1206 OFFCURVE",
"1317 1466 OFFCURVE",
"932 1466 CURVE SMOOTH",
"518 1466 OFFCURVE",
"184 1168 OFFCURVE",
"115 718 CURVE SMOOTH",
"47 282 OFFCURVE",
"273 -20 OFFCURVE",
"682 -20 CURVE SMOOTH"
);
}
);
width = 1562;
},
{
anchors = (
{
name = bottom;
position = "{583, 0}";
},
{
name = top;
position = "{789, 1446}";
}
);
background = {
anchors = (
{
name = bottom;
position = "{719, 0}";
},
{
name = top;
position = "{709, 1484}";
}
);
paths = (
{
closed = 1;
nodes = (
"929 -20 OFFCURVE",
"1075 90 OFFCURVE",
"1153 230 CURVE SMOOTH",
"1161 244 OFFCURVE",
"1169 242 OFFCURVE",
"1169 230 CURVE SMOOTH",
"1169 18 LINE SMOOTH",
"1169 0 OFFCURVE",
"1179 0 OFFCURVE",
"1195 0 CURVE SMOOTH",
"1229 0 LINE SMOOTH",
"1243 0 OFFCURVE",
"1249 4 OFFCURVE",
"1249 22 CURVE SMOOTH",
"1249 742 LINE SMOOTH",
"1249 750 OFFCURVE",
"1245 754 OFFCURVE",
"1237 754 CURVE SMOOTH",
"765 754 LINE SMOOTH",
"759 754 OFFCURVE",
"755 750 OFFCURVE",
"755 742 CURVE SMOOTH",
"755 696 LINE SMOOTH",
"755 688 OFFCURVE",
"759 684 OFFCURVE",
"770 684 CURVE SMOOTH",
"1147 684 LINE SMOOTH",
"1159 684 OFFCURVE",
"1169 682 OFFCURVE",
"1169 668 CURVE SMOOTH",
"1169 510 LINE SMOOTH",
"1169 322 OFFCURVE",
"1025 64 OFFCURVE",
"709 64 CURVE SMOOTH",
"383 64 OFFCURVE",
"213 306 OFFCURVE",
"213 748 CURVE SMOOTH",
"213 1168 OFFCURVE",
"387 1420 OFFCURVE",
"709 1420 CURVE SMOOTH",
"921 1420 OFFCURVE",
"1091 1280 OFFCURVE",
"1123 1102 CURVE SMOOTH",
"1125 1092 OFFCURVE",
"1131 1088 OFFCURVE",
"1137 1090 CURVE SMOOTH",
"1207 1102 LINE SMOOTH",
"1217 1104 OFFCURVE",
"1217 1110 OFFCURVE",
"1217 1118 CURVE SMOOTH",
"1193 1326 OFFCURVE",
"955 1504 OFFCURVE",
"709 1504 CURVE SMOOTH",
"347 1504 OFFCURVE",
"117 1228 OFFCURVE",
"117 736 CURVE SMOOTH",
"117 258 OFFCURVE",
"337 -20 OFFCURVE",
"707 -20 CURVE SMOOTH"
);
}
);
};
layerId = "91AB5BCA-6A50-42DA-B2F7-8181BF189245";
paths = (
{
closed = 1;
nodes = (
"787 -20 OFFCURVE",
"939 100 OFFCURVE",
"1033 252 CURVE",
"997 0 LINE",
"1069 0 LINE",
"1173 736 LINE",
"729 736 LINE",
"719 666 LINE",
"1091 666 LINE",
"1067 498 LINE SMOOTH",
"1041 314 OFFCURVE",
"877 58 OFFCURVE",
"593 58 CURVE SMOOTH",
"301 58 OFFCURVE",
"171 298 OFFCURVE",
"231 730 CURVE SMOOTH",
"289 1138 OFFCURVE",
"491 1384 OFFCURVE",
"779 1384 CURVE SMOOTH",
"971 1384 OFFCURVE",
"1104 1242 OFFCURVE",
"1105 1060 CURVE",
"1193 1076 LINE",
"1203 1288 OFFCURVE",
"1013 1466 OFFCURVE",
"791 1466 CURVE SMOOTH",
"465 1466 OFFCURVE",
"221 1198 OFFCURVE",
"155 718 CURVE SMOOTH",
"89 252 OFFCURVE",
"247 -20 OFFCURVE",
"581 -20 CURVE SMOOTH"
);
}
);
width = 1331;
}
);
leftKerningGroup = O;
leftMetricsKey = O;
rightKerningGroup = G;
rightMetricsKey = "=H-30";
unicode = 0047;
},
{
glyphname = H;
lastChange = "2019-06-10 23:32:23 +0000";
layers = (
{
anchors = (
{
name = bottom;
position = "{661, 0}";
},
{
name = top;
position = "{889, 1446}";
}
);
background = {
anchors = (
{
name = bottom;
position = "{767, 0}";
},
{
name = top;
position = "{771, 1484}";
}
);
paths = (
{
closed = 1;
nodes = (
"965 594 OFFCURVE",
"977 580 OFFCURVE",
"977 564 CURVE SMOOTH",
"977 58 LINE SMOOTH",
"977 16 OFFCURVE",
"997 0 OFFCURVE",
"1043 0 CURVE SMOOTH",
"1377 0 LINE SMOOTH",
"1419 0 OFFCURVE",
"1431 16 OFFCURVE",
"1431 50 CURVE SMOOTH",
"1431 1438 LINE SMOOTH",
"1431 1468 OFFCURVE",
"1415 1484 OFFCURVE",
"1393 1484 CURVE SMOOTH",
"1013 1484 LINE SMOOTH",
"991 1484 OFFCURVE",
"977 1468 OFFCURVE",
"977 1442 CURVE SMOOTH",
"977 978 LINE SMOOTH",
"977 952 OFFCURVE",
"963 938 OFFCURVE",
"940 938 CURVE SMOOTH",
"604 938 LINE SMOOTH",
"583 938 OFFCURVE",
"568 952 OFFCURVE",
"568 978 CURVE SMOOTH",
"568 1442 LINE SMOOTH",
"568 1468 OFFCURVE",
"555 1484 OFFCURVE",
"533 1484 CURVE SMOOTH",
"152 1484 LINE SMOOTH",
"131 1484 OFFCURVE",
"115 1468 OFFCURVE",
"115 1438 CURVE SMOOTH",
"115 50 LINE SMOOTH",
"115 16 OFFCURVE",
"127 0 OFFCURVE",
"169 0 CURVE SMOOTH",
"503 0 LINE SMOOTH",
"549 0 OFFCURVE",
"568 16 OFFCURVE",
"568 58 CURVE SMOOTH",
"568 564 LINE SMOOTH",
"568 580 OFFCURVE",
"581 594 OFFCURVE",
"601 594 CURVE SMOOTH",
"944 594 LINE SMOOTH"
);
}
);
};
layerId = "258ED206-D907-4350-8EBA-CBDDA1C16BF7";
paths = (
{
closed = 1;
nodes = (
"453 0 LINE",
"541 580 LINE",
"975 580 LINE",
"887 0 LINE",
"1274 0 LINE",
"1495 1446 LINE",
"1106 1446 LINE",
"1024 898 LINE",
"589 898 LINE",
"673 1446 LINE",
"285 1446 LINE",
"64 0 LINE"
);
}
);
width = 1501;
},
{
anchors = (
{
name = bottom;
position = "{587, 0}";
},
{
name = top;
position = "{791, 1446}";
}
);
background = {
anchors = (
{
name = bottom;
position = "{709, 0}";
},
{
name = top;
position = "{709, 1484}";
}
);
paths = (
{
closed = 1;
nodes = (
"1109 732 OFFCURVE",
"1113 728 OFFCURVE",
"1113 718 CURVE SMOOTH",
"1113 18 LINE SMOOTH",
"1113 4 OFFCURVE",
"1119 0 OFFCURVE",
"1133 0 CURVE SMOOTH",
"1187 0 LINE SMOOTH",
"1199 0 OFFCURVE",
"1205 6 OFFCURVE",
"1205 20 CURVE SMOOTH",
"1205 1464 LINE SMOOTH",
"1205 1480 OFFCURVE",
"1201 1484 OFFCURVE",
"1187 1484 CURVE SMOOTH",
"1129 1484 LINE SMOOTH",
"1117 1484 OFFCURVE",
"1113 1478 OFFCURVE",
"1113 1466 CURVE SMOOTH",
"1113 828 LINE SMOOTH",
"1113 816 OFFCURVE",
"1109 812 OFFCURVE",
"1097 812 CURVE SMOOTH",
"321 812 LINE SMOOTH",
"307 812 OFFCURVE",
"303 814 OFFCURVE",
"303 830 CURVE SMOOTH",
"303 1464 LINE SMOOTH",
"303 1480 OFFCURVE",
"299 1484 OFFCURVE",
"285 1484 CURVE SMOOTH",
"229 1484 LINE SMOOTH",
"215 1484 OFFCURVE",
"211 1480 OFFCURVE",
"211 1464 CURVE SMOOTH",
"211 20 LINE SMOOTH",
"211 6 OFFCURVE",
"215 0 OFFCURVE",
"229 0 CURVE SMOOTH",
"283 0 LINE SMOOTH",
"297 0 OFFCURVE",
"303 6 OFFCURVE",
"303 18 CURVE SMOOTH",
"303 720 LINE SMOOTH",
"303 726 OFFCURVE",
"307 732 OFFCURVE",
"315 732 CURVE SMOOTH",
"1099 732 LINE SMOOTH"
);
}
);
};
layerId = "91AB5BCA-6A50-42DA-B2F7-8181BF189245";
paths = (
{
closed = 1;
nodes = (
"219 0 LINE",
"319 712 LINE",
"1053 712 LINE",
"953 0 LINE",
"1025 0 LINE",
"1229 1446 LINE",
"1157 1446 LINE",
"1065 794 LINE",
"331 794 LINE",
"423 1446 LINE",
"351 1446 LINE",
"147 0 LINE"
);
}
);
width = 1317;
}
);
leftKerningGroup = N;
rightKerningGroup = N;
unicode = 0048;
},
{
glyphname = Hbar;
lastChange = "2019-06-10 23:32:23 +0000";
layers = (
{
background = {
components = (
{
name = H;
transform = "{1, 0, 0, 1, 35, 0}";
}
);
paths = (
{
closed = 1;
nodes = (
"1557 1270 OFFCURVE",
"1545 1284 OFFCURVE",
"1525 1284 CURVE SMOOTH",
"29 1284 LINE SMOOTH",
"11 1284 OFFCURVE",
"-1 1270 OFFCURVE",
"-1 1244 CURVE SMOOTH",
"-1 1126 LINE SMOOTH",
"-1 1096 OFFCURVE",
"9 1082 OFFCURVE",
"41 1082 CURVE SMOOTH",
"1501 1082 LINE SMOOTH",
"1539 1082 OFFCURVE",
"1557 1096 OFFCURVE",
"1557 1130 CURVE SMOOTH",
"1557 1248 LINE SMOOTH"
);
}
);
};
components = (
{
name = H;
transform = "{1, 0, 0, 1, 72, 0}";
}
);
layerId = "258ED206-D907-4350-8EBA-CBDDA1C16BF7";
paths = (
{
closed = 1;
nodes = (
"1667 1082 LINE",
"1697 1284 LINE",
"149 1284 LINE",
"119 1082 LINE"
);
}
);
width = 1630;
},
{
background = {
components = (
{
name = H;
transform = "{1, 0, 0, 1, 19, 0}";
}
);
paths = (
{
closed = 1;
nodes = (
"1415 1200 OFFCURVE",
"1411 1206 OFFCURVE",
"1403 1206 CURVE SMOOTH",
"71 1206 LINE SMOOTH",
"61 1206 OFFCURVE",
"57 1200 OFFCURVE",
"57 1188 CURVE SMOOTH",
"57 1146 LINE SMOOTH",
"57 1132 OFFCURVE",
"61 1128 OFFCURVE",
"77 1128 CURVE SMOOTH",
"1391 1128 LINE SMOOTH",
"1409 1128 OFFCURVE",
"1415 1132 OFFCURVE",
"1415 1148 CURVE SMOOTH",
"1415 1190 LINE SMOOTH"
);
}
);
};
components = (
{
name = H;
transform = "{1, 0, 0, 1, 39, 0}";
}
);
layerId = "91AB5BCA-6A50-42DA-B2F7-8181BF189245";
paths = (
{
closed = 1;
nodes = (
"1355 1128 LINE",
"1367 1206 LINE",
"117 1206 LINE",
"105 1128 LINE"
);
}
);
width = 1291;
}
);
leftKerningGroup = N;
rightKerningGroup = N;
unicode = 0126;
},
{
glyphname = I;
lastChange = "2019-06-10 23:32:23 +0000";
layers = (
{
anchors = (
{
name = bottom;
position = "{279, 0}";
},
{
name = ogonek;
position = "{405, 6}";
},
{
name = top;
position = "{479, 1446}";
}
);
background = {
anchors = (
{
name = bottom;
position = "{381, 0}";
},
{
name = ogonek;
position = "{545, 20}";
},
{
name = top;
position = "{383, 1484}";
}
);
paths = (
{
closed = 1;
nodes = (
"171 1484 OFFCURVE",
"155 1468 OFFCURVE",
"155 1438 CURVE SMOOTH",
"155 50 LINE SMOOTH",
"155 16 OFFCURVE",
"167 0 OFFCURVE",
"209 0 CURVE SMOOTH",
"543 0 LINE SMOOTH",
"589 0 OFFCURVE",
"608 16 OFFCURVE",
"608 58 CURVE SMOOTH",
"608 1442 LINE SMOOTH",
"608 1468 OFFCURVE",
"597 1484 OFFCURVE",
"573 1484 CURVE SMOOTH",
"192 1484 LINE SMOOTH"
);
}
);
};
layerId = "258ED206-D907-4350-8EBA-CBDDA1C16BF7";
paths = (
{
closed = 1;
nodes = (
"453 0 LINE",
"671 1446 LINE",
"283 1446 LINE",
"64 0 LINE"
);
}
);
width = 677;
},
{
anchors = (
{
name = bottom;
position = "{187, 0}";
},
{
name = ogonek;
position = "{213, 20}";
},
{
name = top;
position = "{389, 1446}";
}
);
background = {
anchors = (
{
name = bottom;
position = "{297, 0}";
},
{
name = ogonek;
position = "{321, 20}";
},
{
name = top;
position = "{303, 1484}";
}
);
paths = (
{
closed = 1;
nodes = (
"255 1484 OFFCURVE",
"251 1480 OFFCURVE",
"251 1464 CURVE SMOOTH",
"251 20 LINE SMOOTH",
"251 4 OFFCURVE",
"255 0 OFFCURVE",
"273 0 CURVE SMOOTH",
"319 0 LINE SMOOTH",
"339 0 OFFCURVE",
"343 4 OFFCURVE",
"343 24 CURVE SMOOTH",
"343 1464 LINE SMOOTH",
"343 1480 OFFCURVE",
"339 1484 OFFCURVE",
"325 1484 CURVE SMOOTH",
"269 1484 LINE SMOOTH"
);
}
);
};
layerId = "91AB5BCA-6A50-42DA-B2F7-8181BF189245";
paths = (
{
closed = 1;
nodes = (
"221 0 LINE",
"423 1446 LINE",
"351 1446 LINE",
"149 0 LINE"
);
}
);
width = 513;
}
);
leftKerningGroup = N;
leftMetricsKey = H;
rightKerningGroup = N;
rightMetricsKey = H;
unicode = 0049;
},
{
glyphname = J;
lastChange = "2019-06-10 23:33:08 +0000";
layers = (
{
anchors = (
{
name = top;
position = "{659, 1446}";
}
);
background = {
anchors = (
{
name = top;
position = "{449, 1484}";
}
);
paths = (
{
closed = 1;
nodes = (
"803 1442 LINE SMOOTH",
"803 1468 OFFCURVE",
"791 1484 OFFCURVE",
"767 1484 CURVE SMOOTH",
"389 1484 LINE SMOOTH",
"365 1484 OFFCURVE",
"349 1468 OFFCURVE",
"349 1438 CURVE SMOOTH",
"349 536 LINE SMOOTH",
"349 400 OFFCURVE",
"291 350 OFFCURVE",
"193 350 CURVE SMOOTH",
"149 350 OFFCURVE",
"115 360 OFFCURVE",
"83 364 CURVE SMOOTH",
"51 368 OFFCURVE",
"37 348 OFFCURVE",
"35 318 CURVE SMOOTH",
"17 90 LINE SMOOTH",
"13 34 OFFCURVE",
"33 12 OFFCURVE",
"79 4 CURVE SMOOTH",
"169 -12 OFFCURVE",
"245 -20 OFFCURVE",
"327 -20 CURVE SMOOTH",
"639 -20 OFFCURVE",
"803 96 OFFCURVE",
"803 424 CURVE SMOOTH"
);
}
);
};
layerId = "258ED206-D907-4350-8EBA-CBDDA1C16BF7";
paths = (
{
closed = 1;
nodes = (
"561 -20 OFFCURVE",
"663 138 OFFCURVE",
"711 458 CURVE SMOOTH",
"861 1446 LINE",
"475 1446 LINE",
"339 558 LINE SMOOTH",
"317 408 OFFCURVE",
"273 340 OFFCURVE",
"135 340 CURVE SMOOTH",
"93 340 OFFCURVE",
"45 346 OFFCURVE",
"9 350 CURVE",
"-43 0 LINE",
"15 -12 OFFCURVE",
"133 -20 OFFCURVE",
"215 -20 CURVE SMOOTH"
);
}
);
width = 840;
},
{
anchors = (
{
name = top;
position = "{639, 1446}";
}
);
background = {
anchors = (
{
name = top;
position = "{571, 1484}";
}
);
paths = (
{
closed = 1;
nodes = (
"617 1464 LINE SMOOTH",
"617 1478 OFFCURVE",
"613 1484 OFFCURVE",
"601 1484 CURVE SMOOTH",
"541 1484 LINE SMOOTH",
"529 1484 OFFCURVE",
"525 1478 OFFCURVE",
"525 1466 CURVE SMOOTH",
"525 308 LINE SMOOTH",
"525 122 OFFCURVE",
"481 68 OFFCURVE",
"351 68 CURVE SMOOTH",
"253 68 OFFCURVE",
"209 98 OFFCURVE",
"167 118 CURVE SMOOTH",
"159 122 OFFCURVE",
"153 120 OFFCURVE",
"151 110 CURVE SMOOTH",
"133 48 LINE SMOOTH",
"131 40 OFFCURVE",
"135 34 OFFCURVE",
"141 30 CURVE SMOOTH",
"155 20 OFFCURVE",
"245 -20 OFFCURVE",
"355 -20 CURVE SMOOTH",
"549 -20 OFFCURVE",
"617 98 OFFCURVE",
"617 288 CURVE SMOOTH"
);
}
);
};
layerId = "91AB5BCA-6A50-42DA-B2F7-8181BF189245";
paths = (
{
closed = 1;
nodes = (
"417 -20 OFFCURVE",
"485 96 OFFCURVE",
"511 280 CURVE SMOOTH",
"675 1446 LINE",
"604 1446 LINE",
"443 308 LINE SMOOTH",
"419 126 OFFCURVE",
"369 62 OFFCURVE",
"253 62 CURVE SMOOTH",
"159 62 OFFCURVE",
"119 104 OFFCURVE",
"81 124 CURVE",
"51 38 LINE",
"62 26 OFFCURVE",
"141 -20 OFFCURVE",
"245 -20 CURVE SMOOTH"
);
}
);
width = 719;
}
);
leftKerningGroup = J;
leftMetricsKey = X;
rightKerningGroup = U;
rightMetricsKey = U;
unicode = 004A;
},
{
glyphname = K;
lastChange = "2019-06-10 23:32:23 +0000";
layers = (
{
anchors = (
{
name = bottom;
position = "{646, 0}";
},
{
name = top;
position = "{891, 1446}";
}
);
background = {
anchors = (
{
name = bottom;
position = "{749, 0}";
},
{
name = top;
position = "{749, 1484}";
}
);
paths = (
{
closed = 1;
nodes = (
"1061 960 LINE SMOOTH",
"1049 988 OFFCURVE",
"1051 1002 OFFCURVE",
"1066 1024 CURVE SMOOTH",
"1395 1426 LINE SMOOTH",
"1421 1456 OFFCURVE",
"1396 1484 OFFCURVE",
"1353 1484 CURVE SMOOTH",
"1049 1484 LINE SMOOTH",
"1001 1484 OFFCURVE",
"984 1472 OFFCURVE",
"963 1442 CURVE SMOOTH",
"595 926 LINE",
"579 906 OFFCURVE",
"564 904 OFFCURVE",
"564 936 CURVE SMOOTH",
"564 1442 LINE SMOOTH",
"564 1468 OFFCURVE",
"553 1484 OFFCURVE",
"529 1484 CURVE SMOOTH",
"148 1484 LINE SMOOTH",
"127 1484 OFFCURVE",
"110 1468 OFFCURVE",
"110 1438 CURVE SMOOTH",
"110 50 LINE SMOOTH",
"110 16 OFFCURVE",
"123 0 OFFCURVE",
"165 0 CURVE SMOOTH",
"499 0 LINE SMOOTH",
"545 0 OFFCURVE",
"564 16 OFFCURVE",
"564 58 CURVE SMOOTH",
"564 360 LINE SMOOTH",
"564 380 OFFCURVE",
"566 392 OFFCURVE",
"577 404 CURVE SMOOTH",
"719 586 LINE SMOOTH",
"739 612 OFFCURVE",
"751 616 OFFCURVE",
"763 596 CURVE SMOOTH",
"1007 40 LINE SMOOTH",
"1021 10 OFFCURVE",
"1045 0 OFFCURVE",
"1079 0 CURVE SMOOTH",
"1469 0 LINE SMOOTH",
"1509 0 OFFCURVE",
"1513 30 OFFCURVE",
"1497 62 CURVE SMOOTH"
);
}
);
};
guideLines = (
{
angle = 54.4985;
position = "{687, 670}";
},
{
angle = -62.8805;
position = "{374, 283}";
}
);
hints = (
{
horizontal = 1;
origin = "{0, 11}";
target = up;
type = BottomGhost;
},
{
horizontal = 1;
origin = "{0, 10}";
target = down;
type = TopGhost;
},
{
place = "{62, 338}";
type = Stem;
}
);
layerId = "258ED206-D907-4350-8EBA-CBDDA1C16BF7";
paths = (
{
closed = 1;
nodes = (
"467 0 LINE",
"524 378 LINE",
"739 610 LINE",
"967 0 LINE",
"1381 0 LINE",
"1057 894 LINE",
"1537 1446 LINE",
"1103 1446 LINE",
"599 862 LINE",
"687 1446 LINE",
"285 1446 LINE",
"64 0 LINE"
);
}
);
width = 1490;
},
{
anchors = (
{
name = bottom;
position = "{555, 0}";
},
{
name = top;
position = "{791, 1446}";
}
);
background = {
anchors = (
{
name = bottom;
position = "{675, 0}";
},
{
name = top;
position = "{735, 1484}";
}
);
paths = (
{
closed = 1;
nodes = (
"675 890 LINE SMOOTH",
"671 898 OFFCURVE",
"671 898 OFFCURVE",
"675 902 CURVE SMOOTH",
"1193 1468 LINE SMOOTH",
"1201 1476 OFFCURVE",
"1199 1484 OFFCURVE",
"1187 1484 CURVE SMOOTH",
"1111 1484 LINE SMOOTH",
"1099 1484 OFFCURVE",
"1095 1482 OFFCURVE",
"1089 1476 CURVE SMOOTH",
"323 644 LINE SMOOTH",
"313 634 OFFCURVE",
"309 634 OFFCURVE",
"309 646 CURVE SMOOTH",
"309 1468 LINE SMOOTH",
"309 1480 OFFCURVE",
"303 1484 OFFCURVE",
"293 1484 CURVE SMOOTH",
"233 1484 LINE SMOOTH",
"221 1484 OFFCURVE",
"217 1478 OFFCURVE",
"217 1468 CURVE SMOOTH",
"217 18 LINE SMOOTH",
"217 4 OFFCURVE",
"223 0 OFFCURVE",
"237 0 CURVE SMOOTH",
"289 0 LINE SMOOTH",
"303 0 OFFCURVE",
"309 6 OFFCURVE",
"309 18 CURVE SMOOTH",
"309 492 LINE SMOOTH",
"309 508 OFFCURVE",
"313 514 OFFCURVE",
"325 526 CURVE SMOOTH",
"589 818 LINE SMOOTH",
"599 828 OFFCURVE",
"605 830 OFFCURVE",
"613 818 CURVE SMOOTH",
"1129 10 LINE SMOOTH",
"1133 4 OFFCURVE",
"1141 0 OFFCURVE",
"1151 0 CURVE SMOOTH",
"1229 0 LINE SMOOTH",
"1237 0 OFFCURVE",
"1241 6 OFFCURVE",
"1235 14 CURVE SMOOTH"
);
}
);
};
layerId = "91AB5BCA-6A50-42DA-B2F7-8181BF189245";
rightMetricsKey = "=X/1.25";
paths = (
{
closed = 1;
nodes = (
"223 0 LINE",
"293 496 LINE",
"601 814 LINE",
"965 0 LINE",
"1059 0 LINE",
"671 876 LINE",
"1231 1446 LINE",
"1133 1446 LINE",
"309 612 LINE",
"425 1446 LINE",
"351 1446 LINE",
"147 0 LINE"
);
}
);
width = 1225;
}
);
leftKerningGroup = N;
leftMetricsKey = H;
rightKerningGroup = K;
rightMetricsKey = "=X*1.25";
unicode = 004B;
},
{
glyphname = L;
lastChange = "2019-06-10 23:33:08 +0000";
layers = (
{
anchors = (
{
name = bottom;
position = "{539, 0}";
},
{
name = caron;
position = "{902, 1446}";
},
{
name = top;
position = "{469, 1446}";
}
);
background = {
anchors = (
{
name = bottom;
position = "{637, 0}";
},
{
name = top;
position = "{345, 1484}";
},
{
name = topright;
position = "{1029, 1484}";
}
);
paths = (
{
closed = 1;
nodes = (
"113 50 LINE SMOOTH",
"113 16 OFFCURVE",
"125 0 OFFCURVE",
"167 0 CURVE SMOOTH",
"1188 0 LINE SMOOTH",
"1223 0 OFFCURVE",
"1239 20 OFFCURVE",
"1239 44 CURVE SMOOTH",
"1239 290 LINE SMOOTH",
"1239 318 OFFCURVE",
"1221 328 OFFCURVE",
"1192 328 CURVE SMOOTH",
"591 328 LINE SMOOTH",
"573 328 OFFCURVE",
"566 334 OFFCURVE",
"566 356 CURVE SMOOTH",
"566 1442 LINE SMOOTH",
"566 1468 OFFCURVE",
"555 1484 OFFCURVE",
"531 1484 CURVE SMOOTH",
"150 1484 LINE SMOOTH",
"129 1484 OFFCURVE",
"113 1468 OFFCURVE",
"113 1438 CURVE SMOOTH"
);
}
);
};
layerId = "258ED206-D907-4350-8EBA-CBDDA1C16BF7";
rightMetricsKey = "=H/2.5";
paths = (
{
closed = 1;
nodes = (
"1026 0 LINE",
"1075 320 LINE",
"501 320 LINE",
"671 1446 LINE",
"285 1446 LINE",
"64 0 LINE"
);
}
);
width = 1158;
},
{
anchors = (
{
name = bottom;
position = "{515, 0}";
},
{
name = caron;
position = "{856, 1446}";
},
{
name = top;
position = "{391, 1446}";
}
);
background = {
anchors = (
{
name = bottom;
position = "{633, 0}";
},
{
name = top;
position = "{269, 1484}";
},
{
name = topright;
position = "{841, 1484}";
}
);
paths = (
{
closed = 1;
nodes = (
"223 20 LINE SMOOTH",
"223 6 OFFCURVE",
"227 0 OFFCURVE",
"241 0 CURVE",
"1061 0 LINE",
"1071 0 OFFCURVE",
"1075 4 OFFCURVE",
"1075 14 CURVE SMOOTH",
"1075 66 LINE SMOOTH",
"1075 78 OFFCURVE",
"1071 80 OFFCURVE",
"1059 80 CURVE SMOOTH",
"333 80 LINE SMOOTH",
"319 80 OFFCURVE",
"315 82 OFFCURVE",
"315 98 CURVE SMOOTH",
"315 1464 LINE SMOOTH",
"315 1480 OFFCURVE",
"311 1484 OFFCURVE",
"297 1484 CURVE SMOOTH",
"241 1484 LINE SMOOTH",
"227 1484 OFFCURVE",
"223 1480 OFFCURVE",
"223 1464 CURVE SMOOTH"
);
}
);
};
layerId = "91AB5BCA-6A50-42DA-B2F7-8181BF189245";
paths = (
{
closed = 1;
nodes = (
"905 0 LINE",
"917 86 LINE",
"237 86 LINE",
"429 1446 LINE",
"351 1446 LINE",
"147 0 LINE"
);
}
);
width = 1094;
}
);
leftKerningGroup = N;
leftMetricsKey = H;
rightKerningGroup = L;
rightMetricsKey = X;
unicode = 004C;
},
{
glyphname = Lslash;
lastChange = "2019-06-10 23:33:08 +0000";
layers = (
{
background = {
components = (
{
name = L;
transform = "{1, 0, 0, 1, 44, 0}";
}
);
paths = (
{
closed = 1;
nodes = (
"922 1072 OFFCURVE",
"908 1086 OFFCURVE",
"874 1076 CURVE SMOOTH",
"86 866 LINE SMOOTH",
"62 860 OFFCURVE",
"48 850 OFFCURVE",
"48 820 CURVE SMOOTH",
"48 586 LINE SMOOTH",
"48 554 OFFCURVE",
"60 540 OFFCURVE",
"98 552 CURVE SMOOTH",
"882 774 LINE SMOOTH",
"910 782 OFFCURVE",
"922 798 OFFCURVE",
"922 820 CURVE SMOOTH",
"922 1042 LINE SMOOTH"
);
}
);
};
components = (
{
name = L;
transform = "{1, 0, 0, 1, 88, 0}";
}
);
layerId = "258ED206-D907-4350-8EBA-CBDDA1C16BF7";
paths = (
{
closed = 1;
nodes = (
"922 786 LINE",
"922 1088 LINE",
"48 856 LINE",
"48 538 LINE"
);
}
);
width = 1246;
},
{
background = {
components = (
{
name = L;
transform = "{1, 0, 0, 1, 8, 0}";
}
);
paths = (
{
closed = 1;
nodes = (
"661 850 OFFCURVE",
"657 854 OFFCURVE",
"647 852 CURVE SMOOTH",
"97 712 LINE SMOOTH",
"91 710 OFFCURVE",
"87 704 OFFCURVE",
"87 694 CURVE SMOOTH",
"87 648 LINE SMOOTH",
"87 638 OFFCURVE",
"91 636 OFFCURVE",
"101 638 CURVE SMOOTH",
"649 780 LINE SMOOTH",
"657 782 OFFCURVE",
"661 788 OFFCURVE",
"661 796 CURVE SMOOTH",
"661 842 LINE SMOOTH"
);
}
);
};
components = (
{
name = L;
transform = "{1, 0, 0, 1, 18, 0}";
}
);
layerId = "91AB5BCA-6A50-42DA-B2F7-8181BF189245";
paths = (
{
closed = 1;
nodes = (
"661 784 LINE",
"661 856 LINE",
"87 710 LINE",
"87 634 LINE"
);
}
);
width = 1112;
}
);
leftKerningGroup = N;
rightKerningGroup = L;
rightMetricsKey = L;
unicode = 0141;
},
{
glyphname = M;
lastChange = "2019-06-10 23:33:08 +0000";
layers = (
{
background = {
paths = (
{
closed = 1;
nodes = (
"459 0 LINE SMOOTH",
"495 0 OFFCURVE",
"503 8 OFFCURVE",
"503 44 CURVE SMOOTH",
"503 928 LINE SMOOTH",
"503 954 OFFCURVE",
"517 962 OFFCURVE",
"526 930 CURVE SMOOTH",
"814 36 LINE SMOOTH",
"823 12 OFFCURVE",
"839 0 OFFCURVE",
"863 0 CURVE SMOOTH",
"1073 0 LINE SMOOTH",
"1095 0 OFFCURVE",
"1113 14 OFFCURVE",
"1121 36 CURVE SMOOTH",
"1409 946 LINE SMOOTH",
"1417 970 OFFCURVE",
"1433 970 OFFCURVE",
"1433 948 CURVE SMOOTH",
"1433 50 LINE SMOOTH",
"1433 16 OFFCURVE",
"1444 0 OFFCURVE",
"1484 0 CURVE SMOOTH",
"1823 0 LINE SMOOTH",
"1869 0 OFFCURVE",
"1887 16 OFFCURVE",
"1887 58 CURVE SMOOTH",
"1887 1442 LINE SMOOTH",
"1887 1468 OFFCURVE",
"1875 1484 OFFCURVE",
"1851 1484 CURVE SMOOTH",
"1272 1484 LINE SMOOTH",
"1245 1484 OFFCURVE",
"1229 1462 OFFCURVE",
"1219 1426 CURVE SMOOTH",
"1033 812 LINE SMOOTH",
"1026 794 OFFCURVE",
"1015 790 OFFCURVE",
"1007 812 CURVE SMOOTH",
"799 1448 LINE SMOOTH",
"789 1476 OFFCURVE",
"776 1484 OFFCURVE",
"743 1484 CURVE SMOOTH",
"183 1484 LINE SMOOTH",
"152 1484 OFFCURVE",
"141 1470 OFFCURVE",
"141 1438 CURVE SMOOTH",
"141 56 LINE SMOOTH",
"141 22 OFFCURVE",
"161 0 OFFCURVE",
"192 0 CURVE SMOOTH"
);
}
);
};
guideLines = (
{
angle = -105;
position = "{479, 261}";
},
{
angle = 105;
position = "{479, 261}";
}
);
layerId = "258ED206-D907-4350-8EBA-CBDDA1C16BF7";
paths = (
{
closed = 1;
nodes = (
"451 0 LINE",
"610 1048 LINE",
"732 0 LINE",
"1011 0 LINE",
"1449 1048 LINE",
"1291 0 LINE",
"1679 0 LINE",
"1896 1446 LINE",
"1325 1446 LINE",
"957 564 LINE",
"858 1446 LINE",
"283 1446 LINE",
"64 0 LINE"
);
}
);
width = 1902;
},
{
background = {
guideLines = (
{
position = "{35, 566}";
showMeasurement = 1;
}
);
paths = (
{
closed = 1;
nodes = (
"267 0 LINE SMOOTH",
"281 0 OFFCURVE",
"287 6 OFFCURVE",
"287 18 CURVE SMOOTH",
"287 1244 LINE SMOOTH",
"287 1252 OFFCURVE",
"291 1250 OFFCURVE",
"293 1244 CURVE SMOOTH",
"781 20 LINE SMOOTH",
"787 6 OFFCURVE",
"797 0 OFFCURVE",
"819 0 CURVE SMOOTH",
"873 0 LINE SMOOTH",
"891 0 OFFCURVE",
"899 6 OFFCURVE",
"905 22 CURVE SMOOTH",
"1403 1254 LINE SMOOTH",
"1405 1260 OFFCURVE",
"1409 1264 OFFCURVE",
"1409 1254 CURVE SMOOTH",
"1409 18 LINE SMOOTH",
"1409 4 OFFCURVE",
"1415 0 OFFCURVE",
"1429 0 CURVE SMOOTH",
"1483 0 LINE SMOOTH",
"1495 0 OFFCURVE",
"1501 6 OFFCURVE",
"1501 20 CURVE SMOOTH",
"1501 1464 LINE SMOOTH",
"1501 1480 OFFCURVE",
"1497 1484 OFFCURVE",
"1483 1484 CURVE SMOOTH",
"1425 1484 LINE SMOOTH",
"1413 1484 OFFCURVE",
"1407 1480 OFFCURVE",
"1403 1470 CURVE SMOOTH",
"861 130 LINE SMOOTH",
"849 102 OFFCURVE",
"839 102 OFFCURVE",
"829 128 CURVE SMOOTH",
"295 1468 LINE",
"291 1480 OFFCURVE",
"285 1484 OFFCURVE",
"269 1484 CURVE SMOOTH",
"217 1484 LINE SMOOTH",
"203 1484 OFFCURVE",
"199 1480 OFFCURVE",
"199 1464 CURVE SMOOTH",
"199 20 LINE SMOOTH",
"199 6 OFFCURVE",
"203 0 OFFCURVE",
"217 0 CURVE SMOOTH"
);
}
);
};
guideLines = (
{
position = "{106, 525}";
showMeasurement = 1;
},
{
angle = 68.255;
position = "{388, 0}";
}
);
layerId = "91AB5BCA-6A50-42DA-B2F7-8181BF189245";
paths = (
{
closed = 1;
nodes = (
"227 0 LINE",
"399 1216 LINE",
"675 0 LINE",
"781 0 LINE",
"1407 1232 LINE",
"1233 0 LINE",
"1313 0 LINE",
"1515 1446 LINE",
"1437 1446 LINE",
"739 88 LINE",
"433 1446 LINE",
"351 1446 LINE",
"149 0 LINE"
);
}
);
width = 1605;
}
);
leftKerningGroup = N;
leftMetricsKey = "=H";
rightKerningGroup = N;
rightMetricsKey = H;
unicode = 004D;
},
{
glyphname = N;
lastChange = "2019-06-10 23:33:08 +0000";
layers = (
{
anchors = (
{
name = bottom;
position = "{732, 0}";
},
{
name = top;
position = "{953, 1446}";
}
);
background = {
anchors = (
{
name = bottom;
position = "{841, 0}";
},
{
name = top;
position = "{841, 1484}";
}
);
paths = (
{
closed = 1;
nodes = (
"1146 1484 OFFCURVE",
"1133 1468 OFFCURVE",
"1133 1442 CURVE SMOOTH",
"1133 788 LINE SMOOTH",
"1133 756 OFFCURVE",
"1119 756 OFFCURVE",
"1101 780 CURVE SMOOTH",
"621 1448 LINE SMOOTH",
"599 1478 OFFCURVE",
"587 1484 OFFCURVE",
"553 1484 CURVE SMOOTH",
"227 1484 LINE SMOOTH",
"197 1484 OFFCURVE",
"183 1470 OFFCURVE",
"183 1438 CURVE SMOOTH",
"183 40 LINE SMOOTH",
"183 10 OFFCURVE",
"203 0 OFFCURVE",
"232 0 CURVE SMOOTH",
"505 0 LINE SMOOTH",
"541 0 OFFCURVE",
"555 12 OFFCURVE",
"553 44 CURVE SMOOTH",
"553 772 LINE SMOOTH",
"553 786 OFFCURVE",
"563 790 OFFCURVE",
"573 776 CURVE SMOOTH",
"1123 30 LINE SMOOTH",
"1143 4 OFFCURVE",
"1155 0 OFFCURVE",
"1177 0 CURVE SMOOTH",
"1451 0 LINE SMOOTH",
"1477 0 OFFCURVE",
"1497 14 OFFCURVE",
"1497 36 CURVE SMOOTH",
"1497 1450 LINE SMOOTH",
"1497 1472 OFFCURVE",
"1486 1484 OFFCURVE",
"1467 1484 CURVE SMOOTH",
"1177 1484 LINE SMOOTH"
);
}
);
};
guideLines = (
{
angle = 125.0467;
position = "{547, 296}";
}
);
layerId = "258ED206-D907-4350-8EBA-CBDDA1C16BF7";
paths = (
{
closed = 1;
nodes = (
"453 0 LINE",
"583 862 LINE",
"1053 0 LINE",
"1402 0 LINE",
"1623 1446 LINE",
"1234 1446 LINE",
"1113 640 LINE",
"675 1446 LINE",
"285 1446 LINE",
"64 0 LINE"
);
}
);
width = 1629;
},
{
anchors = (
{
name = bottom;
position = "{569, 0}";
},
{
name = top;
position = "{817, 1446}";
}
);
background = {
anchors = (
{
name = bottom;
position = "{699, 0}";
},
{
name = top;
position = "{769, 1484}";
}
);
guideLines = (
{
position = "{43, 576}";
showMeasurement = 1;
}
);
paths = (
{
closed = 1;
nodes = (
"1179 1484 OFFCURVE",
"1175 1478 OFFCURVE",
"1175 1466 CURVE SMOOTH",
"1175 214 LINE SMOOTH",
"1175 202 OFFCURVE",
"1161 190 OFFCURVE",
"1147 210 CURVE SMOOTH",
"293 1470 LINE SMOOTH",
"285 1482 OFFCURVE",
"279 1484 OFFCURVE",
"263 1484 CURVE SMOOTH",
"227 1484 LINE",
"213 1484 OFFCURVE",
"209 1480 OFFCURVE",
"209 1464 CURVE SMOOTH",
"209 20 LINE SMOOTH",
"209 6 OFFCURVE",
"213 0 OFFCURVE",
"227 0 CURVE SMOOTH",
"277 0 LINE SMOOTH",
"291 0 OFFCURVE",
"297 6 OFFCURVE",
"297 18 CURVE SMOOTH",
"297 1274 LINE SMOOTH",
"297 1290 OFFCURVE",
"307 1294 OFFCURVE",
"321 1274 CURVE SMOOTH",
"1177 12 LINE SMOOTH",
"1187 -2 OFFCURVE",
"1199 0 OFFCURVE",
"1215 0 CURVE SMOOTH",
"1245 0 LINE SMOOTH",
"1257 0 OFFCURVE",
"1263 6 OFFCURVE",
"1263 20 CURVE SMOOTH",
"1263 1464 LINE SMOOTH",
"1263 1480 OFFCURVE",
"1259 1484 OFFCURVE",
"1245 1484 CURVE SMOOTH",
"1191 1484 LINE SMOOTH"
);
}
);
};
guideLines = (
{
position = "{114, 534}";
showMeasurement = 1;
},
{
angle = 123.9688;
position = "{116, 610}";
}
);
layerId = "91AB5BCA-6A50-42DA-B2F7-8181BF189245";
paths = (
{
closed = 1;
nodes = (
"219 0 LINE",
"401 1286 LINE",
"1017 0 LINE",
"1079 0 LINE",
"1283 1446 LINE",
"1211 1446 LINE",
"1029 156 LINE",
"409 1446 LINE",
"351 1446 LINE",
"147 0 LINE"
);
}
);
width = 1371;
}
);
leftKerningGroup = N;
leftMetricsKey = H;
rightKerningGroup = N;
rightMetricsKey = H;
unicode = 004E;
},
{
glyphname = Eng;
lastChange = "2019-06-10 23:33:08 +0000";
layers = (
{
background = {
paths = (
{
closed = 1;
nodes = (
"1114 1484 LINE SMOOTH",
"1084 1484 OFFCURVE",
"1070 1468 OFFCURVE",
"1070 1442 CURVE SMOOTH",
"1070 868 LINE SMOOTH",
"1070 836 OFFCURVE",
"1056 836 OFFCURVE",
"1038 860 CURVE",
"558 1448 LINE SMOOTH",
"534 1478 OFFCURVE",
"524 1484 OFFCURVE",
"490 1484 CURVE SMOOTH",
"164 1484 LINE SMOOTH",
"134 1484 OFFCURVE",
"120 1470 OFFCURVE",
"120 1438 CURVE SMOOTH",
"120 40 LINE SMOOTH",
"120 10 OFFCURVE",
"140 0 OFFCURVE",
"170 0 CURVE SMOOTH",
"442 0 LINE SMOOTH",
"478 0 OFFCURVE",
"492 12 OFFCURVE",
"490 44 CURVE",
"490 772 LINE",
"490 786 OFFCURVE",
"498 790 OFFCURVE",
"510 776 CURVE SMOOTH",
"990 194 LINE",
"990 176 LINE SMOOTH",
"984 62 OFFCURVE",
"924 20 OFFCURVE",
"834 20 CURVE SMOOTH",
"790 20 OFFCURVE",
"744 30 OFFCURVE",
"712 34 CURVE SMOOTH",
"680 38 OFFCURVE",
"666 18 OFFCURVE",
"664 -12 CURVE SMOOTH",
"646 -240 LINE SMOOTH",
"642 -296 OFFCURVE",
"662 -318 OFFCURVE",
"708 -326 CURVE SMOOTH",
"798 -342 OFFCURVE",
"886 -350 OFFCURVE",
"968 -350 CURVE SMOOTH",
"1272 -350 OFFCURVE",
"1434 -228 OFFCURVE",
"1434 94 CURVE SMOOTH",
"1434 1450 LINE SMOOTH",
"1434 1472 OFFCURVE",
"1424 1484 OFFCURVE",
"1404 1484 CURVE SMOOTH"
);
}
);
};
components = (
{
name = N;
},
{
alignment = -1;
name = "_j-hook";
transform = "{1, 0, 0, 1, 668, -460}";
}
);
layerId = "258ED206-D907-4350-8EBA-CBDDA1C16BF7";
width = 1629;
},
{
background = {
paths = (
{
closed = 1;
nodes = (
"1206 1484 LINE SMOOTH",
"1194 1484 OFFCURVE",
"1190 1478 OFFCURVE",
"1190 1466 CURVE SMOOTH",
"1190 214 LINE SMOOTH",
"1190 202 OFFCURVE",
"1176 188 OFFCURVE",
"1162 208 CURVE SMOOTH",
"310 1470 LINE SMOOTH",
"302 1482 OFFCURVE",
"296 1484 OFFCURVE",
"282 1484 CURVE SMOOTH",
"240 1484 LINE SMOOTH",
"226 1484 OFFCURVE",
"222 1480 OFFCURVE",
"222 1464 CURVE SMOOTH",
"222 20 LINE SMOOTH",
"222 6 OFFCURVE",
"226 0 OFFCURVE",
"240 0 CURVE SMOOTH",
"290 0 LINE SMOOTH",
"304 0 OFFCURVE",
"310 6 OFFCURVE",
"310 18 CURVE SMOOTH",
"310 1280 LINE SMOOTH",
"310 1296 OFFCURVE",
"314 1300 OFFCURVE",
"328 1280 CURVE SMOOTH",
"1184 24 LINE",
"1184 -82 LINE SMOOTH",
"1184 -224 OFFCURVE",
"1122 -270 OFFCURVE",
"1014 -270 CURVE SMOOTH",
"954 -270 OFFCURVE",
"906 -256 OFFCURVE",
"874 -244 CURVE SMOOTH",
"864 -240 OFFCURVE",
"860 -242 OFFCURVE",
"858 -252 CURVE",
"852 -302 LINE",
"852 -310 OFFCURVE",
"854 -316 OFFCURVE",
"860 -320 CURVE SMOOTH",
"874 -330 OFFCURVE",
"940 -350 OFFCURVE",
"1022 -350 CURVE SMOOTH",
"1210 -350 OFFCURVE",
"1276 -248 OFFCURVE",
"1276 -92 CURVE SMOOTH",
"1276 1464 LINE SMOOTH",
"1276 1480 OFFCURVE",
"1272 1484 OFFCURVE",
"1258 1484 CURVE SMOOTH"
);
}
);
};
components = (
{
name = N;
},
{
alignment = -1;
name = "_j-hook";
transform = "{1, 0, 0, 1, 610, -460}";
}
);
layerId = "91AB5BCA-6A50-42DA-B2F7-8181BF189245";
width = 1371;
}
);
leftKerningGroup = N;
leftMetricsKey = N;
rightKerningGroup = N;
rightMetricsKey = N;
unicode = 014A;
},
{
glyphname = O;
lastChange = "2019-06-10 23:32:23 +0000";
layers = (
{
anchors = (
{
name = bottom;
position = "{706, 0}";
},
{
name = horn;
position = "{1356, 1094}";
},
{
name = ogonek;
position = "{887, 20}";
},
{
name = top;
position = "{904, 1446}";
}
);
background = {
anchors = (
{
name = bottom;
position = "{814, 0}";
},
{
name = ogonek;
position = "{996, 20}";
},
{
name = top;
position = "{811, 1484}";
}
);
paths = (
{
closed = 1;
nodes = (
"1248 -20 OFFCURVE",
"1528 278 OFFCURVE",
"1528 738 CURVE SMOOTH",
"1528 1202 OFFCURVE",
"1242 1504 OFFCURVE",
"813 1504 CURVE SMOOTH",
"378 1504 OFFCURVE",
"93 1202 OFFCURVE",
"93 738 CURVE SMOOTH",
"93 276 OFFCURVE",
"370 -20 OFFCURVE",
"813 -20 CURVE SMOOTH"
);
},
{
closed = 1;
nodes = (
"635 292 OFFCURVE",
"568 412 OFFCURVE",
"568 732 CURVE SMOOTH",
"568 1062 OFFCURVE",
"639 1196 OFFCURVE",
"813 1196 CURVE SMOOTH",
"982 1196 OFFCURVE",
"1053 1062 OFFCURVE",
"1053 732 CURVE SMOOTH",
"1053 412 OFFCURVE",
"986 292 OFFCURVE",
"813 292 CURVE SMOOTH"
);
}
);
};
guideLines = (
{
angle = 90;
position = "{-498, 389}";
}
);
layerId = "258ED206-D907-4350-8EBA-CBDDA1C16BF7";
paths = (
{
closed = 1;
nodes = (
"1124 -20 OFFCURVE",
"1440 272 OFFCURVE",
"1509 720 CURVE SMOOTH",
"1576 1172 OFFCURVE",
"1345 1466 OFFCURVE",
"927 1466 CURVE SMOOTH",
"509 1466 OFFCURVE",
"185 1172 OFFCURVE",
"116 720 CURVE SMOOTH",
"48 270 OFFCURVE",
"274 -20 OFFCURVE",
"702 -20 CURVE SMOOTH"
);
},
{
closed = 1;
nodes = (
"590 292 OFFCURVE",
"490 402 OFFCURVE",
"536 714 CURVE SMOOTH",
"586 1036 OFFCURVE",
"721 1154 OFFCURVE",
"880 1154 CURVE SMOOTH",
"1038 1154 OFFCURVE",
"1137 1036 OFFCURVE",
"1086 714 CURVE SMOOTH",
"1040 402 OFFCURVE",
"908 292 OFFCURVE",
"748 292 CURVE SMOOTH"
);
}
);
width = 1568;
},
{
anchors = (
{
name = bottom;
position = "{599, 0}";
},
{
name = horn;
position = "{1115, 1212}";
},
{
name = ogonek;
position = "{728, 18}";
},
{
name = top;
position = "{803, 1446}";
}
);
background = {
anchors = (
{
name = bottom;
position = "{721, 0}";
},
{
name = ogonek;
position = "{861, 18}";
},
{
name = top;
position = "{721, 1484}";
}
);
paths = (
{
closed = 1;
nodes = (
"1093 -20 OFFCURVE",
"1319 244 OFFCURVE",
"1319 738 CURVE SMOOTH",
"1319 1236 OFFCURVE",
"1093 1504 OFFCURVE",
"719 1504 CURVE SMOOTH",
"343 1504 OFFCURVE",
"115 1234 OFFCURVE",
"115 734 CURVE SMOOTH",
"115 242 OFFCURVE",
"339 -20 OFFCURVE",
"717 -20 CURVE SMOOTH"
);
},
{
closed = 1;
nodes = (
"389 64 OFFCURVE",
"211 286 OFFCURVE",
"211 738 CURVE SMOOTH",
"211 1194 OFFCURVE",
"389 1420 OFFCURVE",
"719 1420 CURVE SMOOTH",
"1047 1420 OFFCURVE",
"1223 1196 OFFCURVE",
"1223 738 CURVE SMOOTH",
"1223 284 OFFCURVE",
"1051 64 OFFCURVE",
"721 64 CURVE SMOOTH"
);
}
);
};
guideLines = (
{
angle = 90;
position = "{-457, 400}";
},
{
angle = 90;
position = "{386, 593}";
}
);
layerId = "91AB5BCA-6A50-42DA-B2F7-8181BF189245";
paths = (
{
closed = 1;
nodes = (
"929 -20 OFFCURVE",
"1167 238 OFFCURVE",
"1235 720 CURVE SMOOTH",
"1303 1206 OFFCURVE",
"1139 1466 OFFCURVE",
"803 1466 CURVE SMOOTH",
"465 1466 OFFCURVE",
"223 1204 OFFCURVE",
"155 716 CURVE SMOOTH",
"87 236 OFFCURVE",
"253 -20 OFFCURVE",
"593 -20 CURVE SMOOTH"
);
},
{
closed = 1;
nodes = (
"309 62 OFFCURVE",
"175 278 OFFCURVE",
"237 720 CURVE SMOOTH",
"299 1164 OFFCURVE",
"495 1384 OFFCURVE",
"791 1384 CURVE SMOOTH",
"1087 1384 OFFCURVE",
"1217 1166 OFFCURVE",
"1155 720 CURVE SMOOTH",
"1093 276 OFFCURVE",
"903 62 OFFCURVE",
"607 62 CURVE SMOOTH"
);
}
);
width = 1334;
}
);
leftKerningGroup = O;
rightKerningGroup = O;
unicode = 004F;
},
{
glyphname = Oslash;
lastChange = "2019-06-10 23:32:23 +0000";
layers = (
{
anchors = (
{
name = top;
position = "{929, 1446}";
}
);
background = {
anchors = (
{
name = top;
position = "{819, 1446}";
}
);
paths = (
{
closed = 1;
nodes = (
"1461 1446 LINE SMOOTH",
"1445 1462 OFFCURVE",
"1421 1458 OFFCURVE",
"1401 1438 CURVE SMOOTH",
"1273 1314 LINE",
"1157 1412 OFFCURVE",
"1003 1466 OFFCURVE",
"821 1466 CURVE SMOOTH",
"397 1466 OFFCURVE",
"119 1172 OFFCURVE",
"119 720 CURVE SMOOTH",
"119 552 OFFCURVE",
"157 408 OFFCURVE",
"225 292 CURVE",
"93 164 LINE SMOOTH",
"71 140 OFFCURVE",
"73 120 OFFCURVE",
"101 92 CURVE SMOOTH",
"177 14 LINE SMOOTH",
"209 -18 OFFCURVE",
"233 -16 OFFCURVE",
"261 14 CURVE SMOOTH",
"373 122 LINE",
"489 32 OFFCURVE",
"641 -20 OFFCURVE",
"821 -20 CURVE SMOOTH",
"1247 -20 OFFCURVE",
"1519 272 OFFCURVE",
"1519 720 CURVE SMOOTH",
"1519 884 OFFCURVE",
"1483 1026 OFFCURVE",
"1415 1140 CURVE",
"1563 1286 LINE",
"1583 1302 OFFCURVE",
"1581 1322 OFFCURVE",
"1565 1338 CURVE SMOOTH"
);
},
{
closed = 1;
nodes = (
"583 1036 OFFCURVE",
"651 1166 OFFCURVE",
"821 1166 CURVE SMOOTH",
"907 1166 OFFCURVE",
"967 1132 OFFCURVE",
"1005 1052 CURVE",
"585 642 LINE",
"583 666 OFFCURVE",
"583 690 OFFCURVE",
"583 714 CURVE"
);
},
{
closed = 1;
nodes = (
"1055 402 OFFCURVE",
"991 284 OFFCURVE",
"821 284 CURVE SMOOTH",
"735 284 OFFCURVE",
"675 314 OFFCURVE",
"637 380 CURVE",
"1053 788 LINE",
"1055 762 OFFCURVE",
"1055 740 OFFCURVE",
"1055 714 CURVE SMOOTH"
);
}
);
};
layerId = "258ED206-D907-4350-8EBA-CBDDA1C16BF7";
paths = (
{
closed = 1;
nodes = (
"285 122 LINE",
"387 32 OFFCURVE",
"529 -20 OFFCURVE",
"709 -20 CURVE SMOOTH",
"1131 -20 OFFCURVE",
"1447 272 OFFCURVE",
"1515 720 CURVE SMOOTH",
"1539 884 OFFCURVE",
"1525 1026 OFFCURVE",
"1475 1140 CURVE",
"1673 1312 LINE",
"1547 1472 LINE",
"1359 1314 LINE",
"1259 1412 OFFCURVE",
"1115 1466 OFFCURVE",
"933 1466 CURVE SMOOTH",
"513 1466 OFFCURVE",
"191 1172 OFFCURVE",
"123 720 CURVE SMOOTH",
"97 552 OFFCURVE",
"113 408 OFFCURVE",
"163 292 CURVE",
"-23 134 LINE",
"107 -28 LINE"
);
},
{
closed = 1;
nodes = (
"669 284 OFFCURVE",
"615 314 OFFCURVE",
"587 380 CURVE",
"1063 790 LINE",
"1045 670 OFFCURVE",
"1025 576 OFFCURVE",
"999 502 CURVE SMOOTH",
"945 348 OFFCURVE",
"867 284 OFFCURVE",
"755 284 CURVE SMOOTH"
);
},
{
closed = 1;
nodes = (
"587 740 OFFCURVE",
"604 824 OFFCURVE",
"627 894 CURVE SMOOTH",
"683 1084 OFFCURVE",
"765 1166 OFFCURVE",
"889 1166 CURVE SMOOTH",
"973 1166 OFFCURVE",
"1029 1132 OFFCURVE",
"1053 1052 CURVE",
"573 640 LINE"
);
}
);
width = 1602;
},
{
anchors = (
{
name = top;
position = "{805, 1446}";
}
);
background = {
anchors = (
{
name = top;
position = "{703, 1446}";
}
);
paths = (
{
closed = 1;
nodes = (
"1295 1460 LINE",
"1287 1468 OFFCURVE",
"1279 1464 OFFCURVE",
"1271 1454 CURVE",
"1125 1286 LINE",
"1023 1404 OFFCURVE",
"881 1466 OFFCURVE",
"703 1466 CURVE SMOOTH",
"337 1466 OFFCURVE",
"115 1204 OFFCURVE",
"115 716 CURVE SMOOTH",
"115 518 OFFCURVE",
"151 358 OFFCURVE",
"221 240 CURVE",
"57 50 LINE",
"49 40 OFFCURVE",
"51 36 OFFCURVE",
"65 22 CURVE SMOOTH",
"99 -10 LINE",
"115 -22 OFFCURVE",
"125 -22 OFFCURVE",
"135 -6 CURVE",
"279 158 LINE",
"377 40 OFFCURVE",
"521 -20 OFFCURVE",
"701 -20 CURVE SMOOTH",
"1067 -20 OFFCURVE",
"1289 238 OFFCURVE",
"1289 720 CURVE SMOOTH",
"1289 920 OFFCURVE",
"1251 1082 OFFCURVE",
"1181 1204 CURVE",
"1347 1396 LINE",
"1353 1404 OFFCURVE",
"1351 1412 OFFCURVE",
"1345 1418 CURVE"
);
},
{
closed = 1;
nodes = (
"213 1164 OFFCURVE",
"381 1382 OFFCURVE",
"703 1382 CURVE SMOOTH",
"863 1382 OFFCURVE",
"983 1328 OFFCURVE",
"1065 1218 CURVE",
"285 314 LINE",
"237 418 OFFCURVE",
"213 552 OFFCURVE",
"213 720 CURVE SMOOTH"
);
},
{
closed = 1;
nodes = (
"1189 276 OFFCURVE",
"1027 64 OFFCURVE",
"705 64 CURVE SMOOTH",
"543 64 OFFCURVE",
"421 118 OFFCURVE",
"337 228 CURVE",
"1117 1132 LINE",
"1165 1026 OFFCURVE",
"1189 890 OFFCURVE",
"1189 720 CURVE SMOOTH"
);
}
);
};
layerId = "91AB5BCA-6A50-42DA-B2F7-8181BF189245";
paths = (
{
closed = 1;
nodes = (
"233 158 LINE",
"307 40 OFFCURVE",
"431 -20 OFFCURVE",
"597 -20 CURVE SMOOTH",
"933 -20 OFFCURVE",
"1175 238 OFFCURVE",
"1241 720 CURVE SMOOTH",
"1269 920 OFFCURVE",
"1257 1082 OFFCURVE",
"1211 1204 CURVE",
"1401 1408 LINE",
"1343 1470 LINE",
"1171 1286 LINE",
"1093 1404 OFFCURVE",
"971 1466 OFFCURVE",
"807 1466 CURVE SMOOTH",
"471 1466 OFFCURVE",
"229 1204 OFFCURVE",
"161 716 CURVE SMOOTH",
"133 518 OFFCURVE",
"143 358 OFFCURVE",
"191 240 CURVE",
"3 38 LINE",
"59 -26 LINE"
);
},
{
closed = 1;
nodes = (
"463 64 OFFCURVE",
"359 118 OFFCURVE",
"297 228 CURVE",
"1141 1132 LINE",
"1171 1026 OFFCURVE",
"1173 890 OFFCURVE",
"1149 720 CURVE SMOOTH",
"1087 276 OFFCURVE",
"909 64 OFFCURVE",
"613 64 CURVE SMOOTH"
);
},
{
closed = 1;
nodes = (
"231 418 OFFCURVE",
"229 552 OFFCURVE",
"251 720 CURVE SMOOTH",
"315 1164 OFFCURVE",
"499 1382 OFFCURVE",
"795 1382 CURVE SMOOTH",
"943 1382 OFFCURVE",
"1045 1328 OFFCURVE",
"1105 1218 CURVE",
"261 314 LINE"
);
}
);
width = 1347;
}
);
leftKerningGroup = Oslash;
rightKerningGroup = Oslash;
unicode = 00D8;
},
{
glyphname = OE;
lastChange = "2019-06-10 23:33:08 +0000";
layers = (
{
background = {
paths = (
{
closed = 1;
nodes = (
"1506 328 LINE",
"1506 584 LINE",
"1944 584 LINE",
"1944 906 LINE",
"1506 906 LINE",
"1506 1156 LINE",
"2204 1156 LINE",
"2206 1484 LINE",
"1242 1484 LINE",
"1118 1484 LINE",
"1048 1498 OFFCURVE",
"962 1504 OFFCURVE",
"860 1504 CURVE SMOOTH",
"378 1504 OFFCURVE",
"93 1202 OFFCURVE",
"93 738 CURVE SMOOTH",
"93 276 OFFCURVE",
"370 -20 OFFCURVE",
"836 -20 CURVE SMOOTH",
"948 -20 OFFCURVE",
"1042 -14 OFFCURVE",
"1118 0 CURVE",
"1219 0 LINE",
"1232 0 OFFCURVE",
"1246 0 OFFCURVE",
"1261 0 CURVE",
"2177 0 LINE SMOOTH",
"2210 0 OFFCURVE",
"2225 20 OFFCURVE",
"2225 44 CURVE SMOOTH",
"2225 290 LINE SMOOTH",
"2225 318 OFFCURVE",
"2208 328 OFFCURVE",
"2181 328 CURVE SMOOTH"
);
},
{
closed = 1;
nodes = (
"635 292 OFFCURVE",
"568 412 OFFCURVE",
"568 732 CURVE SMOOTH",
"568 1062 OFFCURVE",
"639 1196 OFFCURVE",
"813 1196 CURVE SMOOTH",
"982 1196 OFFCURVE",
"1053 1062 OFFCURVE",
"1053 732 CURVE SMOOTH",
"1053 412 OFFCURVE",
"986 292 OFFCURVE",
"813 292 CURVE SMOOTH"
);
}
);
};
layerId = "258ED206-D907-4350-8EBA-CBDDA1C16BF7";
paths = (
{
closed = 1;
nodes = (
"832 -20 OFFCURVE",
"924 -14 OFFCURVE",
"1000 0 CURVE",
"1097 0 LINE",
"2070 0 LINE",
"2120 320 LINE",
"1424 320 LINE",
"1462 570 LINE",
"1887 570 LINE",
"1935 884 LINE",
"1511 884 LINE",
"1546 1128 LINE",
"2225 1128 LINE",
"2274 1446 LINE",
"1340 1446 LINE",
"1219 1446 LINE",
"1154 1460 OFFCURVE",
"1070 1466 OFFCURVE",
"973 1466 CURVE SMOOTH",
"506 1466 OFFCURVE",
"185 1172 OFFCURVE",
"116 720 CURVE SMOOTH",
"46 270 OFFCURVE",
"274 -20 OFFCURVE",
"725 -20 CURVE SMOOTH"
);
},
{
closed = 1;
nodes = (
"574 284 OFFCURVE",
"528 402 OFFCURVE",
"576 714 CURVE SMOOTH",
"624 1036 OFFCURVE",
"712 1166 OFFCURVE",
"880 1166 CURVE SMOOTH",
"1046 1166 OFFCURVE",
"1095 1036 OFFCURVE",
"1044 714 CURVE SMOOTH",
"996 402 OFFCURVE",
"916 284 OFFCURVE",
"746 284 CURVE SMOOTH"
);
}
);
width = 2239;
},
{
background = {
paths = (
{
closed = 1;
nodes = (
"1307 80 LINE SMOOTH",
"1293 80 OFFCURVE",
"1289 82 OFFCURVE",
"1289 98 CURVE SMOOTH",
"1289 692 LINE SMOOTH",
"1289 708 OFFCURVE",
"1293 710 OFFCURVE",
"1307 710 CURVE SMOOTH",
"1861 710 LINE SMOOTH",
"1873 710 OFFCURVE",
"1877 712 OFFCURVE",
"1877 724 CURVE SMOOTH",
"1877 776 LINE SMOOTH",
"1877 786 OFFCURVE",
"1873 790 OFFCURVE",
"1863 790 CURVE SMOOTH",
"1307 790 LINE SMOOTH",
"1293 790 OFFCURVE",
"1289 792 OFFCURVE",
"1289 804 CURVE SMOOTH",
"1289 1386 LINE SMOOTH",
"1289 1402 OFFCURVE",
"1293 1404 OFFCURVE",
"1307 1404 CURVE SMOOTH",
"2023 1404 LINE SMOOTH",
"2035 1404 OFFCURVE",
"2039 1406 OFFCURVE",
"2039 1418 CURVE SMOOTH",
"2039 1470 LINE SMOOTH",
"2039 1480 OFFCURVE",
"2035 1484 OFFCURVE",
"2025 1484 CURVE SMOOTH",
"1215 1484 LINE SMOOTH",
"1201 1484 OFFCURVE",
"1197 1480 OFFCURVE",
"1197 1464 CURVE SMOOTH",
"1197 1200 LINE",
"1097 1400 OFFCURVE",
"923 1504 OFFCURVE",
"689 1504 CURVE SMOOTH",
"313 1504 OFFCURVE",
"85 1234 OFFCURVE",
"85 734 CURVE SMOOTH",
"85 242 OFFCURVE",
"309 -20 OFFCURVE",
"688 -20 CURVE SMOOTH",
"921 -20 OFFCURVE",
"1097 82 OFFCURVE",
"1197 280 CURVE",
"1197 20 LINE SMOOTH",
"1197 4 OFFCURVE",
"1201 0 OFFCURVE",
"1215 0 CURVE SMOOTH",
"2055 0 LINE SMOOTH",
"2065 0 OFFCURVE",
"2069 4 OFFCURVE",
"2069 14 CURVE SMOOTH",
"2069 66 LINE SMOOTH",
"2069 78 OFFCURVE",
"2065 80 OFFCURVE",
"2053 80 CURVE SMOOTH"
);
},
{
closed = 1;
nodes = (
"359 64 OFFCURVE",
"181 286 OFFCURVE",
"181 738 CURVE SMOOTH",
"181 1194 OFFCURVE",
"359 1420 OFFCURVE",
"689 1420 CURVE SMOOTH",
"1017 1420 OFFCURVE",
"1188 1196 OFFCURVE",
"1188 738 CURVE SMOOTH",
"1188 284 OFFCURVE",
"1021 64 OFFCURVE",
"691 64 CURVE SMOOTH"
);
}
);
};
layerId = "91AB5BCA-6A50-42DA-B2F7-8181BF189245";
paths = (
{
closed = 1;
nodes = (
"803 -20 OFFCURVE",
"975 80 OFFCURVE",
"1091 274 CURVE",
"1053 0 LINE",
"1835 0 LINE",
"1847 78 LINE",
"1146 78 LINE",
"1233 692 LINE",
"1761 692 LINE",
"1771 770 LINE",
"1243 770 LINE",
"1327 1368 LINE",
"2001 1368 LINE",
"2011 1446 LINE",
"1255 1446 LINE",
"1217 1170 LINE",
"1155 1366 OFFCURVE",
"1013 1466 OFFCURVE",
"803 1466 CURVE SMOOTH",
"467 1466 OFFCURVE",
"225 1204 OFFCURVE",
"155 716 CURVE SMOOTH",
"87 236 OFFCURVE",
"255 -20 OFFCURVE",
"593 -20 CURVE SMOOTH"
);
},
{
closed = 1;
nodes = (
"312 62 OFFCURVE",
"181 278 OFFCURVE",
"243 720 CURVE SMOOTH",
"305 1164 OFFCURVE",
"495 1384 OFFCURVE",
"793 1384 CURVE SMOOTH",
"1087 1384 OFFCURVE",
"1209 1166 OFFCURVE",
"1146 720 CURVE SMOOTH",
"1083 276 OFFCURVE",
"905 62 OFFCURVE",
"609 62 CURVE SMOOTH"
);
}
);
width = 2049;
}
);
leftKerningGroup = O;
leftMetricsKey = O;
rightKerningGroup = E;
rightMetricsKey = E;
unicode = 0152;
},
{
glyphname = P;
lastChange = "2019-06-10 23:33:08 +0000";
layers = (
{
background = {
paths = (
{
closed = 1;
nodes = (
"1419 1324 OFFCURVE",
"1145 1484 OFFCURVE",
"816 1484 CURVE SMOOTH",
"155 1484 LINE SMOOTH",
"131 1484 OFFCURVE",
"117 1468 OFFCURVE",
"117 1438 CURVE SMOOTH",
"117 50 LINE SMOOTH",
"117 16 OFFCURVE",
"129 0 OFFCURVE",
"169 0 CURVE SMOOTH",
"505 0 LINE SMOOTH",
"551 0 OFFCURVE",
"571 16 OFFCURVE",
"571 58 CURVE SMOOTH",
"571 510 LINE SMOOTH",
"571 524 OFFCURVE",
"577 532 OFFCURVE",
"595 532 CURVE SMOOTH",
"869 532 LINE SMOOTH",
"1194 532 OFFCURVE",
"1419 710 OFFCURVE",
"1419 1002 CURVE SMOOTH"
);
},
{
closed = 1;
nodes = (
"955 922 OFFCURVE",
"896 852 OFFCURVE",
"801 852 CURVE SMOOTH",
"604 852 LINE SMOOTH",
"579 852 OFFCURVE",
"571 866 OFFCURVE",
"571 896 CURVE SMOOTH",
"571 1122 LINE SMOOTH",
"571 1152 OFFCURVE",
"583 1164 OFFCURVE",
"617 1164 CURVE SMOOTH",
"789 1164 LINE SMOOTH",
"881 1164 OFFCURVE",
"955 1104 OFFCURVE",
"955 1008 CURVE SMOOTH"
);
}
);
};
layerId = "258ED206-D907-4350-8EBA-CBDDA1C16BF7";
rightMetricsKey = "=X*2";
paths = (
{
closed = 1;
nodes = (
"453 0 LINE",
"529 498 LINE",
"759 498 LINE SMOOTH",
"1075 498 OFFCURVE",
"1299 670 OFFCURVE",
"1343 956 CURVE SMOOTH",
"1391 1270 OFFCURVE",
"1171 1446 OFFCURVE",
"853 1446 CURVE SMOOTH",
"285 1446 LINE",
"64 0 LINE"
);
},
{
closed = 1;
nodes = (
"625 1158 LINE",
"847 1158 LINE SMOOTH",
"933 1158 OFFCURVE",
"1005 1076 OFFCURVE",
"991 976 CURVE SMOOTH",
"977 882 OFFCURVE",
"889 788 OFFCURVE",
"791 788 CURVE SMOOTH",
"568 788 LINE"
);
}
);
width = 1339;
},
{
background = {
paths = (
{
closed = 1;
nodes = (
"1213 1368 OFFCURVE",
"991 1484 OFFCURVE",
"681 1484 CURVE SMOOTH",
"237 1484 LINE SMOOTH",
"223 1484 OFFCURVE",
"219 1480 OFFCURVE",
"219 1464 CURVE SMOOTH",
"219 16 LINE SMOOTH",
"219 6 OFFCURVE",
"225 0 OFFCURVE",
"235 0 CURVE SMOOTH",
"295 0 LINE SMOOTH",
"305 0 OFFCURVE",
"311 6 OFFCURVE",
"311 18 CURVE SMOOTH",
"311 636 LINE SMOOTH",
"311 648 OFFCURVE",
"315 654 OFFCURVE",
"327 654 CURVE SMOOTH",
"693 654 LINE SMOOTH",
"995 654 OFFCURVE",
"1213 774 OFFCURVE",
"1213 1070 CURVE SMOOTH"
);
},
{
closed = 1;
nodes = (
"1117 830 OFFCURVE",
"949 734 OFFCURVE",
"693 734 CURVE SMOOTH",
"325 734 LINE SMOOTH",
"315 734 OFFCURVE",
"311 740 OFFCURVE",
"311 754 CURVE SMOOTH",
"311 1388 LINE SMOOTH",
"311 1400 OFFCURVE",
"317 1404 OFFCURVE",
"329 1404 CURVE SMOOTH",
"679 1404 LINE SMOOTH",
"949 1404 OFFCURVE",
"1117 1324 OFFCURVE",
"1117 1076 CURVE SMOOTH"
);
}
);
};
layerId = "91AB5BCA-6A50-42DA-B2F7-8181BF189245";
rightMetricsKey = "=X/2";
paths = (
{
closed = 1;
nodes = (
"227 0 LINE",
"305 554 LINE",
"646 554 LINE SMOOTH",
"919 554 OFFCURVE",
"1137 716 OFFCURVE",
"1179 1006 CURVE SMOOTH",
"1219 1296 OFFCURVE",
"1041 1446 OFFCURVE",
"761 1446 CURVE SMOOTH",
"351 1446 LINE",
"149 0 LINE"
);
},
{
closed = 1;
nodes = (
"419 1362 LINE",
"747 1362 LINE SMOOTH",
"991 1362 OFFCURVE",
"1131 1252 OFFCURVE",
"1099 1012 CURVE SMOOTH",
"1065 772 OFFCURVE",
"889 640 OFFCURVE",
"659 640 CURVE SMOOTH",
"317 640 LINE"
);
}
);
width = 1168;
}
);
leftKerningGroup = N;
leftMetricsKey = H;
rightKerningGroup = P;
rightMetricsKey = "=O";
unicode = 0050;
},
{
glyphname = Thorn;
lastChange = "2019-06-10 23:33:08 +0000";
layers = (
{
background = {
paths = (
{
closed = 1;
nodes = (
"1477 1060 OFFCURVE",
"1203 1216 OFFCURVE",
"875 1216 CURVE SMOOTH",
"623 1216 LINE SMOOTH",
"608 1216 OFFCURVE",
"603 1224 OFFCURVE",
"603 1240 CURVE SMOOTH",
"603 1442 LINE SMOOTH",
"603 1468 OFFCURVE",
"591 1484 OFFCURVE",
"566 1484 CURVE SMOOTH",
"187 1484 LINE SMOOTH",
"165 1484 OFFCURVE",
"148 1468 OFFCURVE",
"148 1438 CURVE SMOOTH",
"148 50 LINE SMOOTH",
"148 16 OFFCURVE",
"161 0 OFFCURVE",
"201 0 CURVE SMOOTH",
"537 0 LINE SMOOTH",
"583 0 OFFCURVE",
"603 16 OFFCURVE",
"603 58 CURVE SMOOTH",
"603 262 LINE SMOOTH",
"603 276 OFFCURVE",
"608 284 OFFCURVE",
"627 284 CURVE SMOOTH",
"927 284 LINE SMOOTH",
"1253 284 OFFCURVE",
"1477 458 OFFCURVE",
"1477 744 CURVE SMOOTH"
);
},
{
closed = 1;
nodes = (
"1013 670 OFFCURVE",
"955 604 OFFCURVE",
"858 604 CURVE SMOOTH",
"637 604 LINE SMOOTH",
"610 604 OFFCURVE",
"603 618 OFFCURVE",
"603 648 CURVE SMOOTH",
"603 854 LINE SMOOTH",
"603 884 OFFCURVE",
"615 896 OFFCURVE",
"648 896 CURVE SMOOTH",
"847 896 LINE SMOOTH",
"938 896 OFFCURVE",
"1013 840 OFFCURVE",
"1013 750 CURVE SMOOTH"
);
}
);
};
layerId = "258ED206-D907-4350-8EBA-CBDDA1C16BF7";
paths = (
{
closed = 1;
nodes = (
"507 0 LINE",
"549 276 LINE",
"863 276 LINE SMOOTH",
"1179 276 OFFCURVE",
"1421 446 OFFCURVE",
"1463 726 CURVE SMOOTH",
"1509 1034 OFFCURVE",
"1267 1186 OFFCURVE",
"949 1186 CURVE SMOOTH",
"687 1186 LINE",
"725 1446 LINE",
"285 1446 LINE",
"64 0 LINE"
);
},
{
closed = 1;
nodes = (
"639 874 LINE",
"875 874 LINE SMOOTH",
"963 874 OFFCURVE",
"1029 820 OFFCURVE",
"1015 732 CURVE SMOOTH",
"1003 654 OFFCURVE",
"935 588 OFFCURVE",
"843 588 CURVE SMOOTH",
"595 588 LINE"
);
}
);
width = 1492;
},
{
background = {
paths = (
{
closed = 1;
nodes = (
"1213 1044 OFFCURVE",
"993 1158 OFFCURVE",
"681 1158 CURVE SMOOTH",
"323 1158 LINE SMOOTH",
"315 1158 OFFCURVE",
"311 1162 OFFCURVE",
"311 1168 CURVE SMOOTH",
"311 1464 LINE SMOOTH",
"311 1480 OFFCURVE",
"307 1484 OFFCURVE",
"293 1484 CURVE SMOOTH",
"237 1484 LINE SMOOTH",
"223 1484 OFFCURVE",
"219 1480 OFFCURVE",
"219 1464 CURVE SMOOTH",
"219 16 LINE SMOOTH",
"219 6 OFFCURVE",
"225 0 OFFCURVE",
"235 0 CURVE SMOOTH",
"295 0 LINE SMOOTH",
"305 0 OFFCURVE",
"311 6 OFFCURVE",
"311 18 CURVE SMOOTH",
"311 346 LINE SMOOTH",
"311 358 OFFCURVE",
"315 364 OFFCURVE",
"327 364 CURVE SMOOTH",
"693 364 LINE SMOOTH",
"993 364 OFFCURVE",
"1213 478 OFFCURVE",
"1213 780 CURVE SMOOTH"
);
},
{
closed = 1;
nodes = (
"1117 536 OFFCURVE",
"949 444 OFFCURVE",
"693 444 CURVE SMOOTH",
"325 444 LINE SMOOTH",
"315 444 OFFCURVE",
"311 450 OFFCURVE",
"311 464 CURVE SMOOTH",
"311 1062 LINE SMOOTH",
"311 1074 OFFCURVE",
"317 1078 OFFCURVE",
"329 1078 CURVE SMOOTH",
"679 1078 LINE SMOOTH",
"949 1078 OFFCURVE",
"1117 1002 OFFCURVE",
"1117 780 CURVE SMOOTH"
);
}
);
};
layerId = "91AB5BCA-6A50-42DA-B2F7-8181BF189245";
paths = (
{
closed = 1;
nodes = (
"230 0 LINE",
"281 354 LINE",
"623 354 LINE SMOOTH",
"893 354 OFFCURVE",
"1107 466 OFFCURVE",
"1146 760 CURVE SMOOTH",
"1183 1018 OFFCURVE",
"1003 1130 OFFCURVE",
"721 1130 CURVE SMOOTH",
"389 1130 LINE",
"435 1446 LINE",
"351 1446 LINE",
"149 0 LINE"
);
},
{
closed = 1;
nodes = (
"379 1052 LINE",
"709 1052 LINE SMOOTH",
"951 1052 OFFCURVE",
"1091 976 OFFCURVE",
"1061 760 CURVE SMOOTH",
"1027 522 OFFCURVE",
"863 432 OFFCURVE",
"633 432 CURVE SMOOTH",
"291 432 LINE"
);
}
);
width = 1170;
}
);
leftKerningGroup = N;
leftMetricsKey = P;
rightKerningGroup = P;
rightMetricsKey = P;
unicode = 00DE;
},
{
glyphname = Q;
lastChange = "2019-06-10 23:33:08 +0000";
layers = (
{
background = {
paths = (
{
closed = 1;
nodes = (
"76 276 OFFCURVE",
"354 -20 OFFCURVE",
"796 -20 CURVE SMOOTH",
"849 -20 OFFCURVE",
"891 -18 OFFCURVE",
"938 -12 CURVE SMOOTH",
"952 -10 OFFCURVE",
"962 -12 OFFCURVE",
"969 -20 CURVE SMOOTH",
"1082 -168 OFFCURVE",
"1227 -256 OFFCURVE",
"1427 -256 CURVE SMOOTH",
"1490 -256 OFFCURVE",
"1515 -244 OFFCURVE",
"1515 -194 CURVE SMOOTH",
"1515 26 LINE SMOOTH",
"1515 40 OFFCURVE",
"1509 56 OFFCURVE",
"1480 60 CURVE SMOOTH",
"1395 72 OFFCURVE",
"1301 122 OFFCURVE",
"1301 156 CURVE SMOOTH",
"1301 164 OFFCURVE",
"1301 168 OFFCURVE",
"1305 172 CURVE",
"1438 304 OFFCURVE",
"1515 498 OFFCURVE",
"1515 738 CURVE SMOOTH",
"1515 1202 OFFCURVE",
"1229 1504 OFFCURVE",
"796 1504 CURVE SMOOTH",
"362 1504 OFFCURVE",
"76 1202 OFFCURVE",
"76 738 CURVE SMOOTH"
);
},
{
closed = 1;
nodes = (
"553 1064 OFFCURVE",
"622 1196 OFFCURVE",
"796 1196 CURVE SMOOTH",
"969 1196 OFFCURVE",
"1038 1064 OFFCURVE",
"1038 734 CURVE SMOOTH",
"1038 412 OFFCURVE",
"973 292 OFFCURVE",
"796 292 CURVE SMOOTH",
"618 292 OFFCURVE",
"553 412 OFFCURVE",
"553 734 CURVE SMOOTH"
);
}
);
};
layerId = "258ED206-D907-4350-8EBA-CBDDA1C16BF7";
rightMetricsKey = "=O*1.25";
paths = (
{
closed = 1;
nodes = (
"1408 54 LINE",
"1311 54 OFFCURVE",
"1229 104 OFFCURVE",
"1223 160 CURVE",
"1372 300 OFFCURVE",
"1475 486 OFFCURVE",
"1511 720 CURVE SMOOTH",
"1578 1172 OFFCURVE",
"1347 1466 OFFCURVE",
"927 1466 CURVE SMOOTH",
"509 1466 OFFCURVE",
"185 1172 OFFCURVE",
"116 720 CURVE SMOOTH",
"48 270 OFFCURVE",
"274 -20 OFFCURVE",
"702 -20 CURVE SMOOTH",
"752 -20 OFFCURVE",
"792 -18 OFFCURVE",
"862 -10 CURVE",
"1000 -226 OFFCURVE",
"1132 -250 OFFCURVE",
"1362 -250 CURVE"
);
},
{
closed = 1;
nodes = (
"578 292 OFFCURVE",
"492 402 OFFCURVE",
"538 716 CURVE SMOOTH",
"588 1038 OFFCURVE",
"712 1154 OFFCURVE",
"880 1154 CURVE SMOOTH",
"1046 1154 OFFCURVE",
"1137 1038 OFFCURVE",
"1088 716 CURVE SMOOTH",
"1040 402 OFFCURVE",
"920 292 OFFCURVE",
"748 292 CURVE SMOOTH"
);
}
);
width = 1592;
},
{
background = {
paths = (
{
closed = 1;
nodes = (
"100 232 OFFCURVE",
"334 -20 OFFCURVE",
"702 -20 CURVE SMOOTH",
"754 -20 OFFCURVE",
"814 -14 OFFCURVE",
"864 -2 CURVE SMOOTH",
"878 2 OFFCURVE",
"888 -2 OFFCURVE",
"894 -10 CURVE SMOOTH",
"1024 -192 OFFCURVE",
"1156 -244 OFFCURVE",
"1244 -244 CURVE SMOOTH",
"1272 -244 OFFCURVE",
"1284 -240 OFFCURVE",
"1284 -218 CURVE SMOOTH",
"1284 -174 LINE SMOOTH",
"1284 -168 OFFCURVE",
"1282 -162 OFFCURVE",
"1271 -160 CURVE SMOOTH",
"1120 -140 OFFCURVE",
"986 -22 OFFCURVE",
"986 32 CURVE SMOOTH",
"986 40 OFFCURVE",
"988 44 OFFCURVE",
"998 50 CURVE SMOOTH",
"1192 166 OFFCURVE",
"1304 378 OFFCURVE",
"1304 738 CURVE SMOOTH",
"1304 1240 OFFCURVE",
"1078 1504 OFFCURVE",
"702 1504 CURVE SMOOTH",
"326 1504 OFFCURVE",
"100 1240 OFFCURVE",
"100 738 CURVE SMOOTH"
);
},
{
closed = 1;
nodes = (
"196 1184 OFFCURVE",
"368 1420 OFFCURVE",
"702 1420 CURVE SMOOTH",
"1036 1420 OFFCURVE",
"1208 1184 OFFCURVE",
"1208 738 CURVE SMOOTH",
"1208 282 OFFCURVE",
"1030 64 OFFCURVE",
"702 64 CURVE SMOOTH",
"374 64 OFFCURVE",
"196 282 OFFCURVE",
"196 734 CURVE SMOOTH"
);
}
);
};
layerId = "91AB5BCA-6A50-42DA-B2F7-8181BF189245";
rightMetricsKey = "=O*1.25";
paths = (
{
closed = 1;
nodes = (
"1096 -158 LINE",
"980 -152 OFFCURVE",
"884 -100 OFFCURVE",
"842 36 CURVE",
"1074 158 OFFCURVE",
"1190 388 OFFCURVE",
"1236 720 CURVE SMOOTH",
"1304 1210 OFFCURVE",
"1138 1466 OFFCURVE",
"802 1466 CURVE SMOOTH",
"464 1466 OFFCURVE",
"224 1210 OFFCURVE",
"156 720 CURVE SMOOTH",
"86 226 OFFCURVE",
"264 -20 OFFCURVE",
"592 -20 CURVE SMOOTH",
"644 -20 OFFCURVE",
"696 -12 OFFCURVE",
"758 2 CURVE",
"824 -196 OFFCURVE",
"996 -238 OFFCURVE",
"1084 -238 CURVE"
);
},
{
closed = 1;
nodes = (
"310 62 OFFCURVE",
"174 274 OFFCURVE",
"236 716 CURVE SMOOTH",
"298 1154 OFFCURVE",
"490 1384 OFFCURVE",
"790 1384 CURVE SMOOTH",
"1090 1384 OFFCURVE",
"1218 1154 OFFCURVE",
"1156 720 CURVE SMOOTH",
"1094 274 OFFCURVE",
"898 62 OFFCURVE",
"605 62 CURVE SMOOTH"
);
}
);
width = 1367;
}
);
leftKerningGroup = O;
leftMetricsKey = O;
rightKerningGroup = O;
rightMetricsKey = "O*1.25";
unicode = 0051;
},
{
glyphname = R;
lastChange = "2019-06-10 23:33:08 +0000";
layers = (
{
anchors = (
{
name = bottom;
position = "{645, 0}";
},
{
name = top;
position = "{845, 1446}";
}
);
background = {
anchors = (
{
name = bottom;
position = "{747, 0}";
},
{
name = top;
position = "{727, 1484}";
}
);
paths = (
{
closed = 1;
nodes = (
"1161 624 LINE SMOOTH",
"1155 640 OFFCURVE",
"1155 656 OFFCURVE",
"1169 662 CURVE SMOOTH",
"1321 720 OFFCURVE",
"1431 872 OFFCURVE",
"1431 1060 CURVE SMOOTH",
"1431 1328 OFFCURVE",
"1207 1484 OFFCURVE",
"821 1484 CURVE SMOOTH",
"152 1484 LINE SMOOTH",
"129 1484 OFFCURVE",
"115 1468 OFFCURVE",
"115 1438 CURVE SMOOTH",
"115 50 LINE SMOOTH",
"115 16 OFFCURVE",
"127 0 OFFCURVE",
"167 0 CURVE SMOOTH",
"503 0 LINE SMOOTH",
"549 0 OFFCURVE",
"568 16 OFFCURVE",
"568 58 CURVE SMOOTH",
"568 568 LINE SMOOTH",
"568 574 OFFCURVE",
"575 590 OFFCURVE",
"593 590 CURVE SMOOTH",
"685 590 LINE SMOOTH",
"723 590 OFFCURVE",
"739 580 OFFCURVE",
"747 558 CURVE SMOOTH",
"935 42 LINE SMOOTH",
"942 14 OFFCURVE",
"961 0 OFFCURVE",
"989 0 CURVE SMOOTH",
"1377 0 LINE SMOOTH",
"1409 0 OFFCURVE",
"1427 30 OFFCURVE",
"1413 64 CURVE SMOOTH"
);
},
{
closed = 1;
nodes = (
"603 888 LINE SMOOTH",
"577 888 OFFCURVE",
"568 900 OFFCURVE",
"568 930 CURVE SMOOTH",
"568 1148 LINE SMOOTH",
"568 1178 OFFCURVE",
"581 1188 OFFCURVE",
"615 1188 CURVE SMOOTH",
"791 1188 LINE SMOOTH",
"881 1188 OFFCURVE",
"961 1134 OFFCURVE",
"961 1032 CURVE SMOOTH",
"961 946 OFFCURVE",
"905 888 OFFCURVE",
"803 888 CURVE SMOOTH"
);
}
);
};
layerId = "258ED206-D907-4350-8EBA-CBDDA1C16BF7";
rightMetricsKey = "=H/1.5";
paths = (
{
closed = 1;
nodes = (
"451 0 LINE",
"526 498 LINE",
"730 498 LINE",
"863 0 LINE",
"1259 0 LINE",
"1091 560 LINE",
"1236 642 OFFCURVE",
"1349 758 OFFCURVE",
"1383 980 CURVE SMOOTH",
"1423 1242 OFFCURVE",
"1309 1446 OFFCURVE",
"935 1446 CURVE SMOOTH",
"283 1446 LINE",
"64 0 LINE"
);
},
{
closed = 1;
nodes = (
"627 1158 LINE",
"849 1158 LINE SMOOTH",
"935 1158 OFFCURVE",
"1009 1076 OFFCURVE",
"993 976 CURVE SMOOTH",
"979 882 OFFCURVE",
"891 788 OFFCURVE",
"793 788 CURVE SMOOTH",
"571 788 LINE"
);
}
);
width = 1423;
},
{
anchors = (
{
name = bottom;
position = "{545, 0}";
},
{
name = top;
position = "{735, 1446}";
}
);
background = {
anchors = (
{
name = bottom;
position = "{661, 0}";
},
{
name = top;
position = "{647, 1484}";
}
);
paths = (
{
closed = 1;
nodes = (
"885 718 LINE",
"883 724 OFFCURVE",
"885 730 OFFCURVE",
"893 732 CURVE SMOOTH",
"1031 768 OFFCURVE",
"1197 870 OFFCURVE",
"1197 1116 CURVE SMOOTH",
"1197 1360 OFFCURVE",
"1029 1484 OFFCURVE",
"741 1484 CURVE SMOOTH",
"225 1484 LINE SMOOTH",
"211 1484 OFFCURVE",
"207 1480 OFFCURVE",
"207 1464 CURVE SMOOTH",
"207 18 LINE SMOOTH",
"207 6 OFFCURVE",
"211 0 OFFCURVE",
"227 0 CURVE SMOOTH",
"279 0 LINE SMOOTH",
"295 0 OFFCURVE",
"299 6 OFFCURVE",
"299 22 CURVE SMOOTH",
"299 688 LINE SMOOTH",
"299 702 OFFCURVE",
"305 710 OFFCURVE",
"323 710 CURVE SMOOTH",
"755 710 LINE SMOOTH",
"781 710 OFFCURVE",
"791 704 OFFCURVE",
"797 690 CURVE SMOOTH",
"1081 18 LINE SMOOTH",
"1087 6 OFFCURVE",
"1091 0 OFFCURVE",
"1105 0 CURVE SMOOTH",
"1161 0 LINE SMOOTH",
"1175 0 OFFCURVE",
"1183 14 OFFCURVE",
"1177 28 CURVE SMOOTH"
);
},
{
closed = 1;
nodes = (
"313 790 LINE SMOOTH",
"303 790 OFFCURVE",
"299 796 OFFCURVE",
"299 808 CURVE SMOOTH",
"299 1388 LINE SMOOTH",
"299 1400 OFFCURVE",
"305 1404 OFFCURVE",
"321 1404 CURVE SMOOTH",
"739 1404 LINE SMOOTH",
"981 1404 OFFCURVE",
"1101 1306 OFFCURVE",
"1101 1102 CURVE SMOOTH",
"1101 878 OFFCURVE",
"957 790 OFFCURVE",
"671 790 CURVE SMOOTH"
);
}
);
};
layerId = "91AB5BCA-6A50-42DA-B2F7-8181BF189245";
paths = (
{
closed = 1;
nodes = (
"219 0 LINE",
"317 688 LINE",
"763 688 LINE",
"935 0 LINE",
"1017 0 LINE",
"841 706 LINE",
"975 742 OFFCURVE",
"1145 846 OFFCURVE",
"1179 1088 CURVE SMOOTH",
"1211 1326 OFFCURVE",
"1077 1446 OFFCURVE",
"819 1446 CURVE SMOOTH",
"351 1446 LINE",
"147 0 LINE"
);
},
{
closed = 1;
nodes = (
"411 1366 LINE",
"807 1366 LINE SMOOTH",
"1025 1366 OFFCURVE",
"1127 1280 OFFCURVE",
"1099 1074 CURVE SMOOTH",
"1069 856 OFFCURVE",
"919 770 OFFCURVE",
"663 770 CURVE SMOOTH",
"327 770 LINE"
);
}
);
width = 1245;
}
);
leftKerningGroup = N;
leftMetricsKey = H;
rightKerningGroup = R;
rightMetricsKey = "=X+30";
unicode = 0052;
},
{
glyphname = S;
lastChange = "2019-06-10 23:33:08 +0000";
layers = (
{
anchors = (
{
name = bottom;
position = "{652, 0}";
},
{
name = top;
position = "{872, 1446}";
}
);
background = {
anchors = (
{
name = bottom;
position = "{759, 0}";
},
{
name = top;
position = "{759, 1484}";
}
);
paths = (
{
closed = 1;
nodes = (
"1064 1058 OFFCURVE",
"1076 1056 OFFCURVE",
"1097 1070 CURVE SMOOTH",
"1314 1228 LINE SMOOTH",
"1340 1248 OFFCURVE",
"1326 1270 OFFCURVE",
"1314 1288 CURVE SMOOTH",
"1223 1418 OFFCURVE",
"996 1504 OFFCURVE",
"759 1504 CURVE SMOOTH",
"380 1504 OFFCURVE",
"143 1290 OFFCURVE",
"143 1030 CURVE SMOOTH",
"143 820 OFFCURVE",
"294 646 OFFCURVE",
"534 586 CURVE SMOOTH",
"838 512 LINE SMOOTH",
"924 492 OFFCURVE",
"964 452 OFFCURVE",
"964 404 CURVE SMOOTH",
"964 330 OFFCURVE",
"868 288 OFFCURVE",
"723 288 CURVE SMOOTH",
"564 288 OFFCURVE",
"486 334 OFFCURVE",
"398 448 CURVE SMOOTH",
"382 468 OFFCURVE",
"358 476 OFFCURVE",
"322 452 CURVE SMOOTH",
"116 310 LINE SMOOTH",
"88 288 OFFCURVE",
"88 272 OFFCURVE",
"104 244 CURVE SMOOTH",
"198 86 OFFCURVE",
"464 -20 OFFCURVE",
"756 -20 CURVE SMOOTH",
"1150 -20 OFFCURVE",
"1396 172 OFFCURVE",
"1396 468 CURVE SMOOTH",
"1396 674 OFFCURVE",
"1280 842 OFFCURVE",
"1030 904 CURVE SMOOTH",
"698 990 LINE SMOOTH",
"599 1014 OFFCURVE",
"570 1056 OFFCURVE",
"570 1092 CURVE SMOOTH",
"570 1142 OFFCURVE",
"624 1194 OFFCURVE",
"774 1194 CURVE SMOOTH",
"931 1194 OFFCURVE",
"988 1138 OFFCURVE",
"1036 1086 CURVE SMOOTH"
);
}
);
};
guideLines = (
{
angle = 214.3236;
position = "{685, 302}";
}
);
layerId = "258ED206-D907-4350-8EBA-CBDDA1C16BF7";
leftMetricsKey = "=O";
rightMetricsKey = "=O/1.1";
paths = (
{
closed = 1;
nodes = (
"1017 -20 OFFCURVE",
"1314 164 OFFCURVE",
"1351 410 CURVE SMOOTH",
"1372 554 OFFCURVE",
"1387 814 OFFCURVE",
"980 886 CURVE SMOOTH",
"763 924 LINE SMOOTH",
"641 946 OFFCURVE",
"614 984 OFFCURVE",
"624 1050 CURVE SMOOTH",
"632 1102 OFFCURVE",
"687 1164 OFFCURVE",
"838 1164 CURVE SMOOTH",
"973 1164 OFFCURVE",
"1046 1120 OFFCURVE",
"1040 1008 CURVE",
"1433 1008 LINE",
"1442 1246 OFFCURVE",
"1227 1464 OFFCURVE",
"874 1464 CURVE SMOOTH",
"544 1464 OFFCURVE",
"244 1294 OFFCURVE",
"202 1002 CURVE SMOOTH",
"170 756 OFFCURVE",
"296 612 OFFCURVE",
"517 576 CURVE SMOOTH",
"734 538 LINE SMOOTH",
"853 518 OFFCURVE",
"969 498 OFFCURVE",
"956 410 CURVE SMOOTH",
"940 308 OFFCURVE",
"820 278 OFFCURVE",
"698 278 CURVE SMOOTH",
"564 278 OFFCURVE",
"484 338 OFFCURVE",
"478 440 CURVE",
"76 440 LINE",
"53 118 OFFCURVE",
"354 -20 OFFCURVE",
"656 -20 CURVE SMOOTH"
);
}
);
width = 1445;
},
{
anchors = (
{
name = bottom;
position = "{540, 0}";
},
{
name = top;
position = "{755, 1446}";
}
);
background = {
anchors = (
{
name = bottom;
position = "{679, 0}";
},
{
name = top;
position = "{671, 1484}";
}
);
paths = (
{
closed = 1;
nodes = (
"1045 1240 OFFCURVE",
"1049 1236 OFFCURVE",
"1059 1244 CURVE SMOOTH",
"1103 1284 LINE SMOOTH",
"1114 1294 OFFCURVE",
"1110 1304 OFFCURVE",
"1103 1312 CURVE SMOOTH",
"988 1432 OFFCURVE",
"854 1504 OFFCURVE",
"669 1504 CURVE SMOOTH",
"395 1504 OFFCURVE",
"204 1362 OFFCURVE",
"204 1112 CURVE SMOOTH",
"204 984 OFFCURVE",
"265 842 OFFCURVE",
"480 760 CURVE SMOOTH",
"782 644 LINE SMOOTH",
"1001 560 OFFCURVE",
"1047 478 OFFCURVE",
"1047 360 CURVE SMOOTH",
"1047 146 OFFCURVE",
"889 64 OFFCURVE",
"650 64 CURVE SMOOTH",
"437 64 OFFCURVE",
"341 138 OFFCURVE",
"229 282 CURVE SMOOTH",
"219 294 OFFCURVE",
"209 296 OFFCURVE",
"188 282 CURVE SMOOTH",
"167 266 LINE SMOOTH",
"146 252 OFFCURVE",
"145 240 OFFCURVE",
"154 226 CURVE SMOOTH",
"272 58 OFFCURVE",
"429 -20 OFFCURVE",
"650 -20 CURVE SMOOTH",
"952 -20 OFFCURVE",
"1139 120 OFFCURVE",
"1139 364 CURVE SMOOTH",
"1139 532 OFFCURVE",
"1053 652 OFFCURVE",
"816 738 CURVE SMOOTH",
"540 838 LINE SMOOTH",
"326 916 OFFCURVE",
"297 1036 OFFCURVE",
"297 1114 CURVE SMOOTH",
"297 1312 OFFCURVE",
"444 1420 OFFCURVE",
"662 1420 CURVE SMOOTH",
"830 1420 OFFCURVE",
"952 1348 OFFCURVE",
"1032 1254 CURVE SMOOTH"
);
}
);
};
layerId = "91AB5BCA-6A50-42DA-B2F7-8181BF189245";
rightMetricsKey = "=O*1.2";
paths = (
{
closed = 1;
nodes = (
"874 -20 OFFCURVE",
"1057 150 OFFCURVE",
"1085 354 CURVE SMOOTH",
"1108 518 OFFCURVE",
"1053 668 OFFCURVE",
"853 728 CURVE SMOOTH",
"580 808 LINE SMOOTH",
"379 868 OFFCURVE",
"320 942 OFFCURVE",
"339 1066 CURVE SMOOTH",
"368 1286 OFFCURVE",
"587 1382 OFFCURVE",
"744 1382 CURVE SMOOTH",
"927 1382 OFFCURVE",
"1080 1300 OFFCURVE",
"1085 1064 CURVE",
"1160 1080 LINE",
"1171 1280 OFFCURVE",
"1063 1464 OFFCURVE",
"761 1464 CURVE SMOOTH",
"492 1464 OFFCURVE",
"290 1292 OFFCURVE",
"259 1064 CURVE SMOOTH",
"234 892 OFFCURVE",
"332 798 OFFCURVE",
"521 744 CURVE SMOOTH",
"807 664 LINE SMOOTH",
"971 618 OFFCURVE",
"1026 504 OFFCURVE",
"1005 350 CURVE SMOOTH",
"980 180 OFFCURVE",
"803 58 OFFCURVE",
"570 58 CURVE SMOOTH",
"374 58 OFFCURVE",
"206 156 OFFCURVE",
"194 352 CURVE",
"114 334 LINE",
"122 110 OFFCURVE",
"316 -20 OFFCURVE",
"559 -20 CURVE SMOOTH"
);
}
);
width = 1262;
}
);
leftKerningGroup = S;
leftMetricsKey = "=O*1.1";
rightKerningGroup = S;
rightMetricsKey = "=O";
unicode = 0053;
},
{
glyphname = Schwa;
lastChange = "2019-06-10 23:33:08 +0000";
layers = (
{
background = {
paths = (
{
closed = 1;
nodes = (
"1044 862 OFFCURVE",
"1030 850 OFFCURVE",
"1004 850 CURVE SMOOTH",
"139 850 LINE SMOOTH",
"95 850 OFFCURVE",
"93 828 OFFCURVE",
"93 784 CURVE SMOOTH",
"93 272 OFFCURVE",
"334 -20 OFFCURVE",
"801 -20 CURVE SMOOTH",
"1187 -20 OFFCURVE",
"1524 316 OFFCURVE",
"1524 760 CURVE SMOOTH",
"1524 1198 OFFCURVE",
"1250 1504 OFFCURVE",
"807 1504 CURVE SMOOTH",
"515 1504 OFFCURVE",
"303 1378 OFFCURVE",
"179 1134 CURVE SMOOTH",
"162 1102 OFFCURVE",
"164 1084 OFFCURVE",
"188 1072 CURVE SMOOTH",
"464 936 LINE SMOOTH",
"498 918 OFFCURVE",
"511 924 OFFCURVE",
"519 938 CURVE SMOOTH",
"610 1088 OFFCURVE",
"687 1156 OFFCURVE",
"811 1156 CURVE SMOOTH",
"1006 1156 OFFCURVE",
"1044 1012 OFFCURVE",
"1044 894 CURVE SMOOTH"
);
},
{
closed = 1;
nodes = (
"1017 384 OFFCURVE",
"958 292 OFFCURVE",
"796 292 CURVE SMOOTH",
"660 292 OFFCURVE",
"578 402 OFFCURVE",
"578 534 CURVE SMOOTH",
"578 564 OFFCURVE",
"588 570 OFFCURVE",
"622 570 CURVE SMOOTH",
"1040 568 LINE"
);
}
);
};
layerId = "258ED206-D907-4350-8EBA-CBDDA1C16BF7";
paths = (
{
closed = 1;
nodes = (
"1062 -20 OFFCURVE",
"1440 308 OFFCURVE",
"1506 742 CURVE SMOOTH",
"1570 1168 OFFCURVE",
"1353 1466 OFFCURVE",
"920 1466 CURVE SMOOTH",
"639 1466 OFFCURVE",
"414 1344 OFFCURVE",
"259 1106 CURVE SMOOTH",
"238 1074 OFFCURVE",
"236 1056 OFFCURVE",
"259 1046 CURVE SMOOTH",
"504 912 LINE SMOOTH",
"536 896 OFFCURVE",
"548 900 OFFCURVE",
"559 914 CURVE SMOOTH",
"670 1060 OFFCURVE",
"754 1128 OFFCURVE",
"874 1128 CURVE SMOOTH",
"1064 1128 OFFCURVE",
"1078 986 OFFCURVE",
"1062 872 CURVE SMOOTH",
"1057 840 OFFCURVE",
"1040 828 OFFCURVE",
"1017 828 CURVE SMOOTH",
"179 828 LINE SMOOTH",
"135 828 OFFCURVE",
"130 808 OFFCURVE",
"122 764 CURVE SMOOTH",
"46 266 OFFCURVE",
"238 -20 OFFCURVE",
"690 -20 CURVE SMOOTH"
);
},
{
closed = 1;
nodes = (
"601 284 OFFCURVE",
"538 392 OFFCURVE",
"557 520 CURVE SMOOTH",
"562 550 OFFCURVE",
"572 556 OFFCURVE",
"604 556 CURVE SMOOTH",
"1009 554 LINE",
"960 374 OFFCURVE",
"889 284 OFFCURVE",
"732 284 CURVE SMOOTH"
);
}
);
width = 1561;
},
{
background = {
paths = (
{
closed = 1;
nodes = (
"1214 762 OFFCURVE",
"1212 760 OFFCURVE",
"1202 760 CURVE SMOOTH",
"132 760 LINE SMOOTH",
"116 760 OFFCURVE",
"116 750 OFFCURVE",
"116 738 CURVE SMOOTH",
"116 348 OFFCURVE",
"248 -20 OFFCURVE",
"718 -20 CURVE SMOOTH",
"1176 -20 OFFCURVE",
"1318 360 OFFCURVE",
"1318 732 CURVE SMOOTH",
"1318 1062 OFFCURVE",
"1218 1504 OFFCURVE",
"718 1504 CURVE SMOOTH",
"262 1504 OFFCURVE",
"174 1120 OFFCURVE",
"144 1044 CURVE SMOOTH",
"140 1034 OFFCURVE",
"138 1028 OFFCURVE",
"147 1026 CURVE SMOOTH",
"222 1000 LINE SMOOTH",
"230 998 OFFCURVE",
"234 996 OFFCURVE",
"236 1000 CURVE SMOOTH",
"264 1062 OFFCURVE",
"300 1418 OFFCURVE",
"718 1418 CURVE SMOOTH",
"1154 1418 OFFCURVE",
"1214 1008 OFFCURVE",
"1214 772 CURVE SMOOTH"
);
},
{
closed = 1;
nodes = (
"1208 382 OFFCURVE",
"1110 66 OFFCURVE",
"718 66 CURVE SMOOTH",
"324 66 OFFCURVE",
"220 384 OFFCURVE",
"220 664 CURVE SMOOTH",
"220 672 OFFCURVE",
"224 676 OFFCURVE",
"236 676 CURVE SMOOTH",
"1214 676 LINE"
);
}
);
};
layerId = "91AB5BCA-6A50-42DA-B2F7-8181BF189245";
paths = (
{
closed = 1;
nodes = (
"1004 -20 OFFCURVE",
"1182 352 OFFCURVE",
"1234 714 CURVE SMOOTH",
"1280 1036 OFFCURVE",
"1252 1466 OFFCURVE",
"802 1466 CURVE SMOOTH",
"394 1466 OFFCURVE",
"262 1092 OFFCURVE",
"224 1018 CURVE SMOOTH",
"220 1008 OFFCURVE",
"216 1002 OFFCURVE",
"224 1000 CURVE SMOOTH",
"288 976 LINE SMOOTH",
"296 974 OFFCURVE",
"298 972 OFFCURVE",
"300 976 CURVE SMOOTH",
"336 1036 OFFCURVE",
"416 1382 OFFCURVE",
"790 1382 CURVE SMOOTH",
"1180 1382 OFFCURVE",
"1180 982 OFFCURVE",
"1148 752 CURVE SMOOTH",
"1147 742 OFFCURVE",
"1144 742 OFFCURVE",
"1134 742 CURVE SMOOTH",
"174 742 LINE SMOOTH",
"160 742 OFFCURVE",
"158 732 OFFCURVE",
"156 720 CURVE SMOOTH",
"105 340 OFFCURVE",
"172 -20 OFFCURVE",
"594 -20 CURVE SMOOTH"
);
},
{
closed = 1;
nodes = (
"252 64 OFFCURVE",
"202 374 OFFCURVE",
"240 648 CURVE SMOOTH",
"242 656 OFFCURVE",
"246 660 OFFCURVE",
"256 660 CURVE SMOOTH",
"1134 660 LINE",
"1088 372 OFFCURVE",
"956 64 OFFCURVE",
"606 64 CURVE SMOOTH"
);
}
);
width = 1334;
}
);
leftKerningGroup = e;
leftMetricsKey = O;
rightKerningGroup = e;
rightMetricsKey = O;
unicode = 018F;
},
{
glyphname = T;
lastChange = "2019-06-10 23:33:08 +0000";
layers = (
{
anchors = (
{
name = bottom;
position = "{564, 0}";
},
{
name = top;
position = "{784, 1446}";
}
);
background = {
anchors = (
{
name = bottom;
position = "{682, 0}";
},
{
name = top;
position = "{682, 1484}";
}
);
paths = (
{
closed = 1;
nodes = (
"34 1172 OFFCURVE",
"52 1162 OFFCURVE",
"80 1162 CURVE SMOOTH",
"432 1162 LINE SMOOTH",
"448 1162 OFFCURVE",
"454 1154 OFFCURVE",
"454 1134 CURVE SMOOTH",
"454 40 LINE SMOOTH",
"454 14 OFFCURVE",
"468 0 OFFCURVE",
"490 0 CURVE SMOOTH",
"870 0 LINE SMOOTH",
"892 0 OFFCURVE",
"908 14 OFFCURVE",
"908 44 CURVE SMOOTH",
"908 1142 LINE SMOOTH",
"908 1156 OFFCURVE",
"916 1162 OFFCURVE",
"932 1162 CURVE SMOOTH",
"1286 1162 LINE SMOOTH",
"1312 1162 OFFCURVE",
"1330 1172 OFFCURVE",
"1330 1200 CURVE SMOOTH",
"1330 1438 LINE SMOOTH",
"1330 1464 OFFCURVE",
"1314 1484 OFFCURVE",
"1280 1484 CURVE SMOOTH",
"84 1484 LINE SMOOTH",
"50 1484 OFFCURVE",
"34 1464 OFFCURVE",
"34 1438 CURVE SMOOTH",
"34 1200 LINE SMOOTH"
);
}
);
};
layerId = "258ED206-D907-4350-8EBA-CBDDA1C16BF7";
leftMetricsKey = "=X";
rightMetricsKey = "=X";
paths = (
{
closed = 1;
nodes = (
"738 0 LINE",
"906 1104 LINE",
"1318 1104 LINE",
"1370 1446 LINE",
"164 1446 LINE",
"112 1104 LINE",
"518 1104 LINE",
"352 0 LINE"
);
}
);
width = 1268;
},
{
anchors = (
{
name = bottom;
position = "{454, 4}";
},
{
name = top;
position = "{656, 1446}";
}
);
background = {
anchors = (
{
name = bottom;
position = "{572, 0}";
},
{
name = top;
position = "{572, 1484}";
}
);
paths = (
{
closed = 1;
nodes = (
"21 1406 OFFCURVE",
"24 1404 OFFCURVE",
"36 1404 CURVE SMOOTH",
"504 1404 LINE SMOOTH",
"521 1404 OFFCURVE",
"524 1402 OFFCURVE",
"524 1386 CURVE SMOOTH",
"524 20 LINE SMOOTH",
"524 4 OFFCURVE",
"528 0 OFFCURVE",
"544 0 CURVE SMOOTH",
"599 0 LINE SMOOTH",
"612 0 OFFCURVE",
"616 4 OFFCURVE",
"616 20 CURVE SMOOTH",
"616 1386 LINE SMOOTH",
"616 1402 OFFCURVE",
"620 1404 OFFCURVE",
"636 1404 CURVE SMOOTH",
"1063 1404 LINE SMOOTH",
"1074 1404 OFFCURVE",
"1078 1406 OFFCURVE",
"1078 1418 CURVE SMOOTH",
"1078 1470 LINE SMOOTH",
"1078 1480 OFFCURVE",
"1074 1484 OFFCURVE",
"1064 1484 CURVE SMOOTH",
"34 1484 LINE SMOOTH",
"24 1484 OFFCURVE",
"21 1480 OFFCURVE",
"21 1470 CURVE SMOOTH",
"21 1418 LINE SMOOTH"
);
}
);
};
layerId = "91AB5BCA-6A50-42DA-B2F7-8181BF189245";
leftMetricsKey = "=X/4";
rightMetricsKey = "=X/4";
paths = (
{
closed = 1;
nodes = (
"486 0 LINE",
"678 1366 LINE",
"1099 1366 LINE",
"1108 1446 LINE",
"160 1446 LINE",
"150 1366 LINE",
"606 1366 LINE",
"414 0 LINE"
);
}
);
width = 1009;
}
);
leftKerningGroup = T;
leftMetricsKey = X;
rightKerningGroup = T;
rightMetricsKey = X;
unicode = 0054;
},
{
glyphname = Tbar;
lastChange = "2019-06-10 23:32:23 +0000";
layers = (
{
background = {
components = (
{
name = T;
transform = "{1, 0, 0, 1, -22, 0}";
}
);
paths = (
{
closed = 1;
nodes = (
"1064 828 OFFCURVE",
"1050 844 OFFCURVE",
"1028 844 CURVE SMOOTH",
"226 844 LINE SMOOTH",
"202 844 OFFCURVE",
"188 828 OFFCURVE",
"188 798 CURVE SMOOTH",
"188 612 LINE SMOOTH",
"188 578 OFFCURVE",
"200 562 OFFCURVE",
"240 562 CURVE SMOOTH",
"998 562 LINE SMOOTH",
"1044 562 OFFCURVE",
"1064 578 OFFCURVE",
"1064 618 CURVE SMOOTH",
"1064 804 LINE SMOOTH"
);
}
);
};
components = (
{
name = T;
}
);
layerId = "258ED206-D907-4350-8EBA-CBDDA1C16BF7";
paths = (
{
closed = 1;
nodes = (
"1052 548 LINE",
"1092 822 LINE",
"238 822 LINE",
"198 548 LINE"
);
}
);
width = 1268;
},
{
background = {
components = (
{
name = T;
transform = "{1, 0, 0, 1, 4, 0}";
}
);
guideLines = (
{
angle = 90;
position = "{179, 188}";
showMeasurement = 1;
}
);
paths = (
{
closed = 1;
nodes = (
"1016 798 OFFCURVE",
"1012 804 OFFCURVE",
"1002 804 CURVE SMOOTH",
"298 804 LINE SMOOTH",
"288 804 OFFCURVE",
"284 798 OFFCURVE",
"284 786 CURVE SMOOTH",
"284 740 LINE SMOOTH",
"284 726 OFFCURVE",
"288 720 OFFCURVE",
"304 720 CURVE SMOOTH",
"990 720 LINE SMOOTH",
"1008 720 OFFCURVE",
"1016 726 OFFCURVE",
"1016 742 CURVE SMOOTH",
"1016 788 LINE SMOOTH"
);
}
);
};
components = (
{
name = T;
}
);
guideLines = (
{
angle = 90;
position = "{233, 175}";
showMeasurement = 1;
}
);
layerId = "91AB5BCA-6A50-42DA-B2F7-8181BF189245";
paths = (
{
closed = 1;
nodes = (
"928 702 LINE",
"928 784 LINE",
"214 784 LINE",
"214 702 LINE"
);
}
);
width = 1009;
}
);
leftKerningGroup = T;
leftMetricsKey = T;
rightKerningGroup = T;
rightMetricsKey = T;
unicode = 0166;
},
{
glyphname = U;
lastChange = "2019-06-10 23:33:08 +0000";
layers = (
{
anchors = (
{
name = bottom;
position = "{677, 0}";
},
{
name = horn;
position = "{1396, 1094}";
},
{
name = ogonek;
position = "{839, 24}";
},
{
name = top;
position = "{896, 1446}";
}
);
background = {
anchors = (
{
name = ogonek;
position = "{979, 20}";
},
{
name = top;
position = "{789, 1484}";
}
);
paths = (
{
closed = 1;
nodes = (
"1395 1442 LINE SMOOTH",
"1395 1468 OFFCURVE",
"1383 1484 OFFCURVE",
"1358 1484 CURVE SMOOTH",
"1059 1484 LINE SMOOTH",
"1035 1484 OFFCURVE",
"1021 1468 OFFCURVE",
"1021 1438 CURVE SMOOTH",
"1021 584 LINE SMOOTH",
"1021 362 OFFCURVE",
"913 298 OFFCURVE",
"789 298 CURVE SMOOTH",
"652 298 OFFCURVE",
"568 374 OFFCURVE",
"568 578 CURVE SMOOTH",
"568 1442 LINE SMOOTH",
"568 1468 OFFCURVE",
"557 1484 OFFCURVE",
"533 1484 CURVE SMOOTH",
"152 1484 LINE SMOOTH",
"131 1484 OFFCURVE",
"115 1468 OFFCURVE",
"115 1438 CURVE SMOOTH",
"115 626 LINE SMOOTH",
"115 208 OFFCURVE",
"276 -20 OFFCURVE",
"755 -20 CURVE SMOOTH",
"1137 -20 OFFCURVE",
"1395 124 OFFCURVE",
"1395 586 CURVE SMOOTH"
);
}
);
};
layerId = "258ED206-D907-4350-8EBA-CBDDA1C16BF7";
paths = (
{
closed = 1;
nodes = (
"1137 -20 OFFCURVE",
"1333 230 OFFCURVE",
"1389 598 CURVE SMOOTH",
"1517 1446 LINE",
"1125 1446 LINE",
"995 582 LINE SMOOTH",
"965 382 OFFCURVE",
"843 306 OFFCURVE",
"725 306 CURVE SMOOTH",
"603 306 OFFCURVE",
"507 382 OFFCURVE",
"537 582 CURVE SMOOTH",
"669 1446 LINE",
"276 1446 LINE",
"148 598 LINE SMOOTH",
"93 230 OFFCURVE",
"211 -20 OFFCURVE",
"675 -20 CURVE SMOOTH"
);
}
);
width = 1496;
},
{
anchors = (
{
name = bottom;
position = "{585, 4}";
},
{
name = horn;
position = "{1171, 1212}";
},
{
name = ogonek;
position = "{719, 18}";
},
{
name = top;
position = "{793, 1446}";
}
);
background = {
anchors = (
{
name = ogonek;
position = "{849, 18}";
},
{
name = top;
position = "{713, 1484}";
}
);
paths = (
{
closed = 1;
nodes = (
"1199 1466 LINE SMOOTH",
"1199 1478 OFFCURVE",
"1195 1484 OFFCURVE",
"1183 1484 CURVE SMOOTH",
"1135 1484 LINE SMOOTH",
"1123 1484 OFFCURVE",
"1119 1478 OFFCURVE",
"1119 1466 CURVE SMOOTH",
"1119 458 LINE SMOOTH",
"1119 194 OFFCURVE",
"985 64 OFFCURVE",
"709 64 CURVE SMOOTH",
"437 64 OFFCURVE",
"303 192 OFFCURVE",
"303 452 CURVE SMOOTH",
"303 1464 LINE SMOOTH",
"303 1480 OFFCURVE",
"299 1484 OFFCURVE",
"283 1484 CURVE SMOOTH",
"227 1484 LINE SMOOTH",
"215 1484 OFFCURVE",
"211 1478 OFFCURVE",
"211 1462 CURVE SMOOTH",
"211 490 LINE SMOOTH",
"211 142 OFFCURVE",
"369 -20 OFFCURVE",
"705 -20 CURVE SMOOTH",
"1037 -20 OFFCURVE",
"1199 138 OFFCURVE",
"1199 460 CURVE SMOOTH"
);
}
);
};
layerId = "91AB5BCA-6A50-42DA-B2F7-8181BF189245";
paths = (
{
closed = 1;
nodes = (
"881 -20 OFFCURVE",
"1047 134 OFFCURVE",
"1091 448 CURVE SMOOTH",
"1230 1446 LINE",
"1159 1446 LINE",
"1019 444 LINE SMOOTH",
"983 188 OFFCURVE",
"841 56 OFFCURVE",
"595 56 CURVE SMOOTH",
"351 56 OFFCURVE",
"253 192 OFFCURVE",
"289 444 CURVE SMOOTH",
"429 1446 LINE",
"351 1446 LINE",
"215 478 LINE SMOOTH",
"167 138 OFFCURVE",
"283 -20 OFFCURVE",
"585 -20 CURVE SMOOTH"
);
}
);
width = 1276;
}
);
leftKerningGroup = U;
leftMetricsKey = H;
rightKerningGroup = U;
rightMetricsKey = "=H/1.25";
unicode = 0055;
},
{
glyphname = V;
lastChange = "2019-06-10 23:33:08 +0000";
layers = (
{
background = {
paths = (
{
closed = 1;
nodes = (
"1117 1484 LINE SMOOTH",
"1093 1484 OFFCURVE",
"1071 1468 OFFCURVE",
"1064 1442 CURVE SMOOTH",
"814 566 LINE SMOOTH",
"809 546 OFFCURVE",
"801 546 OFFCURVE",
"795 564 CURVE SMOOTH",
"527 1442 LINE SMOOTH",
"519 1468 OFFCURVE",
"501 1484 OFFCURVE",
"477 1484 CURVE SMOOTH",
"91 1484 LINE SMOOTH",
"59 1484 OFFCURVE",
"41 1456 OFFCURVE",
"53 1426 CURVE SMOOTH",
"517 50 LINE SMOOTH",
"527 16 OFFCURVE",
"551 0 OFFCURVE",
"591 0 CURVE SMOOTH",
"915 0 LINE SMOOTH",
"955 0 OFFCURVE",
"979 16 OFFCURVE",
"989 50 CURVE SMOOTH",
"1453 1426 LINE SMOOTH",
"1463 1456 OFFCURVE",
"1447 1484 OFFCURVE",
"1415 1484 CURVE SMOOTH"
);
}
);
};
guideLines = (
{
angle = -108.62;
position = "{385, 211}";
}
);
layerId = "258ED206-D907-4350-8EBA-CBDDA1C16BF7";
paths = (
{
closed = 1;
nodes = (
"851 0 LINE",
"1557 1446 LINE",
"1190 1446 LINE",
"709 456 LINE",
"525 1446 LINE",
"161 1446 LINE",
"427 0 LINE"
);
}
);
width = 1455;
},
{
background = {
paths = (
{
closed = 1;
nodes = (
"1126 1484 LINE SMOOTH",
"1114 1484 OFFCURVE",
"1108 1480 OFFCURVE",
"1104 1470 CURVE SMOOTH",
"616 130 LINE SMOOTH",
"606 102 OFFCURVE",
"594 102 OFFCURVE",
"584 128 CURVE SMOOTH",
"110 1468 LINE SMOOTH",
"106 1480 OFFCURVE",
"101 1484 OFFCURVE",
"84 1484 CURVE SMOOTH",
"38 1484 LINE SMOOTH",
"24 1484 OFFCURVE",
"19 1476 OFFCURVE",
"22 1464 CURVE SMOOTH",
"532 20 LINE SMOOTH",
"536 6 OFFCURVE",
"548 0 OFFCURVE",
"570 0 CURVE SMOOTH",
"634 0 LINE SMOOTH",
"652 0 OFFCURVE",
"660 6 OFFCURVE",
"666 22 CURVE SMOOTH",
"1190 1466 LINE SMOOTH",
"1194 1476 OFFCURVE",
"1188 1484 OFFCURVE",
"1176 1484 CURVE SMOOTH"
);
}
);
};
layerId = "91AB5BCA-6A50-42DA-B2F7-8181BF189245";
paths = (
{
closed = 1;
nodes = (
"534 0 LINE",
"1220 1446 LINE",
"1143 1446 LINE",
"492 82 LINE",
"238 1446 LINE",
"160 1446 LINE",
"428 0 LINE"
);
}
);
width = 1118;
}
);
leftKerningGroup = V;
leftMetricsKey = T;
rightKerningGroup = V;
rightMetricsKey = T;
unicode = 0056;
},
{
glyphname = W;
lastChange = "2019-06-10 23:33:08 +0000";
layers = (
{
anchors = (
{
name = top;
position = "{1106, 1446}";
}
);
background = {
anchors = (
{
name = top;
position = "{1053, 1484}";
}
);
paths = (
{
closed = 1;
nodes = (
"1813 1484 LINE SMOOTH",
"1771 1484 OFFCURVE",
"1755 1468 OFFCURVE",
"1749 1442 CURVE SMOOTH",
"1545 678 LINE SMOOTH",
"1541 662 OFFCURVE",
"1527 666 OFFCURVE",
"1522 682 CURVE SMOOTH",
"1303 1442 LINE SMOOTH",
"1295 1468 OFFCURVE",
"1281 1484 OFFCURVE",
"1239 1484 CURVE SMOOTH",
"959 1484 LINE SMOOTH",
"917 1484 OFFCURVE",
"901 1468 OFFCURVE",
"895 1442 CURVE SMOOTH",
"685 692 LINE SMOOTH",
"679 670 OFFCURVE",
"669 670 OFFCURVE",
"661 700 CURVE SMOOTH",
"449 1442 LINE SMOOTH",
"440 1468 OFFCURVE",
"427 1484 OFFCURVE",
"385 1484 CURVE SMOOTH",
"55 1484 LINE SMOOTH",
"3 1484 OFFCURVE",
"-18 1450 OFFCURVE",
"-5 1404 CURVE SMOOTH",
"403 50 LINE SMOOTH",
"415 16 OFFCURVE",
"435 0 OFFCURVE",
"475 0 CURVE SMOOTH",
"761 0 LINE SMOOTH",
"803 0 OFFCURVE",
"823 16 OFFCURVE",
"833 50 CURVE SMOOTH",
"1039 750 LINE SMOOTH",
"1053 790 OFFCURVE",
"1063 786 OFFCURVE",
"1071 754 CURVE SMOOTH",
"1279 50 LINE SMOOTH",
"1289 16 OFFCURVE",
"1311 0 OFFCURVE",
"1351 0 CURVE SMOOTH",
"1627 0 LINE SMOOTH",
"1667 0 OFFCURVE",
"1687 16 OFFCURVE",
"1699 50 CURVE SMOOTH",
"2105 1404 LINE SMOOTH",
"2117 1450 OFFCURVE",
"2097 1484 OFFCURVE",
"2045 1484 CURVE SMOOTH"
);
}
);
};
guideLines = (
{
angle = -73.94;
position = "{228, 670}";
},
{
angle = 74.3834;
position = "{431, 670}";
}
);
layerId = "258ED206-D907-4350-8EBA-CBDDA1C16BF7";
paths = (
{
closed = 1;
nodes = (
"659 0 LINE",
"1007 786 LINE",
"1115 0 LINE",
"1403 0 LINE",
"2053 1446 LINE",
"1679 1446 LINE",
"1347 670 LINE",
"1241 1446 LINE",
"971 1446 LINE",
"639 670 LINE",
"535 1446 LINE",
"161 1446 LINE",
"375 0 LINE"
);
}
);
width = 1951;
},
{
anchors = (
{
name = top;
position = "{1003, 1446}";
}
);
background = {
anchors = (
{
name = top;
position = "{939, 1484}";
}
);
guideLines = (
{
position = "{4, 125}";
showMeasurement = 1;
}
);
paths = (
{
closed = 1;
nodes = (
"1782 1484 LINE SMOOTH",
"1771 1484 OFFCURVE",
"1761 1480 OFFCURVE",
"1759 1470 CURVE SMOOTH",
"1381 144 LINE SMOOTH",
"1372 116 OFFCURVE",
"1364 116 OFFCURVE",
"1356 142 CURVE SMOOTH",
"986 1468 LINE SMOOTH",
"982 1480 OFFCURVE",
"979 1484 OFFCURVE",
"963 1484 CURVE SMOOTH",
"912 1484 LINE SMOOTH",
"895 1484 OFFCURVE",
"889 1476 OFFCURVE",
"887 1470 CURVE SMOOTH",
"509 144 LINE SMOOTH",
"500 116 OFFCURVE",
"492 116 OFFCURVE",
"484 142 CURVE SMOOTH",
"114 1468 LINE SMOOTH",
"110 1480 OFFCURVE",
"106 1484 OFFCURVE",
"91 1484 CURVE SMOOTH",
"40 1484 LINE SMOOTH",
"26 1484 OFFCURVE",
"21 1476 OFFCURVE",
"24 1464 CURVE SMOOTH",
"429 20 LINE SMOOTH",
"433 6 OFFCURVE",
"444 0 OFFCURVE",
"465 0 CURVE SMOOTH",
"528 0 LINE SMOOTH",
"549 0 OFFCURVE",
"557 6 OFFCURVE",
"561 22 CURVE SMOOTH",
"931 1316 LINE SMOOTH",
"933 1324 OFFCURVE",
"937 1324 OFFCURVE",
"939 1316 CURVE SMOOTH",
"1301 20 LINE SMOOTH",
"1305 6 OFFCURVE",
"1316 0 OFFCURVE",
"1337 0 CURVE SMOOTH",
"1400 0 LINE SMOOTH",
"1421 0 OFFCURVE",
"1429 6 OFFCURVE",
"1433 22 CURVE SMOOTH",
"1847 1466 LINE SMOOTH",
"1849 1476 OFFCURVE",
"1845 1484 OFFCURVE",
"1832 1484 CURVE SMOOTH"
);
}
);
};
guideLines = (
{
position = "{77, 116}";
showMeasurement = 1;
}
);
layerId = "91AB5BCA-6A50-42DA-B2F7-8181BF189245";
leftMetricsKey = "=X/2";
rightMetricsKey = "=X/2";
paths = (
{
closed = 1;
nodes = (
"456 0 LINE",
"979 1296 LINE",
"1131 0 LINE",
"1230 0 LINE",
"1816 1446 LINE",
"1738 1446 LINE",
"1196 98 LINE",
"1036 1446 LINE",
"965 1446 LINE",
"423 98 LINE",
"272 1446 LINE",
"190 1446 LINE",
"360 0 LINE"
);
}
);
width = 1743;
}
);
leftKerningGroup = W;
leftMetricsKey = X;
rightKerningGroup = W;
rightMetricsKey = X;
unicode = 0057;
},
{
glyphname = X;
lastChange = "2019-06-10 23:32:23 +0000";
layers = (
{
background = {
paths = (
{
closed = 1;
nodes = (
"1005 806 LINE",
"1449 1484 LINE",
"1015 1484 LINE",
"787 1082 LINE",
"559 1484 LINE",
"49 1484 LINE",
"521 748 LINE",
"103 102 LINE SMOOTH",
"51 22 OFFCURVE",
"73 0 OFFCURVE",
"129 0 CURVE SMOOTH",
"477 0 LINE",
"743 466 LINE",
"1015 0 LINE",
"1435 0 LINE SMOOTH",
"1491 0 OFFCURVE",
"1513 24 OFFCURVE",
"1463 102 CURVE SMOOTH"
);
}
);
};
layerId = "258ED206-D907-4350-8EBA-CBDDA1C16BF7";
paths = (
{
closed = 1;
nodes = (
"369 0 LINE",
"695 454 LINE",
"891 0 LINE",
"1373 0 LINE",
"987 786 LINE",
"1515 1446 LINE",
"1111 1446 LINE",
"831 1054 LINE",
"667 1446 LINE",
"189 1446 LINE",
"537 730 LINE",
"-43 0 LINE"
);
}
);
width = 1475;
},
{
background = {
guideLines = (
{
angle = 90;
position = "{95, 437}";
},
{
angle = 90;
position = "{606, 372}";
},
{
position = "{61, 716}";
showMeasurement = 1;
},
{
position = "{55, 32}";
showMeasurement = 1;
},
{
position = "{125, 454}";
showMeasurement = 1;
},
{
position = "{123, 290}";
showMeasurement = 1;
},
{
angle = 236.602;
position = "{338, 374}";
},
{
angle = 123.344;
position = "{395, 374}";
},
{
angle = 56.5817;
position = "{383, 370}";
},
{
angle = 123.4;
position = "{348, 370}";
}
);
paths = (
{
closed = 1;
nodes = (
"735 748 LINE SMOOTH",
"728 760 OFFCURVE",
"729 768 OFFCURVE",
"737 780 CURVE SMOOTH",
"1205 1472 LINE SMOOTH",
"1209 1478 OFFCURVE",
"1209 1484 OFFCURVE",
"1201 1484 CURVE SMOOTH",
"1119 1484 LINE SMOOTH",
"1111 1484 OFFCURVE",
"1107 1482 OFFCURVE",
"1104 1476 CURVE SMOOTH",
"689 862 LINE SMOOTH",
"675 842 OFFCURVE",
"667 844 OFFCURVE",
"655 860 CURVE SMOOTH",
"241 1476 LINE SMOOTH",
"237 1482 OFFCURVE",
"235 1484 OFFCURVE",
"223 1484 CURVE SMOOTH",
"146 1484 LINE SMOOTH",
"137 1484 OFFCURVE",
"135 1474 OFFCURVE",
"139 1468 CURVE SMOOTH",
"604 782 LINE SMOOTH",
"613 766 OFFCURVE",
"615 754 OFFCURVE",
"605 740 CURVE SMOOTH",
"121 20 LINE SMOOTH",
"111 4 OFFCURVE",
"115 0 OFFCURVE",
"127 0 CURVE SMOOTH",
"199 0 LINE SMOOTH",
"205 0 OFFCURVE",
"211 2 OFFCURVE",
"215 8 CURVE SMOOTH",
"649 648 LINE SMOOTH",
"669 678 OFFCURVE",
"677 676 OFFCURVE",
"691 654 CURVE SMOOTH",
"1131 8 LINE SMOOTH",
"1135 2 OFFCURVE",
"1137 0 OFFCURVE",
"1146 0 CURVE SMOOTH",
"1217 0 LINE SMOOTH",
"1229 0 OFFCURVE",
"1237 4 OFFCURVE",
"1225 20 CURVE SMOOTH"
);
}
);
};
guideLines = (
{
angle = 90;
position = "{166, 405}";
},
{
angle = 90;
position = "{616, 345}";
},
{
position = "{136, 664}";
showMeasurement = 1;
},
{
position = "{131, 29}";
showMeasurement = 1;
},
{
position = "{192, 421}";
showMeasurement = 1;
},
{
position = "{190, 269}";
showMeasurement = 1;
},
{
angle = 236.602;
position = "{380, 347}";
},
{
angle = 123.344;
position = "{429, 347}";
},
{
angle = 56.5817;
position = "{420, 343}";
},
{
angle = 123.4;
position = "{388, 343}";
}
);
layerId = "91AB5BCA-6A50-42DA-B2F7-8181BF189245";
paths = (
{
closed = 1;
nodes = (
"137 0 LINE",
"647 664 LINE",
"969 0 LINE",
"1062 0 LINE",
"703 742 LINE",
"1241 1446 LINE",
"1149 1446 LINE",
"667 816 LINE",
"365 1446 LINE",
"270 1446 LINE",
"609 742 LINE",
"45 0 LINE"
);
}
);
width = 1251;
}
);
leftKerningGroup = X;
rightKerningGroup = X;
unicode = 0058;
},
{
glyphname = Y;
lastChange = "2019-06-10 23:33:08 +0000";
layers = (
{
anchors = (
{
name = bottom;
position = "{627, 0}";
},
{
name = top;
position = "{829, 1446}";
}
);
background = {
anchors = (
{
name = top;
position = "{793, 1484}";
}
);
paths = (
{
closed = 1;
nodes = (
"1140 1484 LINE SMOOTH",
"1102 1484 OFFCURVE",
"1087 1476 OFFCURVE",
"1071 1442 CURVE SMOOTH",
"829 996 LINE SMOOTH",
"815 972 OFFCURVE",
"808 974 OFFCURVE",
"795 998 CURVE SMOOTH",
"549 1442 LINE SMOOTH",
"531 1474 OFFCURVE",
"521 1484 OFFCURVE",
"481 1484 CURVE SMOOTH",
"79 1484 LINE SMOOTH",
"37 1484 OFFCURVE",
"23 1460 OFFCURVE",
"43 1428 CURVE SMOOTH",
"512 664 LINE SMOOTH",
"529 634 OFFCURVE",
"539 618 OFFCURVE",
"539 576 CURVE SMOOTH",
"539 50 LINE SMOOTH",
"539 16 OFFCURVE",
"552 0 OFFCURVE",
"591 0 CURVE SMOOTH",
"928 0 LINE SMOOTH",
"974 0 OFFCURVE",
"993 16 OFFCURVE",
"993 58 CURVE SMOOTH",
"993 550 LINE SMOOTH",
"993 634 OFFCURVE",
"995 654 OFFCURVE",
"1014 682 CURVE SMOOTH",
"1481 1438 LINE SMOOTH",
"1497 1464 OFFCURVE",
"1487 1484 OFFCURVE",
"1453 1484 CURVE SMOOTH"
);
}
);
};
guideLines = (
{
angle = 58.823;
position = "{507, 670}";
}
);
layerId = "258ED206-D907-4350-8EBA-CBDDA1C16BF7";
leftMetricsKey = "=X/2";
rightMetricsKey = "=X/2";
paths = (
{
closed = 1;
nodes = (
"819 0 LINE",
"911 602 LINE",
"1552 1446 LINE",
"1129 1446 LINE",
"770 932 LINE",
"563 1446 LINE",
"146 1446 LINE",
"523 602 LINE",
"434 0 LINE"
);
}
);
width = 1436;
},
{
anchors = (
{
name = bottom;
position = "{438, 0}";
},
{
name = top;
position = "{638, 1450}";
}
);
background = {
anchors = (
{
name = top;
position = "{544, 1484}";
}
);
paths = (
{
closed = 1;
nodes = (
"1028 1484 LINE SMOOTH",
"1010 1484 OFFCURVE",
"1006 1482 OFFCURVE",
"996 1466 CURVE SMOOTH",
"578 748 LINE SMOOTH",
"563 722 OFFCURVE",
"548 720 OFFCURVE",
"530 752 CURVE SMOOTH",
"110 1466 LINE SMOOTH",
"103 1480 OFFCURVE",
"96 1484 OFFCURVE",
"78 1484 CURVE SMOOTH",
"32 1484 LINE SMOOTH",
"12 1484 OFFCURVE",
"8 1474 OFFCURVE",
"17 1460 CURVE SMOOTH",
"504 630 LINE SMOOTH",
"512 616 OFFCURVE",
"515 610 OFFCURVE",
"515 590 CURVE SMOOTH",
"515 22 LINE SMOOTH",
"515 8 OFFCURVE",
"521 0 OFFCURVE",
"538 0 CURVE SMOOTH",
"576 0 LINE SMOOTH",
"599 0 OFFCURVE",
"606 8 OFFCURVE",
"606 26 CURVE SMOOTH",
"606 612 LINE SMOOTH",
"606 632 OFFCURVE",
"606 640 OFFCURVE",
"614 652 CURVE SMOOTH",
"1092 1462 LINE SMOOTH",
"1101 1474 OFFCURVE",
"1094 1484 OFFCURVE",
"1080 1484 CURVE SMOOTH"
);
}
);
};
guideLines = (
{
angle = 239.8907;
position = "{232, 335}";
},
{
angle = -59.5603;
position = "{197, 328}";
}
);
layerId = "91AB5BCA-6A50-42DA-B2F7-8181BF189245";
paths = (
{
closed = 1;
nodes = (
"473 0 LINE",
"561 622 LINE",
"1114 1446 LINE",
"1034 1446 LINE",
"536 702 LINE",
"240 1446 LINE",
"160 1446 LINE",
"488 624 LINE",
"402 0 LINE"
);
}
);
width = 1012;
}
);
leftKerningGroup = Y;
leftMetricsKey = "=X/4";
rightKerningGroup = Y;
rightMetricsKey = "=X/4";
unicode = 0059;
},
{
glyphname = Z;
lastChange = "2019-06-10 23:33:08 +0000";
layers = (
{
anchors = (
{
name = bottom;
position = "{640, 0}";
},
{
name = top;
position = "{906, 1446}";
}
);
background = {
anchors = (
{
name = bottom;
position = "{745, 0}";
},
{
name = top;
position = "{793, 1484}";
}
);
paths = (
{
closed = 1;
nodes = (
"1406 0 LINE",
"1406 332 LINE",
"724 332 LINE",
"1417 1308 LINE",
"1417 1484 LINE",
"169 1484 LINE",
"169 1154 LINE",
"784 1154 LINE",
"104 182 LINE",
"104 0 LINE"
);
}
);
};
layerId = "258ED206-D907-4350-8EBA-CBDDA1C16BF7";
paths = (
{
closed = 1;
nodes = (
"1240 0 LINE",
"1289 324 LINE",
"610 324 LINE",
"1446 1276 LINE",
"1472 1446 LINE",
"302 1446 LINE",
"251 1126 LINE",
"866 1126 LINE",
"45 178 LINE",
"18 0 LINE"
);
}
);
width = 1409;
},
{
anchors = (
{
name = bottom;
position = "{534, 0}";
},
{
name = top;
position = "{724, 1446}";
}
);
background = {
anchors = (
{
name = bottom;
position = "{656, 0}";
},
{
name = top;
position = "{643, 1484}";
}
);
paths = (
{
closed = 1;
nodes = (
"1120 0 LINE",
"1120 80 LINE",
"252 80 LINE",
"1120 1430 LINE",
"1120 1484 LINE",
"162 1484 LINE",
"162 1404 LINE",
"1004 1404 LINE",
"143 56 LINE",
"143 0 LINE"
);
}
);
};
guideLines = (
{
angle = 237.1304;
position = "{495, 659}";
}
);
layerId = "91AB5BCA-6A50-42DA-B2F7-8181BF189245";
paths = (
{
closed = 1;
nodes = (
"950 0 LINE",
"962 78 LINE",
"176 78 LINE",
"1146 1386 LINE",
"1154 1446 LINE",
"294 1446 LINE",
"284 1368 LINE",
"1048 1368 LINE",
"84 62 LINE",
"74 0 LINE"
);
}
);
width = 1134;
}
);
leftKerningGroup = Z;
leftMetricsKey = "=H/1.5";
rightKerningGroup = Z;
rightMetricsKey = "=H/2";
unicode = 005A;
},
{
glyphname = a;
lastChange = "2019-06-10 23:33:08 +0000";
layers = (
{
anchors = (
{
name = bottom;
position = "{508, 0}";
},
{
name = ogonek;
position = "{922, 20}";
},
{
name = top;
position = "{668, 1034}";
}
);
background = {
anchors = (
{
name = ogonek;
position = "{988, 20}";
},
{
name = top;
position = "{563, 1060}";
}
);
guideLines = (
{
angle = 90;
position = "{336, 102}";
}
);
paths = (
{
closed = 1;
nodes = (
"649 112 OFFCURVE",
"666 110 OFFCURVE",
"670 84 CURVE SMOOTH",
"672 70 LINE SMOOTH",
"678 32 OFFCURVE",
"687 0 OFFCURVE",
"724 0 CURVE SMOOTH",
"998 0 LINE SMOOTH",
"1036 0 OFFCURVE",
"1044 14 OFFCURVE",
"1044 54 CURVE SMOOTH",
"1044 750 LINE SMOOTH",
"1044 946 OFFCURVE",
"934 1080 OFFCURVE",
"563 1080 CURVE SMOOTH",
"302 1080 OFFCURVE",
"120 1012 OFFCURVE",
"59 842 CURVE SMOOTH",
"42 792 OFFCURVE",
"54 782 OFFCURVE",
"74 778 CURVE SMOOTH",
"336 726 LINE SMOOTH",
"372 720 OFFCURVE",
"380 726 OFFCURVE",
"390 748 CURVE SMOOTH",
"424 822 OFFCURVE",
"490 842 OFFCURVE",
"546 842 CURVE SMOOTH",
"626 842 OFFCURVE",
"664 800 OFFCURVE",
"664 726 CURVE SMOOTH",
"664 692 LINE SMOOTH",
"664 668 OFFCURVE",
"643 664 OFFCURVE",
"634 664 CURVE SMOOTH",
"620 664 LINE SMOOTH",
"242 664 OFFCURVE",
"6 506 OFFCURVE",
"6 272 CURVE SMOOTH",
"6 106 OFFCURVE",
"126 -20 OFFCURVE",
"326 -20 CURVE SMOOTH",
"450 -20 OFFCURVE",
"544 24 OFFCURVE",
"616 84 CURVE SMOOTH"
);
},
{
closed = 1;
nodes = (
"664 342 LINE SMOOTH",
"664 312 OFFCURVE",
"642 290 OFFCURVE",
"618 270 CURVE SMOOTH",
"596 252 OFFCURVE",
"559 232 OFFCURVE",
"508 232 CURVE SMOOTH",
"435 232 OFFCURVE",
"393 270 OFFCURVE",
"393 326 CURVE SMOOTH",
"393 438 OFFCURVE",
"561 484 OFFCURVE",
"626 484 CURVE SMOOTH",
"634 484 LINE SMOOTH",
"658 484 OFFCURVE",
"664 472 OFFCURVE",
"664 448 CURVE SMOOTH"
);
}
);
};
guideLines = (
{
angle = 270;
position = "{333, 93}";
},
{
angle = 270;
position = "{298, 516}";
}
);
layerId = "258ED206-D907-4350-8EBA-CBDDA1C16BF7";
paths = (
{
closed = 1;
nodes = (
"470 -20 OFFCURVE",
"561 24 OFFCURVE",
"645 164 CURVE",
"654 0 LINE",
"974 0 LINE",
"1086 732 LINE SMOOTH",
"1114 922 OFFCURVE",
"1025 1054 OFFCURVE",
"670 1054 CURVE SMOOTH",
"404 1054 OFFCURVE",
"176 956 OFFCURVE",
"126 712 CURVE",
"439 712 LINE",
"481 782 OFFCURVE",
"559 800 OFFCURVE",
"614 802 CURVE SMOOTH",
"689 804 OFFCURVE",
"722 774 OFFCURVE",
"712 708 CURVE SMOOTH",
"706 664 LINE",
"626 664 LINE SMOOTH",
"252 664 OFFCURVE",
"59 534 OFFCURVE",
"25 310 CURVE SMOOTH",
"-6 96 OFFCURVE",
"136 -20 OFFCURVE",
"332 -20 CURVE SMOOTH"
);
},
{
closed = 1;
nodes = (
"437 226 OFFCURVE",
"384 272 OFFCURVE",
"395 350 CURVE SMOOTH",
"410 452 OFFCURVE",
"554 480 OFFCURVE",
"616 480 CURVE SMOOTH",
"678 480 LINE",
"658 350 LINE",
"645 284 OFFCURVE",
"580 226 OFFCURVE",
"504 226 CURVE SMOOTH"
);
}
);
width = 1162;
},
{
anchors = (
{
name = bottom;
position = "{450, 0}";
},
{
name = ogonek;
position = "{784, 28}";
},
{
name = top;
position = "{593, 1034}";
}
);
background = {
anchors = (
{
name = ogonek;
position = "{910, 28}";
},
{
name = top;
position = "{539, 1060}";
}
);
paths = (
{
closed = 1;
nodes = (
"833 156 OFFCURVE",
"841 154 OFFCURVE",
"843 140 CURVE SMOOTH",
"847 18 LINE SMOOTH",
"847 4 OFFCURVE",
"853 0 OFFCURVE",
"866 0 CURVE SMOOTH",
"902 0 LINE SMOOTH",
"913 0 OFFCURVE",
"921 4 OFFCURVE",
"921 20 CURVE SMOOTH",
"921 734 LINE SMOOTH",
"921 950 OFFCURVE",
"774 1080 OFFCURVE",
"547 1080 CURVE SMOOTH",
"358 1080 OFFCURVE",
"223 986 OFFCURVE",
"139 862 CURVE SMOOTH",
"131 852 OFFCURVE",
"133 846 OFFCURVE",
"139 842 CURVE SMOOTH",
"188 812 LINE SMOOTH",
"196 806 OFFCURVE",
"200 810 OFFCURVE",
"207 820 CURVE SMOOTH",
"297 940 OFFCURVE",
"406 1004 OFFCURVE",
"543 1004 CURVE SMOOTH",
"723 1004 OFFCURVE",
"841 896 OFFCURVE",
"841 726 CURVE SMOOTH",
"841 664 LINE SMOOTH",
"841 646 OFFCURVE",
"829 636 OFFCURVE",
"807 634 CURVE SMOOTH",
"597 616 LINE SMOOTH",
"269 588 OFFCURVE",
"103 472 OFFCURVE",
"103 270 CURVE SMOOTH",
"103 90 OFFCURVE",
"234 -20 OFFCURVE",
"444 -20 CURVE SMOOTH",
"591 -20 OFFCURVE",
"713 34 OFFCURVE",
"824 144 CURVE SMOOTH"
);
},
{
closed = 1;
nodes = (
"841 342 LINE SMOOTH",
"841 282 OFFCURVE",
"801 214 OFFCURVE",
"727 154 CURVE SMOOTH",
"652 94 OFFCURVE",
"553 56 OFFCURVE",
"455 56 CURVE SMOOTH",
"293 56 OFFCURVE",
"188 138 OFFCURVE",
"188 276 CURVE SMOOTH",
"188 430 OFFCURVE",
"322 522 OFFCURVE",
"635 546 CURVE SMOOTH",
"814 560 LINE SMOOTH",
"831 562 OFFCURVE",
"841 554 OFFCURVE",
"841 532 CURVE SMOOTH"
);
}
);
};
guideLines = (
{
position = "{371, 208}";
showMeasurement = 1;
}
);
hints = (
{
horizontal = 1;
place = "{7018, 302}";
type = Stem;
}
);
layerId = "91AB5BCA-6A50-42DA-B2F7-8181BF189245";
paths = (
{
closed = 1;
nodes = (
"499 -20 OFFCURVE",
"641 28 OFFCURVE",
"749 200 CURVE",
"725 0 LINE",
"791 0 LINE",
"891 716 LINE SMOOTH",
"921 926 OFFCURVE",
"797 1054 OFFCURVE",
"595 1054 CURVE SMOOTH",
"373 1054 OFFCURVE",
"232 904 OFFCURVE",
"202 758 CURVE",
"280 758 LINE",
"320 900 OFFCURVE",
"444 978 OFFCURVE",
"581 978 CURVE SMOOTH",
"744 978 OFFCURVE",
"843 880 OFFCURVE",
"820 714 CURVE SMOOTH",
"805 614 LINE",
"585 606 LINE SMOOTH",
"267 594 OFFCURVE",
"125 496 OFFCURVE",
"93 264 CURVE SMOOTH",
"70 88 OFFCURVE",
"171 -20 OFFCURVE",
"360 -20 CURVE SMOOTH"
);
},
{
closed = 1;
nodes = (
"236 54 OFFCURVE",
"152 134 OFFCURVE",
"169 270 CURVE SMOOTH",
"196 450 OFFCURVE",
"305 526 OFFCURVE",
"610 532 CURVE SMOOTH",
"793 536 LINE",
"765 334 LINE SMOOTH",
"745 194 OFFCURVE",
"539 54 OFFCURVE",
"381 54 CURVE SMOOTH"
);
}
);
width = 1062;
}
);
leftKerningGroup = a;
leftMetricsKey = "=|o*1.1";
rightKerningGroup = n;
rightMetricsKey = "=n*1.2";
unicode = 0061;
},
{
glyphname = ae;
lastChange = "2019-06-10 23:33:08 +0000";
layers = (
{
anchors = (
{
name = top;
position = "{984, 1034}";
}
);
background = {
anchors = (
{
name = top;
position = "{890, 1060}";
}
);
paths = (
{
closed = 1;
nodes = (
"1734 458 LINE SMOOTH",
"1768 460 OFFCURVE",
"1770 474 OFFCURVE",
"1770 508 CURVE SMOOTH",
"1770 870 OFFCURVE",
"1540 1080 OFFCURVE",
"1226 1080 CURVE SMOOTH",
"1122 1080 OFFCURVE",
"1021 1052 OFFCURVE",
"936 1000 CURVE",
"860 1050 OFFCURVE",
"742 1078 OFFCURVE",
"563 1080 CURVE SMOOTH",
"258 1080 OFFCURVE",
"144 998 OFFCURVE",
"68 842 CURVE SMOOTH",
"58 820 OFFCURVE",
"63 782 OFFCURVE",
"82 778 CURVE SMOOTH",
"344 726 LINE SMOOTH",
"380 720 OFFCURVE",
"388 722 OFFCURVE",
"397 748 CURVE",
"432 822 OFFCURVE",
"498 842 OFFCURVE",
"554 842 CURVE SMOOTH",
"634 842 OFFCURVE",
"672 800 OFFCURVE",
"672 726 CURVE SMOOTH",
"672 692 LINE SMOOTH",
"672 668 OFFCURVE",
"652 664 OFFCURVE",
"636 664 CURVE",
"590 662 LINE SMOOTH",
"206 644 OFFCURVE",
"14 500 OFFCURVE",
"14 286 CURVE SMOOTH",
"14 104 OFFCURVE",
"134 -20 OFFCURVE",
"360 -20 CURVE SMOOTH",
"544 -20 OFFCURVE",
"674 24 OFFCURVE",
"796 142 CURVE SMOOTH",
"804 150 OFFCURVE",
"810 150 OFFCURVE",
"818 142 CURVE SMOOTH",
"918 40 OFFCURVE",
"1065 -20 OFFCURVE",
"1234 -20 CURVE SMOOTH",
"1458 -20 OFFCURVE",
"1594 34 OFFCURVE",
"1738 236 CURVE",
"1756 258 OFFCURVE",
"1750 276 OFFCURVE",
"1729 284 CURVE SMOOTH",
"1548 358 LINE SMOOTH",
"1521 368 OFFCURVE",
"1516 366 OFFCURVE",
"1506 356 CURVE SMOOTH",
"1418 270 OFFCURVE",
"1355 244 OFFCURVE",
"1288 244 CURVE SMOOTH",
"1172 244 OFFCURVE",
"1082 302 OFFCURVE",
"1082 424 CURVE SMOOTH",
"1082 448 OFFCURVE",
"1092 458 OFFCURVE",
"1112 458 CURVE SMOOTH"
);
},
{
closed = 1;
nodes = (
"1344 846 OFFCURVE",
"1382 744 OFFCURVE",
"1382 692 CURVE SMOOTH",
"1382 668 OFFCURVE",
"1374 664 OFFCURVE",
"1348 664 CURVE SMOOTH",
"1088 666 LINE",
"1086 790 OFFCURVE",
"1162 846 OFFCURVE",
"1244 846 CURVE SMOOTH"
);
},
{
closed = 1;
nodes = (
"672 320 LINE SMOOTH",
"672 254 OFFCURVE",
"598 216 OFFCURVE",
"521 216 CURVE SMOOTH",
"444 216 OFFCURVE",
"402 254 OFFCURVE",
"402 312 CURVE SMOOTH",
"402 410 OFFCURVE",
"532 460 OFFCURVE",
"607 466 CURVE SMOOTH",
"636 468 LINE SMOOTH",
"660 468 OFFCURVE",
"672 456 OFFCURVE",
"672 432 CURVE SMOOTH"
);
}
);
};
layerId = "258ED206-D907-4350-8EBA-CBDDA1C16BF7";
paths = (
{
closed = 1;
nodes = (
"490 -20 OFFCURVE",
"622 24 OFFCURVE",
"758 138 CURVE SMOOTH",
"766 146 OFFCURVE",
"771 146 OFFCURVE",
"778 138 CURVE SMOOTH",
"860 40 OFFCURVE",
"994 -20 OFFCURVE",
"1158 -20 CURVE SMOOTH",
"1384 -20 OFFCURVE",
"1532 40 OFFCURVE",
"1714 264 CURVE",
"1494 360 LINE",
"1388 268 OFFCURVE",
"1320 238 OFFCURVE",
"1248 238 CURVE SMOOTH",
"1138 238 OFFCURVE",
"1060 304 OFFCURVE",
"1082 446 CURVE",
"1748 446 LINE",
"1806 830 OFFCURVE",
"1616 1054 OFFCURVE",
"1312 1054 CURVE SMOOTH",
"1214 1054 OFFCURVE",
"1112 1026 OFFCURVE",
"1020 976 CURVE",
"954 1024 OFFCURVE",
"844 1052 OFFCURVE",
"672 1054 CURVE SMOOTH",
"362 1054 OFFCURVE",
"226 954 OFFCURVE",
"120 766 CURVE",
"444 700 LINE",
"494 796 OFFCURVE",
"568 820 OFFCURVE",
"628 820 CURVE SMOOTH",
"706 820 OFFCURVE",
"734 780 OFFCURVE",
"724 708 CURVE SMOOTH",
"716 650 LINE",
"634 646 LINE SMOOTH",
"260 628 OFFCURVE",
"52 488 OFFCURVE",
"20 278 CURVE SMOOTH",
"-6 102 OFFCURVE",
"92 -20 OFFCURVE",
"312 -20 CURVE SMOOTH"
);
},
{
closed = 1;
nodes = (
"428 210 OFFCURVE",
"394 248 OFFCURVE",
"402 304 CURVE SMOOTH",
"416 400 OFFCURVE",
"550 448 OFFCURVE",
"624 454 CURVE SMOOTH",
"686 458 LINE",
"664 312 LINE SMOOTH",
"654 248 OFFCURVE",
"576 210 OFFCURVE",
"504 210 CURVE SMOOTH"
);
},
{
closed = 1;
nodes = (
"1118 650 LINE",
"1134 770 OFFCURVE",
"1216 824 OFFCURVE",
"1296 824 CURVE SMOOTH",
"1394 824 OFFCURVE",
"1412 708 OFFCURVE",
"1402 648 CURVE"
);
}
);
width = 1812;
},
{
anchors = (
{
name = top;
position = "{912, 1034}";
}
);
background = {
anchors = (
{
name = top;
position = "{880, 1060}";
}
);
paths = (
{
closed = 1;
nodes = (
"1700 508 LINE SMOOTH",
"1728 508 OFFCURVE",
"1736 522 OFFCURVE",
"1736 548 CURVE SMOOTH",
"1736 888 OFFCURVE",
"1552 1080 OFFCURVE",
"1278 1080 CURVE SMOOTH",
"1090 1080 OFFCURVE",
"946 1000 OFFCURVE",
"866 842 CURVE",
"826 1002 OFFCURVE",
"714 1080 OFFCURVE",
"516 1080 CURVE SMOOTH",
"346 1080 OFFCURVE",
"192 1000 OFFCURVE",
"106 862 CURVE SMOOTH",
"100 852 OFFCURVE",
"100 846 OFFCURVE",
"106 842 CURVE SMOOTH",
"150 812 LINE SMOOTH",
"158 806 OFFCURVE",
"162 808 OFFCURVE",
"172 820 CURVE SMOOTH",
"264 940 OFFCURVE",
"372 1004 OFFCURVE",
"500 1004 CURVE SMOOTH",
"700 1004 OFFCURVE",
"808 896 OFFCURVE",
"808 726 CURVE SMOOTH",
"808 664 LINE SMOOTH",
"808 646 OFFCURVE",
"796 636 OFFCURVE",
"772 634 CURVE SMOOTH",
"548 616 LINE SMOOTH",
"222 588 OFFCURVE",
"70 468 OFFCURVE",
"70 272 CURVE SMOOTH",
"70 90 OFFCURVE",
"194 -20 OFFCURVE",
"402 -20 CURVE SMOOTH",
"664 -20 OFFCURVE",
"780 124 OFFCURVE",
"852 216 CURVE SMOOTH",
"856 222 OFFCURVE",
"858 222 OFFCURVE",
"862 216 CURVE SMOOTH",
"920 130 OFFCURVE",
"1028 -20 OFFCURVE",
"1272 -20 CURVE SMOOTH",
"1466 -20 OFFCURVE",
"1628 74 OFFCURVE",
"1696 200 CURVE SMOOTH",
"1702 212 OFFCURVE",
"1700 216 OFFCURVE",
"1694 220 CURVE SMOOTH",
"1650 250 LINE SMOOTH",
"1640 256 OFFCURVE",
"1638 254 OFFCURVE",
"1628 242 CURVE SMOOTH",
"1570 162 OFFCURVE",
"1484 56 OFFCURVE",
"1276 56 CURVE SMOOTH",
"1052 56 OFFCURVE",
"876 268 OFFCURVE",
"876 456 CURVE SMOOTH",
"876 498 OFFCURVE",
"882 506 OFFCURVE",
"916 506 CURVE SMOOTH"
);
},
{
closed = 1;
nodes = (
"1492 1004 OFFCURVE",
"1650 828 OFFCURVE",
"1650 612 CURVE SMOOTH",
"1650 588 OFFCURVE",
"1648 580 OFFCURVE",
"1616 580 CURVE SMOOTH",
"880 582 LINE",
"882 836 OFFCURVE",
"1052 1004 OFFCURVE",
"1272 1004 CURVE SMOOTH"
);
},
{
closed = 1;
nodes = (
"808 354 LINE",
"808 198 OFFCURVE",
"636 68 OFFCURVE",
"422 58 CURVE SMOOTH",
"254 50 OFFCURVE",
"156 142 OFFCURVE",
"156 276 CURVE SMOOTH",
"156 430 OFFCURVE",
"288 520 OFFCURVE",
"588 544 CURVE SMOOTH",
"778 558 LINE SMOOTH",
"804 560 OFFCURVE",
"808 550 OFFCURVE",
"808 530 CURVE SMOOTH"
);
}
);
};
hints = (
{
horizontal = 1;
place = "{7052, 336}";
type = Stem;
}
);
layerId = "91AB5BCA-6A50-42DA-B2F7-8181BF189245";
paths = (
{
closed = 1;
nodes = (
"588 -20 OFFCURVE",
"712 120 OFFCURVE",
"788 210 CURVE SMOOTH",
"794 216 OFFCURVE",
"796 216 OFFCURVE",
"798 210 CURVE SMOOTH",
"838 126 OFFCURVE",
"912 -20 OFFCURVE",
"1132 -20 CURVE SMOOTH",
"1310 -20 OFFCURVE",
"1472 78 OFFCURVE",
"1552 208 CURVE",
"1502 252 LINE",
"1436 166 OFFCURVE",
"1340 54 OFFCURVE",
"1146 54 CURVE SMOOTH",
"946 54 OFFCURVE",
"820 286 OFFCURVE",
"848 494 CURVE",
"1622 496 LINE",
"1672 852 OFFCURVE",
"1534 1054 OFFCURVE",
"1288 1054 CURVE SMOOTH",
"1120 1054 OFFCURVE",
"982 976 OFFCURVE",
"888 820 CURVE",
"872 976 OFFCURVE",
"782 1054 OFFCURVE",
"606 1054 CURVE SMOOTH",
"450 1054 OFFCURVE",
"298 970 OFFCURVE",
"198 826 CURVE",
"248 784 LINE",
"352 910 OFFCURVE",
"462 978 OFFCURVE",
"580 978 CURVE SMOOTH",
"760 978 OFFCURVE",
"842 874 OFFCURVE",
"818 708 CURVE SMOOTH",
"806 620 LINE",
"570 600 LINE SMOOTH",
"276 574 OFFCURVE",
"120 456 OFFCURVE",
"94 266 CURVE SMOOTH",
"68 88 OFFCURVE",
"166 -20 OFFCURVE",
"352 -20 CURVE SMOOTH"
);
},
{
closed = 1;
nodes = (
"228 48 OFFCURVE",
"154 138 OFFCURVE",
"172 270 CURVE SMOOTH",
"192 420 OFFCURVE",
"324 508 OFFCURVE",
"596 530 CURVE SMOOTH",
"796 546 LINE",
"768 346 LINE",
"746 194 OFFCURVE",
"574 66 OFFCURVE",
"380 56 CURVE SMOOTH"
);
},
{
closed = 1;
nodes = (
"864 568 LINE",
"900 816 OFFCURVE",
"1076 978 OFFCURVE",
"1272 978 CURVE SMOOTH",
"1470 978 OFFCURVE",
"1586 794 OFFCURVE",
"1554 566 CURVE"
);
}
);
width = 1754;
}
);
leftKerningGroup = a;
leftMetricsKey = a;
rightKerningGroup = e;
rightMetricsKey = e;
unicode = 00E6;
},
{
glyphname = b;
lastChange = "2019-06-10 23:33:08 +0000";
layers = (
{
background = {
paths = (
{
closed = 1;
nodes = (
"346 0 OFFCURVE",
"361 14 OFFCURVE",
"371 46 CURVE SMOOTH",
"403 140 LINE SMOOTH",
"409 156 OFFCURVE",
"417 158 OFFCURVE",
"430 146 CURVE SMOOTH",
"507 44 OFFCURVE",
"615 -20 OFFCURVE",
"741 -20 CURVE SMOOTH",
"1033 -20 OFFCURVE",
"1195 198 OFFCURVE",
"1195 538 CURVE SMOOTH",
"1195 872 OFFCURVE",
"1043 1080 OFFCURVE",
"783 1080 CURVE SMOOTH",
"693 1080 OFFCURVE",
"611 1054 OFFCURVE",
"529 976 CURVE SMOOTH",
"510 960 OFFCURVE",
"491 960 OFFCURVE",
"491 992 CURVE SMOOTH",
"491 1442 LINE SMOOTH",
"491 1468 OFFCURVE",
"479 1484 OFFCURVE",
"455 1484 CURVE SMOOTH",
"129 1484 LINE SMOOTH",
"107 1484 OFFCURVE",
"91 1468 OFFCURVE",
"91 1438 CURVE SMOOTH",
"91 50 LINE SMOOTH",
"91 16 OFFCURVE",
"104 0 OFFCURVE",
"146 0 CURVE SMOOTH",
"319 0 LINE SMOOTH"
);
},
{
closed = 1;
nodes = (
"531 806 OFFCURVE",
"577 836 OFFCURVE",
"640 836 CURVE SMOOTH",
"737 836 OFFCURVE",
"791 762 OFFCURVE",
"791 530 CURVE SMOOTH",
"791 296 OFFCURVE",
"737 214 OFFCURVE",
"633 214 CURVE SMOOTH",
"549 214 OFFCURVE",
"491 270 OFFCURVE",
"491 370 CURVE SMOOTH",
"491 756 LINE"
);
}
);
};
layerId = "258ED206-D907-4350-8EBA-CBDDA1C16BF7";
paths = (
{
closed = 1;
nodes = (
"934 -20 OFFCURVE",
"1123 194 OFFCURVE",
"1173 524 CURVE SMOOTH",
"1224 850 OFFCURVE",
"1107 1054 OFFCURVE",
"854 1054 CURVE SMOOTH",
"753 1054 OFFCURVE",
"633 1004 OFFCURVE",
"545 878 CURVE",
"638 1486 LINE",
"249 1486 LINE",
"25 0 LINE",
"297 0 LINE",
"357 144 LINE",
"397 32 OFFCURVE",
"521 -20 OFFCURVE",
"649 -20 CURVE SMOOTH"
);
},
{
closed = 1;
nodes = (
"501 252 OFFCURVE",
"463 336 OFFCURVE",
"491 528 CURVE",
"491 528 LINE",
"520 706 OFFCURVE",
"585 780 OFFCURVE",
"673 780 CURVE SMOOTH",
"753 780 OFFCURVE",
"813 736 OFFCURVE",
"781 528 CURVE SMOOTH",
"751 320 OFFCURVE",
"680 252 OFFCURVE",
"587 252 CURVE"
);
}
);
width = 1221;
},
{
background = {
paths = (
{
closed = 1;
nodes = (
"256 0 OFFCURVE",
"262 6 OFFCURVE",
"262 26 CURVE SMOOTH",
"266 128 LINE SMOOTH",
"266 146 OFFCURVE",
"275 148 OFFCURVE",
"286 134 CURVE SMOOTH",
"310 100 OFFCURVE",
"410 -20 OFFCURVE",
"615 -20 CURVE SMOOTH",
"903 -20 OFFCURVE",
"1071 192 OFFCURVE",
"1071 534 CURVE SMOOTH",
"1071 832 OFFCURVE",
"943 1080 OFFCURVE",
"638 1080 CURVE SMOOTH",
"426 1080 OFFCURVE",
"313 964 OFFCURVE",
"294 946 CURVE SMOOTH",
"275 930 OFFCURVE",
"268 930 OFFCURVE",
"268 956 CURVE SMOOTH",
"268 1462 LINE SMOOTH",
"268 1478 OFFCURVE",
"264 1484 OFFCURVE",
"252 1484 CURVE SMOOTH",
"206 1484 LINE SMOOTH",
"193 1484 OFFCURVE",
"188 1478 OFFCURVE",
"188 1464 CURVE SMOOTH",
"188 26 LINE SMOOTH",
"188 6 OFFCURVE",
"193 0 OFFCURVE",
"210 0 CURVE SMOOTH",
"231 0 LINE SMOOTH"
);
},
{
closed = 1;
nodes = (
"348 926 OFFCURVE",
"476 1004 OFFCURVE",
"624 1004 CURVE SMOOTH",
"859 1004 OFFCURVE",
"985 818 OFFCURVE",
"985 534 CURVE SMOOTH",
"985 206 OFFCURVE",
"815 56 OFFCURVE",
"607 56 CURVE SMOOTH",
"439 56 OFFCURVE",
"268 192 OFFCURVE",
"268 354 CURVE SMOOTH",
"268 830 LINE"
);
}
);
};
layerId = "91AB5BCA-6A50-42DA-B2F7-8181BF189245";
paths = (
{
closed = 1;
nodes = (
"773 -20 OFFCURVE",
"932 188 OFFCURVE",
"979 520 CURVE SMOOTH",
"1020 812 OFFCURVE",
"938 1054 OFFCURVE",
"664 1054 CURVE SMOOTH",
"426 1054 OFFCURVE",
"328 884 OFFCURVE",
"304 840 CURVE",
"394 1486 LINE",
"321 1486 LINE",
"113 0 LINE",
"178 0 LINE",
"214 212 LINE",
"222 164 OFFCURVE",
"260 -20 OFFCURVE",
"514 -20 CURVE SMOOTH"
);
},
{
closed = 1;
nodes = (
"325 54 OFFCURVE",
"218 208 OFFCURVE",
"235 356 CURVE",
"279 678 LINE",
"294 722 OFFCURVE",
"357 978 OFFCURVE",
"646 978 CURVE SMOOTH",
"861 978 OFFCURVE",
"941 798 OFFCURVE",
"901 520 CURVE SMOOTH",
"857 200 OFFCURVE",
"710 54 OFFCURVE",
"521 54 CURVE SMOOTH"
);
}
);
width = 1096;
}
);
leftKerningGroup = n;
leftMetricsKey = n;
rightKerningGroup = o;
rightMetricsKey = o;
unicode = 0062;
},
{
glyphname = c;
lastChange = "2019-06-10 23:33:08 +0000";
layers = (
{
anchors = (
{
name = bottom;
position = "{485, 0}";
},
{
name = top;
position = "{646, 1034}";
}
);
background = {
anchors = (
{
name = bottom;
position = "{542, 0}";
},
{
name = top;
position = "{544, 1060}";
}
);
paths = (
{
closed = 1;
nodes = (
"228 1080 OFFCURVE",
"-10 856 OFFCURVE",
"-10 526 CURVE SMOOTH",
"-10 202 OFFCURVE",
"224 -20 OFFCURVE",
"544 -20 CURVE SMOOTH",
"868 -20 OFFCURVE",
"1000 210 OFFCURVE",
"1020 314 CURVE SMOOTH",
"1027 344 OFFCURVE",
"1023 356 OFFCURVE",
"1002 360 CURVE SMOOTH",
"813 396 LINE SMOOTH",
"788 400 OFFCURVE",
"780 396 OFFCURVE",
"773 386 CURVE SMOOTH",
"724 296 OFFCURVE",
"686 228 OFFCURVE",
"576 228 CURVE SMOOTH",
"462 228 OFFCURVE",
"394 308 OFFCURVE",
"394 530 CURVE SMOOTH",
"394 744 OFFCURVE",
"456 828 OFFCURVE",
"554 828 CURVE SMOOTH",
"649 828 OFFCURVE",
"668 752 OFFCURVE",
"676 702 CURVE SMOOTH",
"680 680 OFFCURVE",
"688 672 OFFCURVE",
"710 674 CURVE SMOOTH",
"983 688 LINE SMOOTH",
"1018 690 OFFCURVE",
"1030 706 OFFCURVE",
"1020 740 CURVE SMOOTH",
"987 894 OFFCURVE",
"830 1080 OFFCURVE",
"544 1080 CURVE SMOOTH"
);
}
);
};
guideLines = (
{
angle = -0.5577;
position = "{-483, 167}";
},
{
position = "{521, 123}";
},
{
angle = 3.769;
position = "{416, 307}";
}
);
layerId = "258ED206-D907-4350-8EBA-CBDDA1C16BF7";
paths = (
{
closed = 1;
nodes = (
"766 -20 OFFCURVE",
"962 180 OFFCURVE",
"994 400 CURVE",
"689 400 LINE",
"678 358 OFFCURVE",
"634 248 OFFCURVE",
"536 248 CURVE SMOOTH",
"438 248 OFFCURVE",
"378 346 OFFCURVE",
"403 516 CURVE SMOOTH",
"430 682 OFFCURVE",
"508 766 OFFCURVE",
"607 766 CURVE SMOOTH",
"706 766 OFFCURVE",
"720 670 OFFCURVE",
"718 612 CURVE",
"1032 612 LINE",
"1062 844 OFFCURVE",
"939 1054 OFFCURVE",
"647 1054 CURVE SMOOTH",
"350 1054 OFFCURVE",
"96 832 OFFCURVE",
"48 512 CURVE SMOOTH",
"0 196 OFFCURVE",
"191 -20 OFFCURVE",
"485 -20 CURVE SMOOTH"
);
}
);
width = 1073;
},
{
anchors = (
{
name = bottom;
position = "{458, 0}";
},
{
name = top;
position = "{601, 1034}";
}
);
background = {
anchors = (
{
name = bottom;
position = "{551, 0}";
},
{
name = top;
position = "{546, 1060}";
}
);
paths = (
{
closed = 1;
nodes = (
"267 1080 OFFCURVE",
"68 850 OFFCURVE",
"68 526 CURVE SMOOTH",
"68 200 OFFCURVE",
"263 -20 OFFCURVE",
"549 -20 CURVE SMOOTH",
"719 -20 OFFCURVE",
"862 58 OFFCURVE",
"958 214 CURVE SMOOTH",
"962 222 OFFCURVE",
"960 230 OFFCURVE",
"954 234 CURVE SMOOTH",
"908 264 LINE SMOOTH",
"900 270 OFFCURVE",
"896 268 OFFCURVE",
"889 256 CURVE SMOOTH",
"801 120 OFFCURVE",
"692 56 OFFCURVE",
"557 56 CURVE SMOOTH",
"313 56 OFFCURVE",
"152 246 OFFCURVE",
"152 530 CURVE SMOOTH",
"152 814 OFFCURVE",
"313 1004 OFFCURVE",
"559 1004 CURVE SMOOTH",
"670 1004 OFFCURVE",
"761 956 OFFCURVE",
"870 822 CURVE SMOOTH",
"878 812 OFFCURVE",
"887 810 OFFCURVE",
"893 814 CURVE SMOOTH",
"940 846 LINE SMOOTH",
"946 850 OFFCURVE",
"948 854 OFFCURVE",
"940 866 CURVE SMOOTH",
"849 998 OFFCURVE",
"727 1080 OFFCURVE",
"549 1080 CURVE SMOOTH"
);
}
);
};
layerId = "91AB5BCA-6A50-42DA-B2F7-8181BF189245";
rightMetricsKey = "=e";
paths = (
{
closed = 1;
nodes = (
"610 -20 OFFCURVE",
"782 56 OFFCURVE",
"856 276 CURVE",
"780 276 LINE",
"727 122 OFFCURVE",
"601 54 OFFCURVE",
"473 54 CURVE SMOOTH",
"257 54 OFFCURVE",
"154 238 OFFCURVE",
"192 516 CURVE SMOOTH",
"232 792 OFFCURVE",
"391 978 OFFCURVE",
"604 978 CURVE SMOOTH",
"725 978 OFFCURVE",
"828 918 OFFCURVE",
"847 754 CURVE",
"925 758 LINE",
"914 966 OFFCURVE",
"767 1054 OFFCURVE",
"606 1054 CURVE SMOOTH",
"349 1054 OFFCURVE",
"162 830 OFFCURVE",
"116 512 CURVE SMOOTH",
"72 196 OFFCURVE",
"196 -20 OFFCURVE",
"454 -20 CURVE SMOOTH"
);
}
);
width = 1020;
}
);
leftKerningGroup = o;
leftMetricsKey = o;
rightKerningGroup = o;
rightMetricsKey = e;
unicode = 0063;
},
{
glyphname = d;
lastChange = "2019-06-10 23:33:08 +0000";
layers = (
{
anchors = (
{
name = bottom;
position = "{512, 0}";
},
{
name = caron;
position = "{1260, 1437}";
},
{
name = center;
position = "{590, 516}";
}
);
background = {
anchors = (
{
name = bottom;
position = "{604, 0}";
},
{
name = center;
position = "{604, 530}";
},
{
name = topright;
position = "{1176, 1060}";
}
);
paths = (
{
closed = 1;
nodes = (
"1086 0 LINE SMOOTH",
"1128 0 OFFCURVE",
"1140 16 OFFCURVE",
"1140 50 CURVE SMOOTH",
"1140 1438 LINE SMOOTH",
"1140 1468 OFFCURVE",
"1124 1484 OFFCURVE",
"1102 1484 CURVE SMOOTH",
"777 1484 LINE SMOOTH",
"754 1484 OFFCURVE",
"742 1468 OFFCURVE",
"742 1442 CURVE SMOOTH",
"742 992 LINE SMOOTH",
"742 960 OFFCURVE",
"724 960 OFFCURVE",
"704 976 CURVE SMOOTH",
"622 1056 OFFCURVE",
"546 1080 OFFCURVE",
"456 1080 CURVE SMOOTH",
"235 1080 OFFCURVE",
"36 862 OFFCURVE",
"36 526 CURVE SMOOTH",
"36 164 OFFCURVE",
"200 -20 OFFCURVE",
"436 -20 CURVE SMOOTH",
"560 -20 OFFCURVE",
"638 20 OFFCURVE",
"716 92 CURVE SMOOTH",
"729 104 OFFCURVE",
"746 102 OFFCURVE",
"746 84 CURVE SMOOTH",
"746 46 LINE SMOOTH",
"746 12 OFFCURVE",
"770 0 OFFCURVE",
"796 0 CURVE SMOOTH"
);
},
{
closed = 1;
nodes = (
"740 352 LINE SMOOTH",
"740 274 OFFCURVE",
"678 220 OFFCURVE",
"600 220 CURVE SMOOTH",
"498 220 OFFCURVE",
"439 298 OFFCURVE",
"439 528 CURVE SMOOTH",
"439 760 OFFCURVE",
"506 832 OFFCURVE",
"600 832 CURVE SMOOTH",
"662 832 OFFCURVE",
"698 806 OFFCURVE",
"740 756 CURVE"
);
}
);
};
layerId = "258ED206-D907-4350-8EBA-CBDDA1C16BF7";
paths = (
{
closed = 1;
nodes = (
"574 -20 OFFCURVE",
"686 68 OFFCURVE",
"752 212 CURVE",
"766 0 LINE",
"1040 0 LINE",
"1266 1486 LINE",
"878 1486 LINE",
"792 916 LINE",
"744 1022 OFFCURVE",
"630 1054 OFFCURVE",
"527 1054 CURVE SMOOTH",
"275 1054 OFFCURVE",
"98 850 OFFCURVE",
"50 524 CURVE SMOOTH",
"-2 194 OFFCURVE",
"124 -20 OFFCURVE",
"408 -20 CURVE SMOOTH"
);
},
{
closed = 1;
nodes = (
"452 252 OFFCURVE",
"392 320 OFFCURVE",
"424 528 CURVE SMOOTH",
"454 736 OFFCURVE",
"540 780 OFFCURVE",
"618 780 CURVE SMOOTH",
"704 780 OFFCURVE",
"764 728 OFFCURVE",
"740 568 CURVE",
"726 478 LINE",
"702 324 OFFCURVE",
"628 252 OFFCURVE",
"542 252 CURVE"
);
}
);
width = 1228;
},
{
anchors = (
{
name = bottom;
position = "{463, 0}";
},
{
name = caron;
position = "{1041, 1446}";
},
{
name = center;
position = "{558, 516}";
}
);
background = {
anchors = (
{
name = bottom;
position = "{583, 0}";
},
{
name = center;
position = "{607, 530}";
},
{
name = topright;
position = "{1233, 1484}";
}
);
paths = (
{
closed = 1;
nodes = (
"957 0 LINE SMOOTH",
"976 0 OFFCURVE",
"981 6 OFFCURVE",
"981 24 CURVE SMOOTH",
"981 1466 LINE SMOOTH",
"981 1478 OFFCURVE",
"976 1484 OFFCURVE",
"966 1484 CURVE SMOOTH",
"919 1484 LINE SMOOTH",
"905 1484 OFFCURVE",
"901 1478 OFFCURVE",
"901 1464 CURVE SMOOTH",
"901 986 LINE SMOOTH",
"901 960 OFFCURVE",
"897 952 OFFCURVE",
"873 972 CURVE SMOOTH",
"812 1020 OFFCURVE",
"726 1080 OFFCURVE",
"579 1080 CURVE SMOOTH",
"285 1080 OFFCURVE",
"94 850 OFFCURVE",
"94 510 CURVE SMOOTH",
"94 156 OFFCURVE",
"300 -20 OFFCURVE",
"556 -20 CURVE SMOOTH",
"747 -20 OFFCURVE",
"850 98 OFFCURVE",
"882 132 CURVE SMOOTH",
"897 148 OFFCURVE",
"905 146 OFFCURVE",
"905 124 CURVE SMOOTH",
"905 22 LINE SMOOTH",
"905 8 OFFCURVE",
"911 0 OFFCURVE",
"926 0 CURVE SMOOTH"
);
},
{
closed = 1;
nodes = (
"901 340 LINE SMOOTH",
"901 220 OFFCURVE",
"758 56 OFFCURVE",
"565 56 CURVE SMOOTH",
"361 56 OFFCURVE",
"178 200 OFFCURVE",
"178 518 CURVE SMOOTH",
"178 822 OFFCURVE",
"348 1004 OFFCURVE",
"581 1004 CURVE SMOOTH",
"703 1004 OFFCURVE",
"804 948 OFFCURVE",
"901 852 CURVE"
);
}
);
};
layerId = "91AB5BCA-6A50-42DA-B2F7-8181BF189245";
rightMetricsKey = "=|n";
paths = (
{
closed = 1;
nodes = (
"686 -20 OFFCURVE",
"775 164 OFFCURVE",
"797 212 CURVE",
"773 0 LINE",
"837 0 LINE",
"1047 1486 LINE",
"976 1486 LINE",
"888 856 LINE",
"873 900 OFFCURVE",
"806 1054 OFFCURVE",
"583 1054 CURVE SMOOTH",
"310 1054 OFFCURVE",
"159 812 OFFCURVE",
"117 520 CURVE SMOOTH",
"71 188 OFFCURVE",
"174 -20 OFFCURVE",
"432 -20 CURVE SMOOTH"
);
},
{
closed = 1;
nodes = (
"258 54 OFFCURVE",
"149 200 OFFCURVE",
"195 520 CURVE SMOOTH",
"233 798 OFFCURVE",
"365 978 OFFCURVE",
"579 978 CURVE SMOOTH",
"848 978 OFFCURVE",
"859 722 OFFCURVE",
"861 678 CURVE",
"815 356 LINE",
"791 208 OFFCURVE",
"642 54 OFFCURVE",
"443 54 CURVE SMOOTH"
);
}
);
width = 1096;
}
);
leftKerningGroup = o;
leftMetricsKey = o;
rightKerningGroup = u;
rightMetricsKey = "=|n";
unicode = 0064;
},
{
glyphname = eth;
lastChange = "2019-06-10 23:32:23 +0000";
layers = (
{
background = {
paths = (
{
closed = 1;
nodes = (
"1285 880 OFFCURVE",
"1136 1164 OFFCURVE",
"888 1338 CURVE",
"979 1390 LINE SMOOTH",
"991 1398 OFFCURVE",
"993 1408 OFFCURVE",
"987 1418 CURVE SMOOTH",
"945 1494 LINE SMOOTH",
"938 1504 OFFCURVE",
"924 1508 OFFCURVE",
"909 1498 CURVE SMOOTH",
"760 1414 LINE",
"686 1452 OFFCURVE",
"604 1480 OFFCURVE",
"518 1500 CURVE SMOOTH",
"493 1506 OFFCURVE",
"489 1504 OFFCURVE",
"476 1492 CURVE SMOOTH",
"308 1354 LINE SMOOTH",
"294 1342 OFFCURVE",
"300 1330 OFFCURVE",
"312 1326 CURVE SMOOTH",
"372 1306 OFFCURVE",
"426 1282 OFFCURVE",
"476 1256 CURVE",
"334 1178 LINE SMOOTH",
"319 1172 OFFCURVE",
"313 1156 OFFCURVE",
"330 1134 CURVE SMOOTH",
"359 1086 LINE SMOOTH",
"374 1064 OFFCURVE",
"386 1060 OFFCURVE",
"407 1072 CURVE SMOOTH",
"600 1180 LINE",
"655 1138 OFFCURVE",
"693 1102 OFFCURVE",
"731 1050 CURVE SMOOTH",
"735 1044 OFFCURVE",
"735 1040 OFFCURVE",
"728 1040 CURVE SMOOTH",
"412 1040 OFFCURVE",
"170 818 OFFCURVE",
"170 504 CURVE SMOOTH",
"170 206 OFFCURVE",
"397 -20 OFFCURVE",
"726 -20 CURVE SMOOTH",
"1060 -20 OFFCURVE",
"1285 204 OFFCURVE",
"1285 564 CURVE SMOOTH"
);
},
{
closed = 1;
nodes = (
"622 236 OFFCURVE",
"573 324 OFFCURVE",
"573 512 CURVE SMOOTH",
"573 702 OFFCURVE",
"622 792 OFFCURVE",
"728 792 CURVE SMOOTH",
"836 792 OFFCURVE",
"882 702 OFFCURVE",
"882 512 CURVE SMOOTH",
"882 326 OFFCURVE",
"836 236 OFFCURVE",
"728 236 CURVE SMOOTH"
);
}
);
};
layerId = "258ED206-D907-4350-8EBA-CBDDA1C16BF7";
paths = (
{
closed = 1;
nodes = (
"850 -20 OFFCURVE",
"1092 197 OFFCURVE",
"1140 538 CURVE SMOOTH",
"1203 991 OFFCURVE",
"1103 1344 OFFCURVE",
"856 1477 CURVE",
"408 1488 LINE",
"482 1421 OFFCURVE",
"812 1288 OFFCURVE",
"927 854 CURVE",
"859 955 OFFCURVE",
"738 1016 OFFCURVE",
"604 1016 CURVE SMOOTH",
"365 1016 OFFCURVE",
"98 861 OFFCURVE",
"49 514 CURVE SMOOTH",
"6 211 OFFCURVE",
"205 -20 OFFCURVE",
"530 -20 CURVE SMOOTH"
);
},
{
closed = 1;
nodes = (
"406 262 OFFCURVE",
"411 403 OFFCURVE",
"425 503 CURVE SMOOTH",
"442 625 OFFCURVE",
"493 776 OFFCURVE",
"627 776 CURVE SMOOTH",
"743 776 OFFCURVE",
"739 646 OFFCURVE",
"725 546 CURVE SMOOTH",
"708 425 OFFCURVE",
"656 262 OFFCURVE",
"524 262 CURVE SMOOTH"
);
},
{
closed = 1;
nodes = (
"1146 1254 LINE",
"1178 1487 LINE",
"369 1255 LINE",
"338 1021 LINE"
);
}
);
width = 1186;
},
{
background = {
paths = (
{
closed = 1;
nodes = (
"1223 844 OFFCURVE",
"1113 1126 OFFCURVE",
"801 1338 CURVE",
"981 1438 LINE SMOOTH",
"987 1442 OFFCURVE",
"987 1448 OFFCURVE",
"983 1454 CURVE SMOOTH",
"959 1498 LINE SMOOTH",
"957 1502 OFFCURVE",
"947 1504 OFFCURVE",
"941 1500 CURVE SMOOTH",
"733 1384 LINE",
"663 1426 OFFCURVE",
"589 1462 OFFCURVE",
"501 1498 CURVE SMOOTH",
"483 1506 OFFCURVE",
"477 1502 OFFCURVE",
"465 1494 CURVE SMOOTH",
"429 1470 LINE SMOOTH",
"419 1462 OFFCURVE",
"421 1452 OFFCURVE",
"431 1448 CURVE SMOOTH",
"515 1414 OFFCURVE",
"589 1378 OFFCURVE",
"657 1340 CURVE",
"347 1166 LINE SMOOTH",
"341 1162 OFFCURVE",
"337 1156 OFFCURVE",
"345 1144 CURVE SMOOTH",
"363 1116 LINE SMOOTH",
"371 1104 OFFCURVE",
"377 1100 OFFCURVE",
"389 1106 CURVE SMOOTH",
"725 1296 LINE",
"897 1180 OFFCURVE",
"1003 1046 OFFCURVE",
"1065 902 CURVE",
"979 988 OFFCURVE",
"861 1040 OFFCURVE",
"719 1040 CURVE SMOOTH",
"447 1040 OFFCURVE",
"251 816 OFFCURVE",
"251 504 CURVE SMOOTH",
"251 196 OFFCURVE",
"445 -20 OFFCURVE",
"733 -20 CURVE SMOOTH",
"1041 -20 OFFCURVE",
"1223 202 OFFCURVE",
"1223 510 CURVE SMOOTH"
);
},
{
closed = 1;
nodes = (
"509 56 OFFCURVE",
"335 256 OFFCURVE",
"335 508 CURVE SMOOTH",
"335 760 OFFCURVE",
"509 964 OFFCURVE",
"739 964 CURVE SMOOTH",
"967 964 OFFCURVE",
"1139 762 OFFCURVE",
"1139 508 CURVE SMOOTH",
"1139 254 OFFCURVE",
"971 56 OFFCURVE",
"741 56 CURVE SMOOTH"
);
}
);
};
layerId = "91AB5BCA-6A50-42DA-B2F7-8181BF189245";
paths = (
{
closed = 1;
nodes = (
"737 -20 OFFCURVE",
"923 210 OFFCURVE",
"971 510 CURVE SMOOTH",
"1046 983 OFFCURVE",
"1031 1266 OFFCURVE",
"724 1479 CURVE",
"639 1442 LINE",
"806 1344 OFFCURVE",
"964 1182 OFFCURVE",
"935 844 CURVE",
"908 953 OFFCURVE",
"830 1054 OFFCURVE",
"621 1054 CURVE SMOOTH",
"359 1054 OFFCURVE",
"161 832 OFFCURVE",
"117 518 CURVE SMOOTH",
"74 216 OFFCURVE",
"210 -20 OFFCURVE",
"478 -20 CURVE SMOOTH"
);
},
{
closed = 1;
nodes = (
"259 54 OFFCURVE",
"157 266 OFFCURVE",
"191 510 CURVE SMOOTH",
"230 790 OFFCURVE",
"395 978 OFFCURVE",
"617 978 CURVE SMOOTH",
"847 978 OFFCURVE",
"938 820 OFFCURVE",
"896 518 CURVE SMOOTH",
"860 268 OFFCURVE",
"703 54 OFFCURVE",
"480 54 CURVE SMOOTH"
);
},
{
closed = 1;
nodes = (
"1067 1352 LINE",
"1079 1440 LINE",
"549 1218 LINE",
"537 1129 LINE"
);
}
);
width = 1090;
}
);
leftKerningGroup = o;
leftMetricsKey = o;
rightKerningGroup = o;
rightMetricsKey = o;
unicode = 00F0;
},
{
glyphname = dcroat;
lastChange = "2019-06-10 23:32:23 +0000";
layers = (
{
background = {
components = (
{
name = d;
transform = "{1, 0, 0, 1, -38, 0}";
}
);
paths = (
{
closed = 1;
nodes = (
"1150 1360 OFFCURVE",
"1138 1374 OFFCURVE",
"1118 1374 CURVE SMOOTH",
"440 1374 LINE SMOOTH",
"420 1374 OFFCURVE",
"408 1360 OFFCURVE",
"408 1334 CURVE SMOOTH",
"408 1204 LINE SMOOTH",
"408 1174 OFFCURVE",
"418 1160 OFFCURVE",
"452 1160 CURVE SMOOTH",
"1092 1160 LINE SMOOTH",
"1132 1160 OFFCURVE",
"1150 1174 OFFCURVE",
"1150 1208 CURVE SMOOTH",
"1150 1338 LINE SMOOTH"
);
}
);
};
components = (
{
name = d;
}
);
layerId = "258ED206-D907-4350-8EBA-CBDDA1C16BF7";
paths = (
{
closed = 1;
nodes = (
"1324 1132 LINE",
"1352 1340 LINE",
"628 1340 LINE",
"600 1132 LINE"
);
}
);
width = 1299;
},
{
background = {
components = (
{
name = d;
transform = "{1, 0, 0, 1, 4, 0}";
}
);
paths = (
{
closed = 1;
nodes = (
"1162 1320 OFFCURVE",
"1158 1324 OFFCURVE",
"1152 1324 CURVE SMOOTH",
"594 1324 LINE SMOOTH",
"588 1324 OFFCURVE",
"584 1320 OFFCURVE",
"584 1310 CURVE SMOOTH",
"584 1270 LINE SMOOTH",
"584 1258 OFFCURVE",
"586 1254 OFFCURVE",
"598 1254 CURVE SMOOTH",
"1142 1254 LINE SMOOTH",
"1156 1254 OFFCURVE",
"1162 1258 OFFCURVE",
"1162 1270 CURVE SMOOTH",
"1162 1312 LINE SMOOTH"
);
}
);
};
components = (
{
name = d;
}
);
layerId = "91AB5BCA-6A50-42DA-B2F7-8181BF189245";
paths = (
{
closed = 1;
nodes = (
"1130 1222 LINE",
"1130 1290 LINE",
"568 1290 LINE",
"568 1222 LINE"
);
}
);
width = 1092;
}
);
leftKerningGroup = o;
leftMetricsKey = d;
unicode = 0111;
},
{
glyphname = e;
lastChange = "2019-06-10 23:32:23 +0000";
layers = (
{
anchors = (
{
name = bottom;
position = "{506, 0}";
},
{
name = ogonek;
position = "{762, 50}";
},
{
name = top;
position = "{655, 1034}";
}
);
background = {
anchors = (
{
name = bottom;
position = "{560, 0}";
},
{
name = ogonek;
position = "{817, 52}";
},
{
name = top;
position = "{554, 1060}";
}
);
paths = (
{
closed = 1;
nodes = (
"405 448 OFFCURVE",
"416 458 OFFCURVE",
"436 458 CURVE SMOOTH",
"1058 458 LINE SMOOTH",
"1092 460 OFFCURVE",
"1094 474 OFFCURVE",
"1094 508 CURVE SMOOTH",
"1094 870 OFFCURVE",
"863 1080 OFFCURVE",
"550 1080 CURVE SMOOTH",
"254 1080 OFFCURVE",
"-6 852 OFFCURVE",
"-6 512 CURVE SMOOTH",
"-6 198 OFFCURVE",
"237 -20 OFFCURVE",
"558 -20 CURVE SMOOTH",
"781 -20 OFFCURVE",
"918 34 OFFCURVE",
"1062 236 CURVE SMOOTH",
"1080 258 OFFCURVE",
"1073 276 OFFCURVE",
"1054 284 CURVE SMOOTH",
"872 358 LINE SMOOTH",
"846 368 OFFCURVE",
"840 366 OFFCURVE",
"830 356 CURVE SMOOTH",
"741 270 OFFCURVE",
"680 244 OFFCURVE",
"611 244 CURVE SMOOTH",
"496 244 OFFCURVE",
"405 302 OFFCURVE",
"405 424 CURVE SMOOTH"
);
},
{
closed = 1;
nodes = (
"410 790 OFFCURVE",
"485 846 OFFCURVE",
"567 846 CURVE SMOOTH",
"668 846 OFFCURVE",
"706 744 OFFCURVE",
"706 692 CURVE SMOOTH",
"706 668 OFFCURVE",
"697 664 OFFCURVE",
"672 664 CURVE SMOOTH",
"412 666 LINE"
);
}
);
};
layerId = "258ED206-D907-4350-8EBA-CBDDA1C16BF7";
paths = (
{
closed = 1;
nodes = (
"739 -20 OFFCURVE",
"994 122 OFFCURVE",
"1060 352 CURVE",
"718 352 LINE",
"674 272 OFFCURVE",
"613 252 OFFCURVE",
"542 252 CURVE SMOOTH",
"458 252 OFFCURVE",
"397 304 OFFCURVE",
"420 428 CURVE",
"1067 428 LINE",
"1082 518 LINE",
"1128 824 OFFCURVE",
"994 1054 OFFCURVE",
"657 1054 CURVE SMOOTH",
"328 1054 OFFCURVE",
"96 800 OFFCURVE",
"52 504 CURVE SMOOTH",
"4 190 OFFCURVE",
"189 -20 OFFCURVE",
"510 -20 CURVE SMOOTH"
);
},
{
closed = 1;
nodes = (
"462 724 OFFCURVE",
"538 792 OFFCURVE",
"617 792 CURVE SMOOTH",
"716 792 OFFCURVE",
"756 724 OFFCURVE",
"744 646 CURVE",
"449 646 LINE"
);
}
);
width = 1137;
},
{
anchors = (
{
name = bottom;
position = "{462, 0}";
},
{
name = ogonek;
position = "{640, 36}";
},
{
name = top;
position = "{610, 1034}";
}
);
background = {
anchors = (
{
name = bottom;
position = "{560, 0}";
},
{
name = ogonek;
position = "{746, 36}";
},
{
name = top;
position = "{554, 1060}";
}
);
paths = (
{
closed = 1;
nodes = (
"156 494 OFFCURVE",
"160 508 OFFCURVE",
"168 508 CURVE SMOOTH",
"990 508 LINE SMOOTH",
"1021 508 OFFCURVE",
"1016 532 OFFCURVE",
"1016 548 CURVE SMOOTH",
"1016 884 OFFCURVE",
"840 1080 OFFCURVE",
"558 1080 CURVE SMOOTH",
"276 1080 OFFCURVE",
"72 872 OFFCURVE",
"72 522 CURVE SMOOTH",
"72 200 OFFCURVE",
"271 -20 OFFCURVE",
"558 -20 CURVE SMOOTH",
"746 -20 OFFCURVE",
"886 54 OFFCURVE",
"978 200 CURVE SMOOTH",
"984 208 OFFCURVE",
"982 216 OFFCURVE",
"976 220 CURVE SMOOTH",
"930 250 LINE SMOOTH",
"922 256 OFFCURVE",
"916 254 OFFCURVE",
"908 242 CURVE SMOOTH",
"836 122 OFFCURVE",
"718 56 OFFCURVE",
"558 56 CURVE SMOOTH",
"334 56 OFFCURVE",
"156 254 OFFCURVE",
"156 480 CURVE SMOOTH"
);
},
{
closed = 1;
nodes = (
"156 780 OFFCURVE",
"292 1004 OFFCURVE",
"556 1004 CURVE SMOOTH",
"788 1004 OFFCURVE",
"932 828 OFFCURVE",
"932 608 CURVE SMOOTH",
"932 586 OFFCURVE",
"926 580 OFFCURVE",
"898 580 CURVE SMOOTH",
"158 580 LINE"
);
}
);
};
guideLines = (
{
angle = 88.4926;
position = "{229, 483}";
}
);
layerId = "91AB5BCA-6A50-42DA-B2F7-8181BF189245";
paths = (
{
closed = 1;
nodes = (
"642 -20 OFFCURVE",
"796 66 OFFCURVE",
"878 276 CURVE",
"802 276 LINE",
"742 138 OFFCURVE",
"632 58 OFFCURVE",
"484 58 CURVE SMOOTH",
"244 58 OFFCURVE",
"170 262 OFFCURVE",
"202 496 CURVE",
"920 496 LINE",
"928 554 LINE",
"974 872 OFFCURVE",
"856 1054 OFFCURVE",
"612 1054 CURVE SMOOTH",
"354 1054 OFFCURVE",
"176 850 OFFCURVE",
"128 508 CURVE SMOOTH",
"80 170 OFFCURVE",
"224 -20 OFFCURVE",
"472 -20 CURVE SMOOTH"
);
},
{
closed = 1;
nodes = (
"242 768 OFFCURVE",
"368 976 OFFCURVE",
"600 976 CURVE SMOOTH",
"814 976 OFFCURVE",
"888 804 OFFCURVE",
"856 574 CURVE",
"216 574 LINE"
);
}
);
width = 1052;
}
);
leftKerningGroup = o;
leftMetricsKey = "=o*1.1";
rightKerningGroup = o;
rightMetricsKey = "=o*1.1";
unicode = 0065;
},
{
glyphname = f;
lastChange = "2019-06-10 23:33:08 +0000";
layers = (
{
background = {
paths = (
{
closed = 1;
nodes = (
"608 1060 LINE SMOOTH",
"593 1060 OFFCURVE",
"582 1066 OFFCURVE",
"582 1086 CURVE SMOOTH",
"582 1122 LINE SMOOTH",
"582 1178 OFFCURVE",
"627 1224 OFFCURVE",
"673 1224 CURVE SMOOTH",
"759 1224 LINE SMOOTH",
"782 1224 OFFCURVE",
"795 1242 OFFCURVE",
"795 1264 CURVE",
"793 1432 LINE",
"793 1464 OFFCURVE",
"772 1484 OFFCURVE",
"734 1484 CURVE SMOOTH",
"509 1484 LINE SMOOTH",
"314 1484 OFFCURVE",
"192 1376 OFFCURVE",
"192 1202 CURVE SMOOTH",
"192 1096 LINE SMOOTH",
"192 1070 OFFCURVE",
"187 1060 OFFCURVE",
"164 1060 CURVE SMOOTH",
"68 1060 LINE SMOOTH",
"34 1060 OFFCURVE",
"21 1040 OFFCURVE",
"21 1016 CURVE SMOOTH",
"21 828 LINE SMOOTH",
"21 800 OFFCURVE",
"36 790 OFFCURVE",
"64 790 CURVE SMOOTH",
"177 790 LINE SMOOTH",
"188 790 OFFCURVE",
"192 784 OFFCURVE",
"192 770 CURVE SMOOTH",
"192 40 LINE SMOOTH",
"192 14 OFFCURVE",
"206 0 OFFCURVE",
"229 0 CURVE SMOOTH",
"555 0 LINE SMOOTH",
"578 0 OFFCURVE",
"593 14 OFFCURVE",
"593 44 CURVE SMOOTH",
"593 766 LINE SMOOTH",
"593 782 OFFCURVE",
"603 790 OFFCURVE",
"616 790 CURVE SMOOTH",
"740 790 LINE SMOOTH",
"767 790 OFFCURVE",
"784 800 OFFCURVE",
"784 828 CURVE SMOOTH",
"784 1016 LINE SMOOTH",
"784 1040 OFFCURVE",
"769 1060 OFFCURVE",
"734 1060 CURVE SMOOTH"
);
}
);
};
layerId = "258ED206-D907-4350-8EBA-CBDDA1C16BF7";
leftMetricsKey = "=t";
rightMetricsKey = "=x";
paths = (
{
closed = 1;
nodes = (
"498 0 LINE",
"616 770 LINE",
"803 770 LINE",
"843 1034 LINE",
"648 1034 LINE",
"656 1094 LINE SMOOTH",
"669 1170 OFFCURVE",
"694 1194 OFFCURVE",
"759 1194 CURVE SMOOTH",
"877 1194 LINE",
"914 1446 LINE",
"639 1446 LINE SMOOTH",
"450 1446 OFFCURVE",
"316 1342 OFFCURVE",
"290 1172 CURVE SMOOTH",
"269 1034 LINE",
"104 1034 LINE",
"64 770 LINE",
"229 770 LINE",
"112 0 LINE"
);
}
);
width = 792;
},
{
background = {
paths = (
{
closed = 1;
nodes = (
"465 1060 LINE SMOOTH",
"455 1060 OFFCURVE",
"451 1064 OFFCURVE",
"451 1074 CURVE SMOOTH",
"451 1254 LINE SMOOTH",
"451 1356 OFFCURVE",
"478 1414 OFFCURVE",
"577 1414 CURVE SMOOTH",
"737 1414 LINE SMOOTH",
"747 1414 OFFCURVE",
"753 1418 OFFCURVE",
"753 1428 CURVE SMOOTH",
"753 1470 LINE SMOOTH",
"753 1480 OFFCURVE",
"749 1484 OFFCURVE",
"741 1484 CURVE SMOOTH",
"598 1484 LINE SMOOTH",
"438 1484 OFFCURVE",
"371 1400 OFFCURVE",
"371 1236 CURVE SMOOTH",
"371 1074 LINE SMOOTH",
"371 1064 OFFCURVE",
"367 1060 OFFCURVE",
"357 1060 CURVE SMOOTH",
"131 1060 LINE SMOOTH",
"123 1060 OFFCURVE",
"119 1056 OFFCURVE",
"119 1048 CURVE SMOOTH",
"119 1002 LINE SMOOTH",
"119 994 OFFCURVE",
"123 990 OFFCURVE",
"131 990 CURVE SMOOTH",
"359 990 LINE SMOOTH",
"367 990 OFFCURVE",
"371 984 OFFCURVE",
"371 976 CURVE SMOOTH",
"371 20 LINE SMOOTH",
"371 6 OFFCURVE",
"375 0 OFFCURVE",
"388 0 CURVE SMOOTH",
"434 0 LINE SMOOTH",
"445 0 OFFCURVE",
"451 6 OFFCURVE",
"451 22 CURVE SMOOTH",
"451 976 LINE SMOOTH",
"451 986 OFFCURVE",
"455 990 OFFCURVE",
"465 990 CURVE SMOOTH",
"731 990 LINE SMOOTH",
"739 990 OFFCURVE",
"743 994 OFFCURVE",
"743 1002 CURVE SMOOTH",
"743 1048 LINE SMOOTH",
"743 1056 OFFCURVE",
"739 1060 OFFCURVE",
"733 1060 CURVE SMOOTH"
);
}
);
};
layerId = "91AB5BCA-6A50-42DA-B2F7-8181BF189245";
paths = (
{
closed = 1;
nodes = (
"337 0 LINE",
"472 966 LINE",
"733 966 LINE",
"743 1034 LINE",
"481 1034 LINE",
"507 1222 LINE SMOOTH",
"521 1322 OFFCURVE",
"554 1378 OFFCURVE",
"644 1378 CURVE SMOOTH",
"801 1378 LINE",
"810 1446 LINE",
"671 1446 LINE SMOOTH",
"527 1446 OFFCURVE",
"457 1366 OFFCURVE",
"434 1206 CURVE SMOOTH",
"409 1034 LINE",
"184 1034 LINE",
"173 966 LINE",
"401 966 LINE",
"266 0 LINE"
);
}
);
width = 775;
}
);
leftKerningGroup = t;
leftMetricsKey = "=t*.75";
rightKerningGroup = t;
rightMetricsKey = "=t*.75";
unicode = 0066;
},
{
glyphname = g;
lastChange = "2019-06-10 23:33:08 +0000";
layers = (
{
anchors = (
{
name = top;
position = "{771, 1034}";
}
);
background = {
anchors = (
{
name = top;
position = "{506, 1060}";
}
);
paths = (
{
closed = 1;
nodes = (
"1066 1124 OFFCURVE",
"954 1068 OFFCURVE",
"900 992 CURVE SMOOTH",
"886 972 OFFCURVE",
"858 970 OFFCURVE",
"838 986 CURVE SMOOTH",
"772 1038 OFFCURVE",
"656 1076 OFFCURVE",
"504 1076 CURVE SMOOTH",
"146 1076 OFFCURVE",
"-36 938 OFFCURVE",
"-36 746 CURVE SMOOTH",
"-36 624 OFFCURVE",
"40 530 OFFCURVE",
"172 474 CURVE SMOOTH",
"192 462 OFFCURVE",
"178 456 OFFCURVE",
"166 450 CURVE SMOOTH",
"58 404 OFFCURVE",
"-52 338 OFFCURVE",
"-52 244 CURVE SMOOTH",
"-52 162 OFFCURVE",
"10 112 OFFCURVE",
"80 78 CURVE SMOOTH",
"96 70 OFFCURVE",
"100 62 OFFCURVE",
"80 56 CURVE SMOOTH",
"-26 26 OFFCURVE",
"-114 -16 OFFCURVE",
"-114 -106 CURVE SMOOTH",
"-114 -274 OFFCURVE",
"90 -350 OFFCURVE",
"508 -350 CURVE SMOOTH",
"910 -350 OFFCURVE",
"1114 -198 OFFCURVE",
"1114 6 CURVE SMOOTH",
"1114 170 OFFCURVE",
"982 286 OFFCURVE",
"686 304 CURVE SMOOTH",
"382 322 LINE SMOOTH",
"324 326 OFFCURVE",
"294 334 OFFCURVE",
"294 364 CURVE SMOOTH",
"294 396 OFFCURVE",
"348 418 OFFCURVE",
"479 418 CURVE SMOOTH",
"816 418 OFFCURVE",
"994 568 OFFCURVE",
"994 748 CURVE SMOOTH",
"994 768 OFFCURVE",
"990 790 OFFCURVE",
"984 810 CURVE SMOOTH",
"976 838 OFFCURVE",
"986 856 OFFCURVE",
"1024 856 CURVE SMOOTH",
"1048 856 OFFCURVE",
"1086 850 OFFCURVE",
"1112 842 CURVE SMOOTH",
"1142 832 OFFCURVE",
"1164 848 OFFCURVE",
"1164 894 CURVE SMOOTH",
"1164 1074 LINE SMOOTH",
"1164 1110 OFFCURVE",
"1146 1124 OFFCURVE",
"1124 1124 CURVE SMOOTH"
);
},
{
closed = 1;
nodes = (
"376 600 OFFCURVE",
"320 668 OFFCURVE",
"320 740 CURVE SMOOTH",
"320 822 OFFCURVE",
"376 890 OFFCURVE",
"476 890 CURVE SMOOTH",
"588 890 OFFCURVE",
"632 822 OFFCURVE",
"632 740 CURVE SMOOTH",
"632 670 OFFCURVE",
"588 600 OFFCURVE",
"476 600 CURVE SMOOTH"
);
},
{
closed = 1;
nodes = (
"722 0 OFFCURVE",
"768 -32 OFFCURVE",
"768 -70 CURVE SMOOTH",
"768 -128 OFFCURVE",
"684 -172 OFFCURVE",
"528 -172 CURVE SMOOTH",
"278 -172 OFFCURVE",
"208 -128 OFFCURVE",
"208 -54 CURVE SMOOTH",
"208 -12 OFFCURVE",
"260 20 OFFCURVE",
"346 16 CURVE SMOOTH",
"636 4 LINE SMOOTH"
);
}
);
};
layerId = "258ED206-D907-4350-8EBA-CBDDA1C16BF7";
paths = (
{
closed = 1;
nodes = (
"898 -342 OFFCURVE",
"1106 -205 OFFCURVE",
"1133 -16 CURVE SMOOTH",
"1157 155 OFFCURVE",
"1042 295 OFFCURVE",
"749 314 CURVE SMOOTH",
"671 321 OFFCURVE",
"590 323 OFFCURVE",
"545 327 CURVE SMOOTH",
"473 333 OFFCURVE",
"412 343 OFFCURVE",
"405 375 CURVE SMOOTH",
"402 389 OFFCURVE",
"420 381 OFFCURVE",
"450 379 CURVE",
"475 377 OFFCURVE",
"546 374 OFFCURVE",
"587 374 CURVE SMOOTH",
"906 374 OFFCURVE",
"1095 543 OFFCURVE",
"1119 708 CURVE SMOOTH",
"1122 731 OFFCURVE",
"1121 769 OFFCURVE",
"1117 799 CURVE",
"1301 834 LINE",
"1333 1114 LINE",
"1213 1066 OFFCURVE",
"1057 1010 OFFCURVE",
"966 975 CURVE",
"903 1011 OFFCURVE",
"828 1050 OFFCURVE",
"671 1050 CURVE SMOOTH",
"367 1050 OFFCURVE",
"146 930 OFFCURVE",
"120 750 CURVE SMOOTH",
"103 629 OFFCURVE",
"164 490 OFFCURVE",
"296 426 CURVE",
"122 400 OFFCURVE",
"46 331 OFFCURVE",
"36 260 CURVE SMOOTH",
"18 135 OFFCURVE",
"135 85 OFFCURVE",
"155 73 CURVE",
"130 64 OFFCURVE",
"-55 41 OFFCURVE",
"-73 -82 CURVE SMOOTH",
"-93 -225 OFFCURVE",
"98 -342 OFFCURVE",
"515 -342 CURVE SMOOTH"
);
},
{
closed = 1;
nodes = (
"379 -138 OFFCURVE",
"298 -126 OFFCURVE",
"306 -71 CURVE SMOOTH",
"312 -26 OFFCURVE",
"354 23 OFFCURVE",
"462 17 CURVE SMOOTH",
"649 5 LINE SMOOTH",
"728 -1 OFFCURVE",
"764 -19 OFFCURVE",
"760 -52 CURVE SMOOTH",
"753 -101 OFFCURVE",
"713 -138 OFFCURVE",
"568 -138 CURVE SMOOTH"
);
},
{
closed = 1;
nodes = (
"527 578 OFFCURVE",
"493 625 OFFCURVE",
"502 692 CURVE SMOOTH",
"515 781 OFFCURVE",
"585 860 OFFCURVE",
"668 860 CURVE SMOOTH",
"733 860 OFFCURVE",
"766 803 OFFCURVE",
"756 736 CURVE SMOOTH",
"744 647 OFFCURVE",
"675 578 OFFCURVE",
"592 578 CURVE SMOOTH"
);
}
);
width = 1265;
},
{
anchors = (
{
name = top;
position = "{639, 1034}";
}
);
background = {
anchors = (
{
name = top;
position = "{419, 1060}";
}
);
guideLines = (
{
angle = 90;
position = "{152, 374}";
showMeasurement = 1;
}
);
paths = (
{
closed = 1;
nodes = (
"847 1060 OFFCURVE",
"787 1014 OFFCURVE",
"747 984 CURVE SMOOTH",
"733 974 OFFCURVE",
"724 974 OFFCURVE",
"711 986 CURVE SMOOTH",
"642 1044 OFFCURVE",
"556 1076 OFFCURVE",
"425 1076 CURVE SMOOTH",
"161 1076 OFFCURVE",
"5 950 OFFCURVE",
"5 738 CURVE SMOOTH",
"5 614 OFFCURVE",
"53 532 OFFCURVE",
"163 470 CURVE SMOOTH",
"177 462 OFFCURVE",
"181 450 OFFCURVE",
"165 446 CURVE SMOOTH",
"65 414 OFFCURVE",
"31 362 OFFCURVE",
"31 318 CURVE SMOOTH",
"31 274 OFFCURVE",
"53 242 OFFCURVE",
"107 218 CURVE SMOOTH",
"121 212 OFFCURVE",
"121 204 OFFCURVE",
"107 196 CURVE SMOOTH",
"-19 126 OFFCURVE",
"-77 42 OFFCURVE",
"-77 -54 CURVE SMOOTH",
"-77 -240 OFFCURVE",
"95 -350 OFFCURVE",
"403 -350 CURVE SMOOTH",
"705 -350 OFFCURVE",
"881 -238 OFFCURVE",
"881 -38 CURVE SMOOTH",
"881 120 OFFCURVE",
"787 220 OFFCURVE",
"573 232 CURVE SMOOTH",
"333 246 LINE SMOOTH",
"179 254 OFFCURVE",
"115 272 OFFCURVE",
"115 320 CURVE SMOOTH",
"115 368 OFFCURVE",
"181 418 OFFCURVE",
"411 418 CURVE SMOOTH",
"693 418 OFFCURVE",
"815 560 OFFCURVE",
"815 738 CURVE SMOOTH",
"815 822 OFFCURVE",
"787 868 OFFCURVE",
"773 902 CURVE SMOOTH",
"766 916 OFFCURVE",
"777 928 OFFCURVE",
"813 948 CURVE SMOOTH",
"845 966 OFFCURVE",
"871 974 OFFCURVE",
"923 976 CURVE SMOOTH",
"951 978 OFFCURVE",
"957 990 OFFCURVE",
"957 1008 CURVE SMOOTH",
"957 1034 LINE SMOOTH",
"957 1052 OFFCURVE",
"949 1060 OFFCURVE",
"919 1060 CURVE SMOOTH"
);
},
{
closed = 1;
nodes = (
"203 494 OFFCURVE",
"85 580 OFFCURVE",
"85 742 CURVE SMOOTH",
"85 906 OFFCURVE",
"205 1000 OFFCURVE",
"413 1000 CURVE SMOOTH",
"625 1000 OFFCURVE",
"735 908 OFFCURVE",
"735 742 CURVE SMOOTH",
"735 578 OFFCURVE",
"629 494 OFFCURVE",
"413 494 CURVE SMOOTH"
);
},
{
closed = 1;
nodes = (
"739 140 OFFCURVE",
"797 72 OFFCURVE",
"797 -38 CURVE SMOOTH",
"797 -202 OFFCURVE",
"665 -274 OFFCURVE",
"421 -274 CURVE SMOOTH",
"159 -274 OFFCURVE",
"7 -192 OFFCURVE",
"7 -46 CURVE SMOOTH",
"7 86 OFFCURVE",
"155 176 OFFCURVE",
"219 172 CURVE SMOOTH",
"571 150 LINE SMOOTH"
);
}
);
};
guideLines = (
{
angle = 90;
position = "{290, 347}";
showMeasurement = 1;
}
);
layerId = "91AB5BCA-6A50-42DA-B2F7-8181BF189245";
rightMetricsKey = "=x*1.2";
paths = (
{
closed = 1;
nodes = (
"689 -342 OFFCURVE",
"860 -234 OFFCURVE",
"885 -42 CURVE SMOOTH",
"905 116 OFFCURVE",
"831 214 OFFCURVE",
"638 226 CURVE SMOOTH",
"550 232 OFFCURVE",
"480 236 OFFCURVE",
"423 240 CURVE SMOOTH",
"273 252 OFFCURVE",
"232 266 OFFCURVE",
"239 318 CURVE SMOOTH",
"244 354 OFFCURVE",
"309 404 OFFCURVE",
"503 408 CURVE SMOOTH",
"508 408 OFFCURVE",
"514 408 OFFCURVE",
"523 408 CURVE SMOOTH",
"775 408 OFFCURVE",
"902 544 OFFCURVE",
"924 716 CURVE SMOOTH",
"931 770 OFFCURVE",
"918 850 OFFCURVE",
"903 890 CURVE",
"1080 932 LINE",
"1093 1049 LINE",
"1068 1039 OFFCURVE",
"899 965 OFFCURVE",
"872 952 CURVE",
"807 1017 OFFCURVE",
"732 1050 OFFCURVE",
"611 1050 CURVE SMOOTH",
"375 1050 OFFCURVE",
"220 928 OFFCURVE",
"194 724 CURVE SMOOTH",
"176 592 OFFCURVE",
"213 515 OFFCURVE",
"322 446 CURVE",
"223 415 OFFCURVE",
"170 368 OFFCURVE",
"163 314 CURVE SMOOTH",
"154 250 OFFCURVE",
"197 227 OFFCURVE",
"228 205 CURVE",
"195 177 OFFCURVE",
"39 106 OFFCURVE",
"19 -48 CURVE SMOOTH",
"-5 -232 OFFCURVE",
"139 -342 OFFCURVE",
"418 -342 CURVE SMOOTH"
);
},
{
closed = 1;
nodes = (
"201 -268 OFFCURVE",
"77 -190 OFFCURVE",
"95 -48 CURVE SMOOTH",
"112 82 OFFCURVE",
"259 172 OFFCURVE",
"316 168 CURVE SMOOTH",
"632 146 LINE SMOOTH",
"782 136 OFFCURVE",
"824 72 OFFCURVE",
"809 -34 CURVE SMOOTH",
"789 -194 OFFCURVE",
"622 -268 OFFCURVE",
"436 -268 CURVE SMOOTH"
);
},
{
closed = 1;
nodes = (
"338 482 OFFCURVE",
"245 564 OFFCURVE",
"264 720 CURVE SMOOTH",
"286 882 OFFCURVE",
"408 976 OFFCURVE",
"598 976 CURVE SMOOTH",
"771 976 OFFCURVE",
"876 898 OFFCURVE",
"853 728 CURVE SMOOTH",
"832 566 OFFCURVE",
"723 482 OFFCURVE",
"526 482 CURVE SMOOTH"
);
}
);
width = 1126;
}
);
leftKerningGroup = g;
leftMetricsKey = "=x*1.1";
rightKerningGroup = g;
rightMetricsKey = "=x";
unicode = 0067;
},
{
glyphname = gcommaaccent;
lastChange = "2019-06-10 23:33:08 +0000";
layers = (
{
anchors = (
{
name = _top;
position = "{694, 1034}";
}
);
background = {
anchors = (
{
name = _top;
position = "{530, 1100}";
}
);
components = (
{
name = g;
transform = "{1, 0, 0, 1, -38, 0}";
}
);
paths = (
{
closed = 1;
nodes = (
"624 1198 LINE SMOOTH",
"644 1198 OFFCURVE",
"660 1210 OFFCURVE",
"660 1238 CURVE SMOOTH",
"660 1360 LINE SMOOTH",
"660 1392 OFFCURVE",
"648 1404 OFFCURVE",
"614 1404 CURVE SMOOTH",
"596 1404 LINE SMOOTH",
"568 1404 OFFCURVE",
"556 1434 OFFCURVE",
"578 1462 CURVE SMOOTH",
"644 1552 LINE SMOOTH",
"656 1568 OFFCURVE",
"642 1592 OFFCURVE",
"620 1592 CURVE SMOOTH",
"584 1592 LINE SMOOTH",
"548 1592 OFFCURVE",
"534 1586 OFFCURVE",
"518 1564 CURVE SMOOTH",
"410 1430 LINE SMOOTH",
"408 1424 OFFCURVE",
"402 1414 OFFCURVE",
"402 1404 CURVE SMOOTH",
"402 1230 LINE SMOOTH",
"402 1210 OFFCURVE",
"414 1198 OFFCURVE",
"436 1198 CURVE SMOOTH"
);
}
);
};
components = (
{
name = g;
}
);
layerId = "258ED206-D907-4350-8EBA-CBDDA1C16BF7";
paths = (
{
closed = 1;
nodes = (
"814 1168 LINE",
"842 1368 LINE",
"720 1368 LINE",
"880 1552 LINE",
"748 1552 LINE",
"592 1384 LINE",
"562 1168 LINE"
);
}
);
width = 1265;
},
{
anchors = (
{
name = _top;
position = "{558, 1072}";
}
);
background = {
anchors = (
{
name = _top;
position = "{574, 1100}";
}
);
components = (
{
name = g;
transform = "{1, 0, 0, 1, 4, 0}";
}
);
paths = (
{
closed = 1;
nodes = (
"612 1264 LINE SMOOTH",
"620 1264 OFFCURVE",
"626 1268 OFFCURVE",
"626 1280 CURVE SMOOTH",
"626 1412 LINE SMOOTH",
"626 1426 OFFCURVE",
"622 1430 OFFCURVE",
"610 1430 CURVE SMOOTH",
"594 1430 LINE SMOOTH",
"584 1430 OFFCURVE",
"580 1436 OFFCURVE",
"586 1448 CURVE SMOOTH",
"636 1556 LINE SMOOTH",
"640 1564 OFFCURVE",
"636 1572 OFFCURVE",
"628 1572 CURVE SMOOTH",
"602 1572 LINE SMOOTH",
"586 1572 OFFCURVE",
"580 1570 OFFCURVE",
"574 1560 CURVE SMOOTH",
"512 1442 LINE SMOOTH",
"512 1440 OFFCURVE",
"510 1434 OFFCURVE",
"510 1430 CURVE SMOOTH",
"510 1278 LINE SMOOTH",
"510 1268 OFFCURVE",
"514 1264 OFFCURVE",
"522 1264 CURVE SMOOTH"
);
}
);
};
components = (
{
name = g;
}
);
layerId = "91AB5BCA-6A50-42DA-B2F7-8181BF189245";
paths = (
{
closed = 1;
nodes = (
"688 1232 LINE",
"712 1394 LINE",
"666 1394 LINE",
"750 1532 LINE",
"688 1532 LINE",
"600 1402 LINE",
"576 1232 LINE"
);
}
);
width = 1126;
}
);
leftKerningGroup = g;
leftMetricsKey = g;
rightKerningGroup = g;
rightMetricsKey = g;
unicode = 0123;
},
{
glyphname = h;
lastChange = "2019-06-10 23:33:08 +0000";
layers = (
{
anchors = (
{
name = bottom;
position = "{537, 0}";
},
{
name = top;
position = "{434, 1446}";
}
);
background = {
anchors = (
{
name = bottom;
position = "{623, 0}";
},
{
name = top;
position = "{901, 1060}";
}
);
paths = (
{
closed = 1;
nodes = (
"430 0 LINE SMOOTH",
"478 0 OFFCURVE",
"495 16 OFFCURVE",
"495 58 CURVE SMOOTH",
"495 698 LINE",
"533 766 OFFCURVE",
"581 798 OFFCURVE",
"644 798 CURVE SMOOTH",
"707 798 OFFCURVE",
"747 762 OFFCURVE",
"747 702 CURVE SMOOTH",
"747 50 LINE SMOOTH",
"747 12 OFFCURVE",
"760 0 OFFCURVE",
"793 0 CURVE SMOOTH",
"1087 0 LINE SMOOTH",
"1129 0 OFFCURVE",
"1147 20 OFFCURVE",
"1147 60 CURVE SMOOTH",
"1147 750 LINE SMOOTH",
"1147 962 OFFCURVE",
"1033 1080 OFFCURVE",
"835 1080 CURVE SMOOTH",
"729 1080 OFFCURVE",
"629 1046 OFFCURVE",
"516 936 CURVE SMOOTH",
"499 922 OFFCURVE",
"489 928 OFFCURVE",
"489 944 CURVE SMOOTH",
"489 1442 LINE SMOOTH",
"489 1468 OFFCURVE",
"478 1484 OFFCURVE",
"453 1484 CURVE SMOOTH",
"133 1484 LINE SMOOTH",
"109 1484 OFFCURVE",
"96 1466 OFFCURVE",
"96 1438 CURVE SMOOTH",
"96 50 LINE SMOOTH",
"96 14 OFFCURVE",
"109 0 OFFCURVE",
"147 0 CURVE SMOOTH"
);
}
);
};
layerId = "258ED206-D907-4350-8EBA-CBDDA1C16BF7";
paths = (
{
closed = 1;
nodes = (
"413 0 LINE",
"512 642 LINE",
"520 700 OFFCURVE",
"589 740 OFFCURVE",
"647 740 CURVE SMOOTH",
"705 740 OFFCURVE",
"764 704 OFFCURVE",
"753 646 CURVE SMOOTH",
"655 0 LINE",
"1043 0 LINE",
"1149 692 LINE SMOOTH",
"1180 898 OFFCURVE",
"1033 1034 OFFCURVE",
"841 1034 CURVE SMOOTH",
"680 1034 OFFCURVE",
"607 966 OFFCURVE",
"552 906 CURVE",
"640 1486 LINE",
"251 1486 LINE",
"25 0 LINE"
);
}
);
width = 1212;
},
{
anchors = (
{
name = bottom;
position = "{492, 0}";
},
{
name = top;
position = "{355, 1446}";
}
);
background = {
anchors = (
{
name = bottom;
position = "{616, 0}";
},
{
name = top;
position = "{661, 1060}";
}
);
paths = (
{
closed = 1;
nodes = (
"255 0 LINE SMOOTH",
"267 0 OFFCURVE",
"272 6 OFFCURVE",
"272 18 CURVE SMOOTH",
"272 820 LINE",
"433 942 OFFCURVE",
"526 1004 OFFCURVE",
"669 1004 CURVE SMOOTH",
"843 1004 OFFCURVE",
"915 910 OFFCURVE",
"915 754 CURVE SMOOTH",
"915 18 LINE SMOOTH",
"915 6 OFFCURVE",
"921 0 OFFCURVE",
"933 0 CURVE SMOOTH",
"977 0 LINE SMOOTH",
"988 0 OFFCURVE",
"995 6 OFFCURVE",
"995 20 CURVE SMOOTH",
"995 786 LINE SMOOTH",
"995 960 OFFCURVE",
"885 1080 OFFCURVE",
"671 1080 CURVE SMOOTH",
"524 1080 OFFCURVE",
"435 1022 OFFCURVE",
"282 914 CURVE SMOOTH",
"270 904 OFFCURVE",
"267 906 OFFCURVE",
"267 920 CURVE SMOOTH",
"267 1468 LINE SMOOTH",
"267 1480 OFFCURVE",
"263 1484 OFFCURVE",
"251 1484 CURVE SMOOTH",
"209 1484 LINE SMOOTH",
"196 1484 OFFCURVE",
"192 1478 OFFCURVE",
"192 1466 CURVE SMOOTH",
"192 18 LINE SMOOTH",
"192 6 OFFCURVE",
"198 0 OFFCURVE",
"211 0 CURVE SMOOTH"
);
}
);
};
layerId = "91AB5BCA-6A50-42DA-B2F7-8181BF189245";
paths = (
{
closed = 1;
nodes = (
"185 0 LINE",
"287 720 LINE",
"311 896 OFFCURVE",
"469 978 OFFCURVE",
"637 978 CURVE SMOOTH",
"799 978 OFFCURVE",
"887 888 OFFCURVE",
"864 736 CURVE SMOOTH",
"761 0 LINE",
"833 0 LINE",
"940 766 LINE SMOOTH",
"965 936 OFFCURVE",
"839 1054 OFFCURVE",
"650 1054 CURVE SMOOTH",
"495 1054 OFFCURVE",
"366 978 OFFCURVE",
"303 880 CURVE",
"389 1486 LINE",
"322 1486 LINE",
"112 0 LINE"
);
}
);
width = 1071;
}
);
leftKerningGroup = n;
leftMetricsKey = "=n";
rightKerningGroup = n;
rightMetricsKey = n;
unicode = 0068;
},
{
glyphname = hbar;
lastChange = "2019-06-10 23:33:08 +0000";
layers = (
{
background = {
components = (
{
name = h;
transform = "{1, 0, 0, 1, 11, 0}";
}
);
paths = (
{
closed = 1;
nodes = (
"765 1360 OFFCURVE",
"753 1374 OFFCURVE",
"733 1374 CURVE SMOOTH",
"55 1374 LINE SMOOTH",
"35 1374 OFFCURVE",
"23 1360 OFFCURVE",
"23 1334 CURVE SMOOTH",
"23 1204 LINE SMOOTH",
"23 1174 OFFCURVE",
"33 1160 OFFCURVE",
"67 1160 CURVE SMOOTH",
"707 1160 LINE SMOOTH",
"747 1160 OFFCURVE",
"765 1174 OFFCURVE",
"765 1208 CURVE SMOOTH",
"765 1338 LINE SMOOTH"
);
}
);
};
components = (
{
name = h;
transform = "{1, 0, 0, 1, 99, 0}";
}
);
layerId = "258ED206-D907-4350-8EBA-CBDDA1C16BF7";
paths = (
{
closed = 1;
nodes = (
"849 1132 LINE",
"877 1340 LINE",
"155 1340 LINE",
"127 1132 LINE"
);
}
);
width = 1311;
},
{
background = {
components = (
{
name = h;
transform = "{1, 0, 0, 1, 53, 0}";
}
);
paths = (
{
closed = 1;
nodes = (
"724 1320 OFFCURVE",
"720 1324 OFFCURVE",
"714 1324 CURVE SMOOTH",
"156 1324 LINE SMOOTH",
"150 1324 OFFCURVE",
"146 1320 OFFCURVE",
"146 1310 CURVE SMOOTH",
"146 1270 LINE SMOOTH",
"146 1258 OFFCURVE",
"148 1254 OFFCURVE",
"160 1254 CURVE SMOOTH",
"704 1254 LINE SMOOTH",
"718 1254 OFFCURVE",
"724 1258 OFFCURVE",
"724 1270 CURVE SMOOTH",
"724 1312 LINE SMOOTH"
);
}
);
};
components = (
{
name = h;
transform = "{1, 0, 0, 1, 99, 0}";
}
);
layerId = "91AB5BCA-6A50-42DA-B2F7-8181BF189245";
paths = (
{
closed = 1;
nodes = (
"704 1222 LINE",
"712 1290 LINE",
"148 1290 LINE",
"140 1222 LINE"
);
}
);
width = 1170;
}
);
leftKerningGroup = n;
rightKerningGroup = n;
rightMetricsKey = h;
unicode = 0127;
},
{
glyphname = i;
lastChange = "2019-06-10 23:32:23 +0000";
layers = (
{
anchors = (
{
name = bottom;
position = "{231, 0}";
}
);
background = {
paths = (
{
closed = 1;
nodes = (
"511 1044 OFFCURVE",
"497 1060 OFFCURVE",
"475 1060 CURVE SMOOTH",
"149 1060 LINE SMOOTH",
"125 1060 OFFCURVE",
"111 1044 OFFCURVE",
"111 1014 CURVE SMOOTH",
"111 50 LINE SMOOTH",
"111 16 OFFCURVE",
"123 0 OFFCURVE",
"163 0 CURVE SMOOTH",
"445 0 LINE SMOOTH",
"491 0 OFFCURVE",
"511 16 OFFCURVE",
"511 58 CURVE SMOOTH",
"511 1020 LINE SMOOTH"
);
},
{
closed = 1;
nodes = (
"511 1468 OFFCURVE",
"497 1484 OFFCURVE",
"475 1484 CURVE SMOOTH",
"149 1484 LINE SMOOTH",
"125 1484 OFFCURVE",
"111 1468 OFFCURVE",
"111 1438 CURVE SMOOTH",
"111 1200 LINE SMOOTH",
"111 1166 OFFCURVE",
"123 1148 OFFCURVE",
"163 1148 CURVE SMOOTH",
"445 1148 LINE SMOOTH",
"491 1148 OFFCURVE",
"511 1166 OFFCURVE",
"511 1206 CURVE SMOOTH",
"511 1442 LINE SMOOTH"
);
}
);
};
layerId = "258ED206-D907-4350-8EBA-CBDDA1C16BF7";
paths = (
{
closed = 1;
nodes = (
"423 0 LINE",
"579 1034 LINE",
"193 1034 LINE",
"35 0 LINE"
);
},
{
closed = 1;
nodes = (
"599 1158 LINE",
"649 1486 LINE",
"261 1486 LINE",
"211 1158 LINE"
);
}
);
width = 621;
},
{
anchors = (
{
name = bottom;
position = "{176, 0}";
}
);
background = {
paths = (
{
closed = 1;
nodes = (
"323 1056 OFFCURVE",
"319 1060 OFFCURVE",
"306 1060 CURVE SMOOTH",
"262 1060 LINE SMOOTH",
"248 1060 OFFCURVE",
"243 1056 OFFCURVE",
"243 1040 CURVE SMOOTH",
"243 20 LINE SMOOTH",
"243 4 OFFCURVE",
"248 0 OFFCURVE",
"266 0 CURVE SMOOTH",
"300 0 LINE SMOOTH",
"319 0 OFFCURVE",
"323 4 OFFCURVE",
"323 24 CURVE SMOOTH",
"323 1040 LINE SMOOTH"
);
},
{
closed = 1;
nodes = (
"334 1474 OFFCURVE",
"323 1484 OFFCURVE",
"310 1484 CURVE SMOOTH",
"258 1484 LINE SMOOTH",
"243 1484 OFFCURVE",
"233 1474 OFFCURVE",
"233 1458 CURVE SMOOTH",
"233 1316 LINE SMOOTH",
"233 1300 OFFCURVE",
"237 1288 OFFCURVE",
"256 1288 CURVE SMOOTH",
"310 1288 LINE SMOOTH",
"330 1288 OFFCURVE",
"334 1300 OFFCURVE",
"334 1320 CURVE SMOOTH",
"334 1458 LINE SMOOTH"
);
}
);
};
layerId = "91AB5BCA-6A50-42DA-B2F7-8181BF189245";
paths = (
{
closed = 1;
nodes = (
"214 0 LINE",
"357 1034 LINE",
"286 1034 LINE",
"142 0 LINE"
);
},
{
closed = 1;
nodes = (
"401 1294 LINE",
"420 1414 LINE",
"332 1414 LINE",
"313 1294 LINE"
);
}
);
width = 498;
}
);
leftKerningGroup = n;
leftMetricsKey = "=n*1.1";
rightKerningGroup = u;
rightMetricsKey = "=|n*1.1";
unicode = 0069;
},
{
glyphname = idotless;
lastChange = "2019-06-10 23:32:23 +0000";
layers = (
{
anchors = (
{
name = ogonek;
position = "{371, 18}";
},
{
name = top;
position = "{393, 1034}";
}
);
background = {
anchors = (
{
name = ogonek;
position = "{421, 18}";
},
{
name = top;
position = "{285, 1060}";
}
);
paths = (
{
closed = 1;
nodes = (
"477 1044 OFFCURVE",
"463 1060 OFFCURVE",
"441 1060 CURVE SMOOTH",
"115 1060 LINE SMOOTH",
"91 1060 OFFCURVE",
"77 1044 OFFCURVE",
"77 1014 CURVE SMOOTH",
"77 50 LINE SMOOTH",
"77 16 OFFCURVE",
"89 0 OFFCURVE",
"129 0 CURVE SMOOTH",
"411 0 LINE SMOOTH",
"457 0 OFFCURVE",
"477 16 OFFCURVE",
"477 58 CURVE SMOOTH",
"477 1020 LINE SMOOTH"
);
}
);
};
layerId = "258ED206-D907-4350-8EBA-CBDDA1C16BF7";
paths = (
{
closed = 1;
nodes = (
"423 0 LINE",
"581 1034 LINE",
"193 1034 LINE",
"35 0 LINE"
);
}
);
width = 616;
},
{
anchors = (
{
name = ogonek;
position = "{193, 26}";
},
{
name = top;
position = "{312, 1034}";
}
);
background = {
anchors = (
{
name = ogonek;
position = "{271, 26}";
},
{
name = top;
position = "{248, 1060}";
}
);
paths = (
{
closed = 1;
nodes = (
"288 1056 OFFCURVE",
"283 1060 OFFCURVE",
"270 1060 CURVE SMOOTH",
"226 1060 LINE SMOOTH",
"212 1060 OFFCURVE",
"208 1056 OFFCURVE",
"208 1040 CURVE SMOOTH",
"208 20 LINE SMOOTH",
"208 4 OFFCURVE",
"212 0 OFFCURVE",
"229 0 CURVE SMOOTH",
"264 0 LINE SMOOTH",
"283 0 OFFCURVE",
"288 4 OFFCURVE",
"288 24 CURVE SMOOTH",
"288 1040 LINE SMOOTH"
);
}
);
};
layerId = "91AB5BCA-6A50-42DA-B2F7-8181BF189245";
paths = (
{
closed = 1;
nodes = (
"204 0 LINE",
"350 1034 LINE",
"277 1034 LINE",
"132 0 LINE"
);
}
);
width = 481;
}
);
leftKerningGroup = n;
leftMetricsKey = i;
rightKerningGroup = u;
rightMetricsKey = i;
unicode = 0131;
},
{
glyphname = j;
lastChange = "2019-06-10 23:32:23 +0000";
layers = (
{
background = {
paths = (
{
closed = 1;
nodes = (
"516 1020 LINE SMOOTH",
"516 1044 OFFCURVE",
"504 1060 OFFCURVE",
"479 1060 CURVE SMOOTH",
"155 1060 LINE SMOOTH",
"132 1060 OFFCURVE",
"116 1044 OFFCURVE",
"116 1014 CURVE SMOOTH",
"116 72 LINE SMOOTH",
"116 4 OFFCURVE",
"94 -12 OFFCURVE",
"67 -20 CURVE SMOOTH",
"-2 -32 LINE SMOOTH",
"-28 -38 OFFCURVE",
"-42 -64 OFFCURVE",
"-42 -86 CURVE SMOOTH",
"-40 -290 LINE SMOOTH",
"-40 -332 OFFCURVE",
"-17 -340 OFFCURVE",
"96 -340 CURVE SMOOTH",
"380 -340 OFFCURVE",
"516 -206 OFFCURVE",
"516 58 CURVE SMOOTH"
);
},
{
closed = 1;
nodes = (
"516 1468 OFFCURVE",
"504 1484 OFFCURVE",
"479 1484 CURVE SMOOTH",
"155 1484 LINE SMOOTH",
"132 1484 OFFCURVE",
"116 1468 OFFCURVE",
"116 1438 CURVE SMOOTH",
"116 1200 LINE SMOOTH",
"116 1166 OFFCURVE",
"130 1148 OFFCURVE",
"170 1148 CURVE SMOOTH",
"452 1148 LINE SMOOTH",
"452 1148 OFFCURVE",
"516 1166 OFFCURVE",
"516 1206 CURVE SMOOTH",
"516 1442 LINE SMOOTH"
);
}
);
};
layerId = "258ED206-D907-4350-8EBA-CBDDA1C16BF7";
paths = (
{
closed = 1;
nodes = (
"268 -332 OFFCURVE",
"420 -200 OFFCURVE",
"458 56 CURVE SMOOTH",
"607 1034 LINE",
"220 1034 LINE",
"71 56 LINE",
"65 14 OFFCURVE",
"42 -12 OFFCURVE",
"-34 -28 CURVE",
"-97 -38 LINE",
"-134 -298 LINE",
"-134 -298 OFFCURVE",
"-108 -332 OFFCURVE",
"-6 -332 CURVE"
);
},
{
closed = 1;
nodes = (
"626 1158 LINE",
"676 1486 LINE",
"288 1486 LINE",
"237 1158 LINE"
);
}
);
width = 638;
},
{
background = {
paths = (
{
closed = 1;
nodes = (
"276 1040 LINE SMOOTH",
"276 1054 OFFCURVE",
"272 1060 OFFCURVE",
"260 1060 CURVE SMOOTH",
"216 1060 LINE SMOOTH",
"202 1060 OFFCURVE",
"196 1054 OFFCURVE",
"196 1040 CURVE SMOOTH",
"196 -92 LINE SMOOTH",
"196 -220 OFFCURVE",
"154 -264 OFFCURVE",
"48 -266 CURVE SMOOTH",
"-67 -268 LINE SMOOTH",
"-76 -268 OFFCURVE",
"-80 -272 OFFCURVE",
"-80 -280 CURVE SMOOTH",
"-80 -322 LINE SMOOTH",
"-80 -338 OFFCURVE",
"-67 -340 OFFCURVE",
"50 -340 CURVE SMOOTH",
"232 -340 OFFCURVE",
"276 -266 OFFCURVE",
"276 -102 CURVE SMOOTH"
);
},
{
closed = 1;
nodes = (
"286 1474 OFFCURVE",
"276 1484 OFFCURVE",
"263 1484 CURVE SMOOTH",
"210 1484 LINE SMOOTH",
"196 1484 OFFCURVE",
"187 1474 OFFCURVE",
"187 1458 CURVE SMOOTH",
"187 1316 LINE SMOOTH",
"187 1300 OFFCURVE",
"190 1288 OFFCURVE",
"208 1288 CURVE SMOOTH",
"263 1288 LINE SMOOTH",
"282 1288 OFFCURVE",
"286 1300 OFFCURVE",
"286 1320 CURVE SMOOTH",
"286 1458 LINE SMOOTH"
);
}
);
};
layerId = "91AB5BCA-6A50-42DA-B2F7-8181BF189245";
paths = (
{
closed = 1;
nodes = (
"92 -332 OFFCURVE",
"141 -260 OFFCURVE",
"162 -100 CURVE SMOOTH",
"322 1034 LINE",
"250 1034 LINE",
"92 -90 LINE SMOOTH",
"74 -214 OFFCURVE",
"32 -258 OFFCURVE",
"-63 -260 CURVE SMOOTH",
"-178 -262 LINE",
"-186 -314 LINE SMOOTH",
"-186 -314 OFFCURVE",
"-180 -332 OFFCURVE",
"-72 -332 CURVE SMOOTH"
);
},
{
closed = 1;
nodes = (
"368 1294 LINE",
"384 1414 LINE",
"296 1414 LINE",
"280 1294 LINE"
);
}
);
width = 444;
}
);
leftKerningGroup = j;
rightKerningGroup = u;
rightMetricsKey = "=|n";
unicode = 006A;
},
{
glyphname = jdotless;
lastChange = "2019-06-10 23:33:08 +0000";
layers = (
{
anchors = (
{
name = top;
position = "{412, 1034}";
}
);
background = {
anchors = (
{
name = top;
position = "{279, 1060}";
}
);
paths = (
{
closed = 1;
nodes = (
"479 1020 LINE SMOOTH",
"479 1044 OFFCURVE",
"468 1060 OFFCURVE",
"443 1060 CURVE SMOOTH",
"120 1060 LINE SMOOTH",
"96 1060 OFFCURVE",
"80 1044 OFFCURVE",
"80 1014 CURVE SMOOTH",
"80 72 LINE SMOOTH",
"80 4 OFFCURVE",
"58 -12 OFFCURVE",
"32 -20 CURVE SMOOTH",
"-38 -32 LINE SMOOTH",
"-64 -38 OFFCURVE",
"-78 -64 OFFCURVE",
"-78 -86 CURVE SMOOTH",
"-76 -290 LINE SMOOTH",
"-76 -332 OFFCURVE",
"-53 -340 OFFCURVE",
"60 -340 CURVE SMOOTH",
"344 -340 OFFCURVE",
"479 -206 OFFCURVE",
"479 58 CURVE SMOOTH"
);
}
);
};
layerId = "258ED206-D907-4350-8EBA-CBDDA1C16BF7";
paths = (
{
closed = 1;
nodes = (
"268 -332 OFFCURVE",
"420 -200 OFFCURVE",
"460 56 CURVE SMOOTH",
"607 1034 LINE",
"220 1034 LINE",
"71 56 LINE",
"65 14 OFFCURVE",
"40 -12 OFFCURVE",
"-36 -28 CURVE",
"-97 -38 LINE",
"-134 -298 LINE",
"-134 -298 OFFCURVE",
"-110 -332 OFFCURVE",
"-8 -332 CURVE"
);
}
);
width = 632;
},
{
anchors = (
{
name = top;
position = "{288, 1034}";
}
);
background = {
anchors = (
{
name = top;
position = "{210, 1060}";
}
);
paths = (
{
closed = 1;
nodes = (
"250 1040 LINE SMOOTH",
"250 1054 OFFCURVE",
"246 1060 OFFCURVE",
"234 1060 CURVE SMOOTH",
"190 1060 LINE SMOOTH",
"176 1060 OFFCURVE",
"170 1054 OFFCURVE",
"170 1040 CURVE SMOOTH",
"170 -92 LINE SMOOTH",
"170 -220 OFFCURVE",
"128 -264 OFFCURVE",
"22 -266 CURVE SMOOTH",
"-94 -268 LINE SMOOTH",
"-102 -268 OFFCURVE",
"-105 -272 OFFCURVE",
"-105 -280 CURVE SMOOTH",
"-105 -322 LINE SMOOTH",
"-105 -338 OFFCURVE",
"-94 -340 OFFCURVE",
"24 -340 CURVE SMOOTH",
"206 -340 OFFCURVE",
"250 -266 OFFCURVE",
"250 -102 CURVE SMOOTH"
);
}
);
};
layerId = "91AB5BCA-6A50-42DA-B2F7-8181BF189245";
paths = (
{
closed = 1;
nodes = (
"92 -332 OFFCURVE",
"143 -260 OFFCURVE",
"164 -100 CURVE SMOOTH",
"324 1034 LINE",
"252 1034 LINE",
"94 -90 LINE SMOOTH",
"76 -214 OFFCURVE",
"32 -258 OFFCURVE",
"-62 -260 CURVE SMOOTH",
"-178 -262 LINE",
"-186 -314 LINE SMOOTH",
"-188 -330 OFFCURVE",
"-178 -332 OFFCURVE",
"-69 -332 CURVE SMOOTH"
);
}
);
width = 436;
}
);
leftKerningGroup = j;
leftMetricsKey = j;
rightKerningGroup = u;
rightMetricsKey = j;
unicode = 0237;
},
{
glyphname = k;
lastChange = "2019-06-10 23:33:08 +0000";
layers = (
{
anchors = (
{
name = bottom;
position = "{527, 0}";
}
);
background = {
anchors = (
{
name = bottom;
position = "{615, 0}";
}
);
paths = (
{
closed = 1;
nodes = (
"921 674 LINE SMOOTH",
"903 710 OFFCURVE",
"907 722 OFFCURVE",
"925 744 CURVE SMOOTH",
"1184 1002 LINE SMOOTH",
"1209 1030 OFFCURVE",
"1201 1060 OFFCURVE",
"1155 1060 CURVE SMOOTH",
"881 1060 LINE SMOOTH",
"861 1060 OFFCURVE",
"839 1046 OFFCURVE",
"819 1026 CURVE SMOOTH",
"520 688 LINE SMOOTH",
"503 670 OFFCURVE",
"495 680 OFFCURVE",
"495 692 CURVE SMOOTH",
"495 1442 LINE SMOOTH",
"495 1468 OFFCURVE",
"483 1484 OFFCURVE",
"459 1484 CURVE SMOOTH",
"133 1484 LINE SMOOTH",
"111 1484 OFFCURVE",
"96 1468 OFFCURVE",
"96 1438 CURVE SMOOTH",
"96 50 LINE SMOOTH",
"96 16 OFFCURVE",
"107 0 OFFCURVE",
"149 0 CURVE SMOOTH",
"432 0 LINE SMOOTH",
"478 0 OFFCURVE",
"495 16 OFFCURVE",
"495 58 CURVE SMOOTH",
"495 260 LINE SMOOTH",
"495 292 OFFCURVE",
"501 306 OFFCURVE",
"514 316 CURVE SMOOTH",
"609 406 LINE SMOOTH",
"629 426 OFFCURVE",
"640 422 OFFCURVE",
"651 396 CURVE SMOOTH",
"795 52 LINE SMOOTH",
"810 20 OFFCURVE",
"827 0 OFFCURVE",
"861 0 CURVE SMOOTH",
"1203 0 LINE SMOOTH",
"1239 0 OFFCURVE",
"1253 34 OFFCURVE",
"1241 56 CURVE SMOOTH"
);
}
);
};
guideLines = (
{
angle = 50.4927;
position = "{259, 343}";
},
{
angle = 122;
position = "{400, 0}";
}
);
layerId = "258ED206-D907-4350-8EBA-CBDDA1C16BF7";
paths = (
{
closed = 1;
nodes = (
"411 0 LINE",
"457 292 LINE",
"545 380 LINE",
"724 0 LINE",
"1100 0 LINE",
"813 606 LINE",
"1255 1034 LINE",
"852 1034 LINE",
"516 686 LINE",
"638 1486 LINE",
"249 1486 LINE",
"25 0 LINE"
);
}
);
width = 1192;
},
{
anchors = (
{
name = bottom;
position = "{438, 0}";
}
);
background = {
anchors = (
{
name = bottom;
position = "{555, 0}";
}
);
paths = (
{
closed = 1;
nodes = (
"621 662 LINE SMOOTH",
"614 672 OFFCURVE",
"616 678 OFFCURVE",
"623 684 CURVE SMOOTH",
"961 1030 LINE SMOOTH",
"978 1048 OFFCURVE",
"977 1060 OFFCURVE",
"957 1060 CURVE SMOOTH",
"893 1060 LINE SMOOTH",
"879 1060 OFFCURVE",
"873 1056 OFFCURVE",
"858 1040 CURVE",
"291 458 LINE SMOOTH",
"274 442 OFFCURVE",
"270 444 OFFCURVE",
"270 468 CURVE SMOOTH",
"270 1464 LINE SMOOTH",
"270 1480 OFFCURVE",
"267 1484 OFFCURVE",
"253 1484 CURVE SMOOTH",
"209 1484 LINE SMOOTH",
"194 1484 OFFCURVE",
"190 1480 OFFCURVE",
"190 1464 CURVE SMOOTH",
"190 20 LINE SMOOTH",
"190 4 OFFCURVE",
"194 0 OFFCURVE",
"213 0 CURVE SMOOTH",
"247 0 LINE SMOOTH",
"267 0 OFFCURVE",
"270 4 OFFCURVE",
"270 24 CURVE SMOOTH",
"270 304 LINE SMOOTH",
"270 318 OFFCURVE",
"274 328 OFFCURVE",
"285 338 CURVE SMOOTH",
"541 598 LINE SMOOTH",
"551 608 OFFCURVE",
"553 604 OFFCURVE",
"557 598 CURVE SMOOTH",
"921 14 LINE SMOOTH",
"927 4 OFFCURVE",
"933 0 OFFCURVE",
"944 0 CURVE SMOOTH",
"1007 0 LINE SMOOTH",
"1024 0 OFFCURVE",
"1026 8 OFFCURVE",
"1017 24 CURVE SMOOTH"
);
}
);
};
guideLines = (
{
angle = 121.8697;
position = "{302, 140}";
}
);
layerId = "91AB5BCA-6A50-42DA-B2F7-8181BF189245";
paths = (
{
closed = 1;
nodes = (
"185 0 LINE",
"228 316 LINE",
"519 592 LINE",
"772 0 LINE",
"864 0 LINE",
"583 658 LINE",
"977 1034 LINE",
"875 1034 LINE",
"245 428 LINE",
"393 1486 LINE",
"322 1486 LINE",
"112 0 LINE"
);
}
);
width = 1033;
}
);
leftKerningGroup = n;
leftMetricsKey = n;
rightKerningGroup = k;
rightMetricsKey = "=x*1.1";
unicode = 006B;
},
{
glyphname = kgreenlandic;
lastChange = "2019-06-10 23:33:08 +0000";
layers = (
{
background = {
paths = (
{
closed = 1;
nodes = (
"890 674 LINE SMOOTH",
"871 710 OFFCURVE",
"875 722 OFFCURVE",
"894 744 CURVE SMOOTH",
"1151 1002 LINE SMOOTH",
"1178 1030 OFFCURVE",
"1169 1060 OFFCURVE",
"1123 1060 CURVE SMOOTH",
"850 1060 LINE SMOOTH",
"829 1060 OFFCURVE",
"808 1046 OFFCURVE",
"787 1026 CURVE SMOOTH",
"487 688 LINE SMOOTH",
"472 670 OFFCURVE",
"463 680 OFFCURVE",
"463 692 CURVE SMOOTH",
"463 1018 LINE SMOOTH",
"463 1044 OFFCURVE",
"451 1060 OFFCURVE",
"428 1060 CURVE SMOOTH",
"102 1060 LINE SMOOTH",
"79 1060 OFFCURVE",
"63 1044 OFFCURVE",
"63 1014 CURVE SMOOTH",
"63 50 LINE SMOOTH",
"63 16 OFFCURVE",
"75 0 OFFCURVE",
"117 0 CURVE SMOOTH",
"399 0 LINE SMOOTH",
"445 0 OFFCURVE",
"463 16 OFFCURVE",
"463 58 CURVE SMOOTH",
"463 260 LINE SMOOTH",
"463 292 OFFCURVE",
"470 306 OFFCURVE",
"481 316 CURVE SMOOTH",
"577 406 LINE SMOOTH",
"598 426 OFFCURVE",
"607 422 OFFCURVE",
"619 396 CURVE SMOOTH",
"764 52 LINE SMOOTH",
"777 20 OFFCURVE",
"795 0 OFFCURVE",
"829 0 CURVE SMOOTH",
"1171 0 LINE SMOOTH",
"1207 0 OFFCURVE",
"1222 34 OFFCURVE",
"1209 56 CURVE SMOOTH"
);
}
);
};
layerId = "258ED206-D907-4350-8EBA-CBDDA1C16BF7";
paths = (
{
closed = 1;
nodes = (
"413 0 LINE",
"457 292 LINE",
"613 422 LINE",
"726 0 LINE",
"1161 0 LINE",
"911 700 LINE",
"1291 1034 LINE",
"911 1034 LINE",
"512 644 LINE",
"569 1034 LINE",
"184 1034 LINE",
"25 0 LINE"
);
}
);
width = 1244;
},
{
background = {
paths = (
{
closed = 1;
nodes = (
"589 662 LINE SMOOTH",
"583 672 OFFCURVE",
"585 678 OFFCURVE",
"591 684 CURVE SMOOTH",
"929 1030 LINE SMOOTH",
"946 1048 OFFCURVE",
"944 1060 OFFCURVE",
"925 1060 CURVE SMOOTH",
"860 1060 LINE SMOOTH",
"847 1060 OFFCURVE",
"841 1056 OFFCURVE",
"827 1040 CURVE",
"259 458 LINE SMOOTH",
"242 442 OFFCURVE",
"238 444 OFFCURVE",
"238 468 CURVE SMOOTH",
"238 1040 LINE SMOOTH",
"238 1056 OFFCURVE",
"234 1060 OFFCURVE",
"221 1060 CURVE SMOOTH",
"177 1060 LINE SMOOTH",
"163 1060 OFFCURVE",
"158 1056 OFFCURVE",
"158 1040 CURVE SMOOTH",
"158 20 LINE SMOOTH",
"158 4 OFFCURVE",
"163 0 OFFCURVE",
"181 0 CURVE SMOOTH",
"215 0 LINE SMOOTH",
"234 0 OFFCURVE",
"238 4 OFFCURVE",
"238 24 CURVE SMOOTH",
"238 304 LINE SMOOTH",
"238 318 OFFCURVE",
"242 328 OFFCURVE",
"253 338 CURVE SMOOTH",
"509 598 LINE SMOOTH",
"519 608 OFFCURVE",
"520 604 OFFCURVE",
"524 598 CURVE SMOOTH",
"889 14 LINE SMOOTH",
"895 4 OFFCURVE",
"900 0 OFFCURVE",
"913 0 CURVE SMOOTH",
"975 0 LINE SMOOTH",
"992 0 OFFCURVE",
"995 8 OFFCURVE",
"984 24 CURVE SMOOTH"
);
}
);
};
layerId = "91AB5BCA-6A50-42DA-B2F7-8181BF189245";
paths = (
{
closed = 1;
nodes = (
"185 0 LINE",
"228 316 LINE",
"519 592 LINE",
"772 0 LINE",
"864 0 LINE",
"583 658 LINE",
"975 1034 LINE",
"875 1034 LINE",
"245 428 LINE",
"331 1034 LINE",
"259 1034 LINE",
"112 0 LINE"
);
}
);
width = 1033;
}
);
leftKerningGroup = n;
leftMetricsKey = k;
rightKerningGroup = k;
rightMetricsKey = k;
unicode = 0138;
},
{
glyphname = l;
lastChange = "2019-06-10 23:33:08 +0000";
layers = (
{
anchors = (
{
name = bottom;
position = "{188, 0}";
},
{
name = caron;
position = "{627, 1446}";
},
{
name = top;
position = "{447, 1530}";
}
);
background = {
anchors = (
{
name = bottom;
position = "{180, 0}";
},
{
name = top;
position = "{291, 1484}";
},
{
name = topright;
position = "{665, 1060}";
}
);
paths = (
{
closed = 1;
nodes = (
"646 258 LINE",
"646 258 OFFCURVE",
"594 262 OFFCURVE",
"575 266 CURVE SMOOTH",
"497 284 OFFCURVE",
"483 326 OFFCURVE",
"483 380 CURVE SMOOTH",
"483 1484 LINE",
"89 1484 LINE",
"83 346 LINE",
"83 190 OFFCURVE",
"105 -2 OFFCURVE",
"495 4 CURVE SMOOTH",
"547 6 OFFCURVE",
"579 10 OFFCURVE",
"646 18 CURVE"
);
}
);
};
layerId = "258ED206-D907-4350-8EBA-CBDDA1C16BF7";
paths = (
{
closed = 1;
nodes = (
"459 -22 OFFCURVE",
"512 -8 OFFCURVE",
"560 10 CURVE",
"596 246 LINE",
"556 250 LINE",
"453 264 OFFCURVE",
"449 314 OFFCURVE",
"457 364 CURVE SMOOTH",
"627 1486 LINE",
"247 1486 LINE",
"69 312 LINE",
"47 160 OFFCURVE",
"31 -22 OFFCURVE",
"411 -22 CURVE SMOOTH"
);
}
);
width = 691;
},
{
anchors = (
{
name = bottom;
position = "{187, 2}";
},
{
name = caron;
position = "{388, 1446}";
},
{
name = top;
position = "{356, 1524}";
}
);
background = {
anchors = (
{
name = bottom;
position = "{246, 0}";
},
{
name = top;
position = "{246, 1484}";
},
{
name = topright;
position = "{536, 1484}";
}
);
paths = (
{
closed = 1;
nodes = (
"506 72 LINE",
"486 72 OFFCURVE",
"460 72 OFFCURVE",
"428 72 CURVE SMOOTH",
"300 72 OFFCURVE",
"286 174 OFFCURVE",
"286 260 CURVE",
"286 1484 LINE",
"206 1484 LINE",
"206 260 LINE",
"206 114 OFFCURVE",
"262 4 OFFCURVE",
"404 4 CURVE SMOOTH",
"452 4 OFFCURVE",
"480 6 OFFCURVE",
"506 12 CURVE"
);
}
);
};
layerId = "91AB5BCA-6A50-42DA-B2F7-8181BF189245";
paths = (
{
closed = 1;
nodes = (
"300 -8 OFFCURVE",
"326 -6 OFFCURVE",
"351 0 CURVE",
"358 58 LINE",
"300 58 LINE",
"248 58 OFFCURVE",
"200 108 OFFCURVE",
"218 242 CURVE",
"395 1486 LINE",
"322 1486 LINE",
"146 242 LINE",
"126 100 OFFCURVE",
"162 -8 OFFCURVE",
"288 -8 CURVE SMOOTH"
);
}
);
width = 531;
}
);
leftKerningGroup = n;
leftMetricsKey = n;
rightKerningGroup = l;
rightMetricsKey = "=u*.65";
unicode = 006C;
},
{
glyphname = lslash;
lastChange = "2019-06-10 23:33:08 +0000";
layers = (
{
background = {
components = (
{
name = l;
transform = "{1, 0, 0, 1, 37, 0}";
}
);
paths = (
{
closed = 1;
nodes = (
"693 1014 OFFCURVE",
"680 1022 OFFCURVE",
"646 1000 CURVE SMOOTH",
"83 648 LINE SMOOTH",
"60 632 OFFCURVE",
"45 610 OFFCURVE",
"45 580 CURVE SMOOTH",
"45 340 LINE SMOOTH",
"45 306 OFFCURVE",
"58 300 OFFCURVE",
"98 326 CURVE SMOOTH",
"653 690 LINE SMOOTH",
"680 708 OFFCURVE",
"693 732 OFFCURVE",
"693 756 CURVE SMOOTH",
"693 982 LINE SMOOTH"
);
}
);
};
components = (
{
name = l;
transform = "{1, 0, 0, 1, 162, 0}";
}
);
layerId = "258ED206-D907-4350-8EBA-CBDDA1C16BF7";
leftMetricsKey = "=l-30";
rightMetricsKey = "=l";
paths = (
{
closed = 1;
nodes = (
"713 698 LINE",
"713 1004 LINE",
"81 608 LINE",
"81 284 LINE"
);
}
);
width = 853;
},
{
background = {
components = (
{
name = l;
transform = "{1, 0, 0, 1, 78, 0}";
}
);
paths = (
{
closed = 1;
nodes = (
"539 874 OFFCURVE",
"535 878 OFFCURVE",
"525 870 CURVE SMOOTH",
"75 450 LINE SMOOTH",
"69 444 OFFCURVE",
"65 438 OFFCURVE",
"65 430 CURVE SMOOTH",
"65 372 LINE SMOOTH",
"65 362 OFFCURVE",
"69 354 OFFCURVE",
"79 362 CURVE SMOOTH",
"527 784 LINE SMOOTH",
"535 792 OFFCURVE",
"539 798 OFFCURVE",
"539 806 CURVE SMOOTH",
"539 866 LINE SMOOTH"
);
}
);
};
components = (
{
name = l;
transform = "{1, 0, 0, 1, 71, 0}";
}
);
layerId = "91AB5BCA-6A50-42DA-B2F7-8181BF189245";
leftMetricsKey = "=l-110";
paths = (
{
closed = 1;
nodes = (
"525 776 LINE",
"525 862 LINE",
"63 430 LINE",
"63 340 LINE"
);
}
);
width = 622;
}
);
leftKerningGroup = n;
leftMetricsKey = "=l-130";
rightKerningGroup = l;
rightMetricsKey = "=l+20";
unicode = 0142;
},
